<?xml version="1.0" encoding="utf-8"?>
<!-- Generator: Adobe Illustrator 28.0.0, SVG Export Plug-In . SVG Version: 6.00 Build 0)  -->
<svg version="1.1" id="Vrstva_1" xmlns="http://www.w3.org/2000/svg" xmlns:xlink="http://www.w3.org/1999/xlink" x="0px" y="0px"
	 viewBox="0 0 476.13 225.19" style="enable-background:new 0 0 476.13 225.19;" xml:space="preserve">
<style type="text/css">
	.st0{fill:#4A5D5C;}
</style>
<g>
	<g>
		<path class="st0" d="M40.69,164.94c-0.4,0.3-0.69,0.69-0.87,1.18h-0.2v-0.49l0.08-1.13l-2.57,0.23v0.06
			c0.16,0.01,0.33,0.04,0.51,0.09c0.18,0.05,0.32,0.11,0.42,0.18v5.88L37.98,172h2.24c-0.22-0.15-0.38-0.33-0.47-0.52
			c-0.09-0.19-0.13-0.5-0.13-0.9v-3.12c0.05-0.36,0.14-0.69,0.25-1c0.12-0.31,0.27-0.56,0.46-0.75c0.19-0.19,0.41-0.28,0.65-0.28
			c0.27,0,0.46,0.13,0.58,0.38c0.12,0.26,0.08,0.63-0.12,1.13h0.06l1.38-2.25c-0.14-0.07-0.28-0.12-0.41-0.15
			c-0.13-0.03-0.26-0.04-0.41-0.04C41.55,164.5,41.09,164.65,40.69,164.94"/>
		<path class="st0" d="M53.97,165.63l0.09-1.06h-2.48v0.03c0.35,0.15,0.57,0.32,0.67,0.51c0.1,0.19,0.15,0.49,0.15,0.91v4.27
			c-0.36,0.28-0.73,0.53-1.13,0.77c-0.39,0.24-0.85,0.36-1.37,0.36c-0.23,0-0.47-0.06-0.7-0.18c-0.23-0.12-0.42-0.33-0.57-0.64
			c-0.15-0.31-0.23-0.75-0.23-1.32v-3.66l0.09-1.06h-2.48v0.03c0.35,0.15,0.57,0.32,0.67,0.51c0.1,0.19,0.15,0.49,0.15,0.91v3.29
			c0,0.58,0.07,1.05,0.2,1.42c0.13,0.36,0.31,0.64,0.53,0.84c0.22,0.2,0.45,0.34,0.7,0.41c0.25,0.08,0.49,0.11,0.71,0.11
			c0.48,0,0.93-0.08,1.35-0.25c0.42-0.16,0.8-0.36,1.16-0.59c0.35-0.23,0.66-0.44,0.91-0.64v1.44l2.42-0.23v-0.06
			c-0.12-0.02-0.27-0.05-0.44-0.1c-0.17-0.05-0.31-0.1-0.42-0.18V165.63"/>
		<path class="st0" d="M64.23,171.67c0.5-0.29,0.86-0.64,1.09-1.05l-0.08-0.06c-0.23,0.31-0.56,0.52-0.99,0.65
			c-0.42,0.13-0.81,0.19-1.17,0.19c-0.62,0-1.17-0.17-1.63-0.5c-0.46-0.33-0.82-0.78-1.08-1.36c-0.26-0.57-0.38-1.21-0.38-1.91
			c0-0.93,0.21-1.65,0.63-2.15c0.42-0.51,0.95-0.76,1.61-0.76c0.47,0,0.87,0.13,1.19,0.38c0.32,0.25,0.53,0.6,0.63,1.04
			c0.1,0.44,0.03,0.96-0.19,1.55h0.03l1.46-2.19c-0.24-0.3-0.58-0.54-1.03-0.74c-0.45-0.19-1-0.29-1.63-0.29
			c-0.77,0-1.48,0.16-2.14,0.47c-0.66,0.32-1.19,0.77-1.59,1.36c-0.4,0.59-0.6,1.3-0.6,2.11c0,0.76,0.18,1.41,0.54,1.96
			c0.36,0.55,0.84,0.98,1.44,1.27c0.6,0.3,1.27,0.44,2.01,0.44C63.1,172.11,63.73,171.96,64.23,171.67 M65.15,160.73v-0.09
			l-3.02,1.82l-3.02-1.82v0.09l3.02,2.56L65.15,160.73"/>
		<path class="st0" d="M77.36,172c-0.22-0.15-0.38-0.33-0.47-0.52c-0.09-0.19-0.13-0.5-0.13-0.9v-3.31c0-0.58-0.07-1.05-0.2-1.42
			c-0.13-0.36-0.31-0.64-0.53-0.84c-0.22-0.2-0.46-0.34-0.72-0.41c-0.26-0.08-0.51-0.11-0.76-0.11c-0.46,0-0.9,0.08-1.31,0.25
			c-0.41,0.16-0.79,0.35-1.13,0.57c-0.34,0.22-0.65,0.42-0.91,0.6v-0.28l0.08-1.13l-2.57,0.23v0.06c0.16,0.01,0.33,0.04,0.51,0.09
			c0.18,0.05,0.32,0.11,0.42,0.18v5.88L69.55,172h2.25c-0.22-0.15-0.38-0.33-0.47-0.52c-0.09-0.19-0.13-0.5-0.13-0.9v-4.33
			c0.36-0.23,0.73-0.47,1.13-0.72c0.39-0.25,0.83-0.37,1.31-0.37c0.27,0,0.52,0.06,0.75,0.17c0.23,0.11,0.43,0.32,0.58,0.64
			c0.15,0.31,0.23,0.76,0.23,1.34v3.65L75.11,172H77.36"/>
		<path class="st0" d="M83.74,172c-0.22-0.15-0.38-0.33-0.47-0.52c-0.09-0.19-0.13-0.5-0.13-0.9v-6.08l-2.5,0.23v0.06
			c0.16,0.01,0.33,0.04,0.51,0.09c0.18,0.05,0.32,0.11,0.42,0.18v5.88L81.51,172H83.74 M85.55,161.43l-0.63-0.83l-3.35,2.86
			l0.06,0.05L85.55,161.43"/>
		<path class="st0" d="M95.44,172.25l1.93-0.52v-0.06l-1.93,0.06v-6.78h1.78l0.08-0.37h-1.85v-1.99l0.12-0.66l-3.02,1.39v0.09
			c0.51-0.14,0.86-0.21,1.05-0.21c0.19,0.01,0.28,0.17,0.28,0.5v7.24l-0.05,0.92l1.29,0.38H95.44"/>
		<path class="st0" d="M106.23,164.64c0.18,0.06,0.36,0.15,0.53,0.25c0.17,0.11,0.27,0.28,0.31,0.51c0.04,0.23-0.04,0.57-0.23,1.01
			l-1.67,3.83l-1.81-3.83c-0.2-0.44-0.29-0.78-0.25-1.03c0.04-0.25,0.16-0.42,0.36-0.54c0.2-0.11,0.43-0.18,0.68-0.21v-0.06h-3.34
			l0.58,1.04l3.09,6.56h0.09l2.54-5.74c0.2-0.44,0.38-0.78,0.53-1.01c0.15-0.23,0.29-0.41,0.44-0.52c0.14-0.11,0.3-0.2,0.46-0.26
			v-0.06h-2.33V164.64"/>
		<path class="st0" d="M115.48,171.43c-0.37-0.28-0.69-0.65-0.96-1.1c-0.27-0.45-0.47-0.95-0.6-1.49c-0.14-0.54-0.21-1.06-0.21-1.59
			c0-0.79,0.16-1.4,0.47-1.85c0.32-0.44,0.77-0.67,1.36-0.67c0.47,0,0.89,0.14,1.26,0.41c0.37,0.28,0.69,0.64,0.96,1.1
			c0.27,0.45,0.47,0.95,0.6,1.49c0.14,0.54,0.21,1.07,0.21,1.59c0,0.78-0.16,1.39-0.47,1.84c-0.32,0.45-0.77,0.67-1.36,0.67
			C116.28,171.85,115.86,171.71,115.48,171.43 M114.07,164.97c-0.6,0.32-1.07,0.77-1.41,1.34c-0.34,0.57-0.51,1.24-0.51,1.99
			s0.17,1.42,0.51,1.99c0.34,0.57,0.81,1.02,1.41,1.34c0.6,0.32,1.3,0.48,2.08,0.48c0.8,0,1.49-0.16,2.09-0.48
			c0.6-0.32,1.06-0.77,1.4-1.35c0.34-0.58,0.51-1.24,0.51-1.98c0-0.77-0.17-1.43-0.51-2.01c-0.34-0.57-0.8-1.02-1.4-1.33
			c-0.6-0.32-1.29-0.47-2.09-0.47C115.36,164.48,114.67,164.64,114.07,164.97"/>
		<path class="st0" d="M127.15,164.94c-0.4,0.3-0.69,0.69-0.87,1.18h-0.2v-0.49l0.08-1.13l-2.57,0.23v0.06
			c0.16,0.01,0.33,0.04,0.51,0.09c0.18,0.05,0.32,0.11,0.42,0.18v5.88l-0.08,1.06h2.24c-0.22-0.15-0.38-0.33-0.47-0.52
			c-0.09-0.19-0.13-0.5-0.13-0.9v-3.12c0.05-0.36,0.14-0.69,0.25-1c0.12-0.31,0.27-0.56,0.46-0.75c0.19-0.19,0.41-0.28,0.65-0.28
			c0.27,0,0.46,0.13,0.58,0.38c0.12,0.26,0.08,0.63-0.12,1.13h0.06l1.38-2.25c-0.14-0.07-0.28-0.12-0.41-0.15
			c-0.13-0.03-0.26-0.04-0.41-0.04C128.02,164.5,127.56,164.65,127.15,164.94"/>
		<path class="st0" d="M135.78,171.62c-0.31-0.12-0.58-0.29-0.82-0.51v-5.8c0.18-0.14,0.39-0.26,0.62-0.34
			c0.23-0.08,0.49-0.12,0.77-0.12c0.59,0,1.1,0.18,1.52,0.55c0.42,0.37,0.75,0.86,0.99,1.48c0.23,0.62,0.35,1.31,0.35,2.08
			c0,1.01-0.21,1.74-0.63,2.18c-0.42,0.44-1,0.67-1.73,0.67C136.45,171.8,136.09,171.74,135.78,171.62 M135.86,164.63
			c-0.35,0.1-0.65,0.22-0.9,0.38v-4.18l0.08-0.61l-2.93,1.36v0.09c0.48-0.14,0.81-0.21,1-0.21c0.19,0,0.28,0.15,0.28,0.46v8.29
			c0,0.5-0.06,0.84-0.17,1.02c-0.11,0.18-0.3,0.3-0.57,0.36v0.02c0.67,0.21,1.3,0.35,1.88,0.42c0.58,0.07,1.07,0.1,1.45,0.1
			c1.1,0,2.01-0.18,2.73-0.55c0.71-0.37,1.25-0.86,1.6-1.48c0.35-0.62,0.53-1.29,0.53-2.01c0-0.7-0.15-1.33-0.46-1.87
			c-0.31-0.54-0.75-0.96-1.32-1.26c-0.57-0.3-1.25-0.45-2.04-0.45C136.6,164.48,136.21,164.53,135.86,164.63"/>
		<path class="st0" d="M147,165.59c0.41-0.54,1.01-0.81,1.78-0.81c0.4,0,0.75,0.08,1.06,0.23c0.31,0.15,0.57,0.35,0.8,0.6v4.95
			c0,0.12,0,0.23-0.01,0.32c-0.01,0.09-0.01,0.17-0.02,0.25c-0.15,0.17-0.33,0.31-0.52,0.41c-0.19,0.1-0.43,0.15-0.72,0.15
			c-0.56,0-1.07-0.17-1.52-0.52c-0.45-0.35-0.81-0.82-1.07-1.41c-0.26-0.59-0.39-1.26-0.39-1.99
			C146.38,166.85,146.59,166.13,147,165.59 M152.2,165.05c-0.82-0.38-1.71-0.57-2.68-0.57c-1.07,0-1.96,0.19-2.66,0.57
			c-0.7,0.38-1.23,0.88-1.58,1.5c-0.35,0.62-0.52,1.3-0.52,2.04c0,0.74,0.16,1.37,0.47,1.89c0.32,0.53,0.75,0.93,1.31,1.21
			c0.56,0.28,1.19,0.42,1.91,0.42c0.36,0,0.69-0.04,1-0.11c0.31-0.07,0.58-0.17,0.83-0.31l-0.02,0.02l2.54,0.47v-0.05
			c-0.22-0.15-0.38-0.32-0.47-0.51c-0.09-0.18-0.13-0.48-0.13-0.89V165.05"/>
		<path class="st0" d="M165.17,168.53c0.2-0.2,0.3-0.45,0.3-0.75c0-0.29-0.1-0.53-0.3-0.73c-0.2-0.2-0.45-0.3-0.74-0.3
			c-0.29,0-0.53,0.1-0.74,0.3c-0.21,0.2-0.31,0.44-0.31,0.73c0,0.3,0.1,0.55,0.31,0.75c0.21,0.2,0.46,0.31,0.74,0.31
			C164.72,168.83,164.97,168.73,165.17,168.53"/>
		<path class="st0" d="M179.12,171.13c-0.45-0.35-0.81-0.81-1.07-1.4c-0.26-0.59-0.39-1.25-0.39-1.98c0-0.9,0.21-1.62,0.62-2.16
			c0.41-0.54,1.01-0.81,1.78-0.81c0.4,0,0.75,0.08,1.06,0.23c0.31,0.15,0.57,0.35,0.8,0.6v5.48c-0.15,0.17-0.33,0.31-0.53,0.41
			c-0.2,0.1-0.45,0.15-0.74,0.15C180.08,171.65,179.57,171.48,179.12,171.13 M178.13,165.05c-0.7,0.38-1.23,0.88-1.58,1.5
			c-0.35,0.62-0.52,1.3-0.52,2.04c0,0.74,0.16,1.37,0.47,1.89c0.32,0.53,0.75,0.93,1.31,1.21c0.56,0.28,1.19,0.42,1.91,0.42
			c0.46,0,0.88-0.06,1.25-0.18c0.37-0.12,0.69-0.27,0.94-0.47v1.32c0,0.53-0.16,0.98-0.47,1.35c-0.31,0.37-0.71,0.55-1.19,0.55
			c-0.15,0-0.35-0.02-0.58-0.07c-0.23-0.05-0.48-0.17-0.74-0.36c-0.26-0.19-0.49-0.51-0.7-0.93l-1.55,0.46
			c0.2,0.37,0.45,0.66,0.74,0.87c0.29,0.21,0.58,0.35,0.88,0.44c0.3,0.08,0.56,0.12,0.8,0.12c0.33,0,0.68-0.06,1.07-0.18
			c0.39-0.12,0.77-0.27,1.16-0.46c0.38-0.19,0.74-0.39,1.06-0.61c0.33-0.22,0.59-0.43,0.78-0.64c0.19-0.21,0.29-0.4,0.29-0.56v-7.7
			c-0.82-0.38-1.71-0.57-2.68-0.57C179.72,164.48,178.83,164.67,178.13,165.05"/>
		<path class="st0" d="M190.71,164.94c-0.4,0.3-0.69,0.69-0.87,1.18h-0.2v-0.49l0.08-1.13l-2.57,0.23v0.06
			c0.16,0.01,0.33,0.04,0.51,0.09c0.18,0.05,0.32,0.11,0.42,0.18v5.88l-0.08,1.06h2.24c-0.22-0.15-0.38-0.33-0.47-0.52
			c-0.09-0.19-0.13-0.5-0.13-0.9v-3.12c0.05-0.36,0.14-0.69,0.25-1c0.12-0.31,0.27-0.56,0.46-0.75c0.19-0.19,0.41-0.28,0.65-0.28
			c0.27,0,0.46,0.13,0.58,0.38c0.12,0.26,0.08,0.63-0.12,1.13h0.06l1.38-2.25c-0.14-0.07-0.28-0.12-0.41-0.15
			c-0.13-0.03-0.26-0.04-0.41-0.04C191.58,164.5,191.11,164.65,190.71,164.94"/>
		<path class="st0" d="M198.67,165.59c0.41-0.54,1.01-0.81,1.78-0.81c0.4,0,0.75,0.08,1.06,0.23c0.31,0.15,0.57,0.35,0.8,0.6v4.95
			c0,0.12,0,0.23-0.01,0.32c-0.01,0.09-0.01,0.17-0.02,0.25c-0.15,0.17-0.33,0.31-0.52,0.41c-0.19,0.1-0.43,0.15-0.72,0.15
			c-0.56,0-1.07-0.17-1.52-0.52c-0.45-0.35-0.81-0.82-1.07-1.41c-0.26-0.59-0.39-1.26-0.39-1.99
			C198.05,166.85,198.26,166.13,198.67,165.59 M203.87,165.05c-0.82-0.38-1.71-0.57-2.68-0.57c-1.07,0-1.96,0.19-2.66,0.57
			c-0.7,0.38-1.23,0.88-1.58,1.5c-0.35,0.62-0.52,1.3-0.52,2.04c0,0.74,0.16,1.37,0.47,1.89c0.32,0.53,0.75,0.93,1.31,1.21
			c0.56,0.28,1.19,0.42,1.91,0.42c0.36,0,0.69-0.04,1-0.11c0.31-0.07,0.58-0.17,0.83-0.31l-0.02,0.02l2.54,0.47v-0.05
			c-0.22-0.15-0.38-0.32-0.47-0.51c-0.09-0.18-0.13-0.48-0.13-0.89V165.05"/>
		<path class="st0" d="M211.92,160.49c-0.52,0.18-0.98,0.44-1.4,0.78c-0.42,0.34-0.75,0.76-1,1.25c-0.25,0.49-0.37,1.05-0.37,1.68
			v0.37h-1.09l-0.08,0.37c0.36,0,0.64,0.02,0.85,0.07c0.21,0.05,0.31,0.25,0.31,0.6v5.44l-0.25,0.95h2.83v-0.06
			c-0.46-0.08-0.75-0.24-0.86-0.47c-0.11-0.23-0.17-0.55-0.17-0.96v-5.57h2.34l0.08-0.37h-2.42v-1.01c0-0.85,0.12-1.54,0.37-2.07
			c0.25-0.53,0.67-0.8,1.27-0.8c0.33,0,0.66,0.08,0.99,0.23c0.33,0.15,0.64,0.33,0.93,0.54c0.29,0.21,0.52,0.41,0.69,0.6l1.29-1.1
			c-0.64-0.33-1.18-0.53-1.61-0.62c-0.43-0.09-0.8-0.13-1.12-0.13C212.97,160.22,212.44,160.31,211.92,160.49"/>
		<path class="st0" d="M219.39,172c-0.22-0.15-0.38-0.33-0.47-0.52c-0.09-0.19-0.13-0.5-0.13-0.9v-4.95l0.08-1.13l-2.57,0.23v0.06
			c0.16,0.01,0.33,0.04,0.51,0.09c0.18,0.05,0.32,0.11,0.42,0.18v5.88l-0.09,1.06H219.39 M218.6,162.75
			c0.18-0.18,0.27-0.41,0.27-0.67s-0.09-0.49-0.27-0.67c-0.18-0.18-0.4-0.28-0.67-0.28c-0.28,0-0.51,0.09-0.69,0.28
			c-0.18,0.18-0.28,0.41-0.28,0.67s0.09,0.49,0.28,0.67c0.18,0.18,0.41,0.28,0.69,0.28C218.2,163.03,218.42,162.94,218.6,162.75"/>
		<path class="st0" d="M229.02,171.67c0.5-0.29,0.86-0.64,1.09-1.05l-0.08-0.06c-0.23,0.31-0.56,0.52-0.99,0.65
			c-0.42,0.13-0.81,0.19-1.17,0.19c-0.62,0-1.17-0.17-1.63-0.5c-0.46-0.33-0.82-0.78-1.08-1.36c-0.26-0.57-0.38-1.21-0.38-1.91
			c0-0.93,0.21-1.65,0.63-2.15c0.42-0.51,0.95-0.76,1.61-0.76c0.47,0,0.87,0.13,1.19,0.38c0.32,0.25,0.53,0.6,0.63,1.04
			c0.1,0.44,0.03,0.96-0.19,1.55h0.03l1.45-2.19c-0.23-0.3-0.58-0.54-1.03-0.74c-0.45-0.19-1-0.29-1.63-0.29
			c-0.77,0-1.48,0.16-2.14,0.47c-0.66,0.32-1.19,0.77-1.59,1.36c-0.4,0.59-0.6,1.3-0.6,2.11c0,0.76,0.18,1.41,0.54,1.96
			c0.36,0.55,0.84,0.98,1.44,1.27c0.6,0.3,1.27,0.44,2.01,0.44C227.89,172.11,228.52,171.96,229.02,171.67"/>
		<path class="st0" d="M241.24,171.57c-0.21-0.16-0.43-0.36-0.67-0.61c-0.24-0.25-0.54-0.57-0.9-0.97l-2.16-2.51l1.04-1.04
			c0.66-0.66,1.24-1.11,1.74-1.35c0.5-0.23,0.9-0.37,1.22-0.41l0.03-0.09h-2.62l-0.03,0.09c0.38,0.06,0.56,0.16,0.54,0.31
			c-0.02,0.14-0.09,0.29-0.24,0.43l-3.11,3.08h0.54l2.79,3.26V172h2.54C241.68,171.87,241.44,171.72,241.24,171.57 M236.04,160.82
			l0.08-0.61l-2.93,1.36v0.09c0.48-0.14,0.81-0.21,1-0.21c0.19,0,0.28,0.15,0.28,0.46v9.14l-0.14,0.95h2.57v-0.06
			c-0.38-0.08-0.62-0.24-0.72-0.47c-0.1-0.23-0.15-0.55-0.15-0.96V160.82"/>
		<path class="st0" d="M250.51,164.64c0.18,0.06,0.36,0.15,0.53,0.25c0.17,0.11,0.28,0.28,0.32,0.51c0.05,0.23-0.02,0.57-0.21,1.01
			l-1.79,4.21l-1.87-4.21c-0.19-0.44-0.27-0.78-0.23-1.03c0.04-0.25,0.16-0.42,0.35-0.54c0.19-0.11,0.42-0.18,0.67-0.21v-0.06h-3.28
			l0.57,1.04l3.05,6.74l-0.17,0.4c-0.26,0.59-0.63,1.01-1.12,1.26c-0.49,0.25-1.05,0.38-1.68,0.38l0.58,0.67
			c0.53,0,0.95-0.11,1.26-0.33c0.31-0.22,0.55-0.5,0.74-0.84c0.19-0.34,0.36-0.7,0.51-1.06l2.7-6.4c0.19-0.45,0.37-0.79,0.52-1.03
			c0.15-0.23,0.3-0.41,0.44-0.51c0.14-0.11,0.3-0.19,0.46-0.25v-0.06h-2.36V164.64 M251.47,160.61l-3.35,2.86l0.06,0.05l3.92-2.08
			L251.47,160.61"/>
		<path class="st0" d="M264.45,165.59c0.41-0.54,1.01-0.81,1.78-0.81c0.4,0,0.75,0.08,1.06,0.23c0.31,0.15,0.57,0.35,0.8,0.6v4.95
			c0,0.12,0,0.23-0.01,0.32c-0.01,0.09-0.01,0.17-0.02,0.25c-0.15,0.17-0.33,0.31-0.52,0.41c-0.19,0.1-0.43,0.15-0.72,0.15
			c-0.56,0-1.07-0.17-1.52-0.52c-0.45-0.35-0.81-0.82-1.07-1.41c-0.26-0.59-0.39-1.26-0.39-1.99
			C263.83,166.85,264.04,166.13,264.45,165.59 M269.65,160.82l0.08-0.61l-2.91,1.36v0.09c0.48-0.14,0.81-0.21,1-0.21
			c0.18,0,0.28,0.15,0.28,0.46v2.66c-0.35-0.06-0.72-0.09-1.12-0.09c-1.07,0-1.96,0.19-2.66,0.57c-0.7,0.38-1.23,0.88-1.58,1.5
			c-0.35,0.62-0.52,1.3-0.52,2.04c0,0.74,0.16,1.37,0.47,1.89c0.32,0.53,0.75,0.93,1.31,1.21c0.56,0.28,1.19,0.42,1.91,0.42
			c0.36,0,0.69-0.04,1-0.11c0.31-0.07,0.58-0.17,0.83-0.31l-0.02,0.02l2.54,0.47v-0.05c-0.22-0.15-0.38-0.32-0.47-0.51
			c-0.09-0.18-0.13-0.48-0.13-0.89V160.82"/>
		<path class="st0" d="M278.82,165.02c0.27,0.18,0.48,0.41,0.64,0.67c0.15,0.27,0.25,0.53,0.29,0.8c0.04,0.27,0.02,0.5-0.05,0.68
			c-0.08,0.18-0.21,0.28-0.41,0.28l-3.57,0.03c0.03-0.86,0.24-1.53,0.64-2.01c0.39-0.48,0.89-0.73,1.48-0.73
			C278.22,164.74,278.55,164.84,278.82,165.02 M280.58,171c-0.29,0.14-0.6,0.24-0.92,0.31c-0.32,0.07-0.62,0.1-0.88,0.1
			c-0.61,0-1.15-0.16-1.6-0.47c-0.45-0.32-0.81-0.75-1.06-1.3c-0.26-0.55-0.39-1.18-0.4-1.88h4.27c0.39,0,0.68-0.11,0.88-0.33
			c0.2-0.22,0.3-0.49,0.31-0.82c0.01-0.33-0.09-0.65-0.29-0.97c-0.2-0.32-0.51-0.59-0.93-0.81c-0.42-0.22-0.95-0.33-1.59-0.33
			c-0.75,0-1.45,0.16-2.1,0.47c-0.65,0.32-1.18,0.77-1.59,1.36c-0.4,0.59-0.6,1.3-0.6,2.13c0,0.76,0.18,1.41,0.53,1.95
			c0.35,0.55,0.83,0.97,1.42,1.26c0.6,0.3,1.26,0.44,2,0.44c0.8,0,1.49-0.16,2.08-0.47c0.59-0.31,0.99-0.68,1.22-1.11l-0.08-0.06
			C281.09,170.69,280.87,170.86,280.58,171"/>
		<path class="st0" d="M290.17,171.44c0.55-0.45,0.83-1.02,0.83-1.7c0-0.32-0.08-0.63-0.24-0.93c-0.16-0.3-0.43-0.57-0.83-0.81
			c-0.39-0.24-0.95-0.42-1.68-0.53c-0.33-0.06-0.64-0.14-0.94-0.25c-0.3-0.1-0.55-0.26-0.74-0.46c-0.19-0.2-0.29-0.48-0.29-0.83
			c0-0.18,0.03-0.37,0.1-0.56c0.07-0.19,0.19-0.35,0.38-0.47c0.18-0.13,0.44-0.19,0.78-0.19c0.36,0,0.72,0.08,1.08,0.25
			c0.36,0.17,0.66,0.41,0.9,0.71c0.24,0.31,0.34,0.68,0.31,1.12h0.03l1-1.44c-0.3-0.25-0.69-0.45-1.18-0.62
			c-0.49-0.17-1.02-0.25-1.59-0.25c-0.55,0-1.05,0.08-1.5,0.25c-0.45,0.17-0.8,0.42-1.06,0.74c-0.26,0.33-0.39,0.72-0.39,1.18
			c0,0.28,0.07,0.57,0.21,0.9c0.14,0.32,0.42,0.62,0.83,0.88c0.41,0.27,1,0.46,1.78,0.58c0.61,0.09,1.09,0.26,1.43,0.49
			c0.34,0.23,0.51,0.6,0.51,1.09c0,0.36-0.1,0.66-0.31,0.9c-0.21,0.25-0.57,0.37-1.08,0.37c-0.4,0-0.8-0.08-1.21-0.25
			c-0.41-0.17-0.75-0.41-1.02-0.74c-0.27-0.32-0.41-0.7-0.41-1.14h-0.03l-0.89,1.47c0.33,0.26,0.76,0.47,1.29,0.64
			c0.53,0.17,1.09,0.26,1.68,0.26C288.87,172.11,289.62,171.89,290.17,171.44"/>
		<path class="st0" d="M297.46,172c-0.22-0.15-0.38-0.33-0.47-0.52c-0.09-0.19-0.13-0.5-0.13-0.9v-4.95l0.08-1.13l-2.57,0.23v0.06
			c0.16,0.01,0.33,0.04,0.51,0.09c0.18,0.05,0.32,0.11,0.42,0.18v5.88l-0.09,1.06H297.46 M296.68,162.75
			c0.18-0.18,0.27-0.41,0.27-0.67s-0.09-0.49-0.27-0.67c-0.18-0.18-0.4-0.28-0.67-0.28c-0.28,0-0.51,0.09-0.69,0.28
			c-0.18,0.18-0.28,0.41-0.28,0.67s0.09,0.49,0.28,0.67s0.41,0.28,0.69,0.28C296.27,163.03,296.5,162.94,296.68,162.75"/>
		<path class="st0" d="M304.3,171.13c-0.45-0.35-0.81-0.81-1.07-1.4c-0.26-0.59-0.39-1.25-0.39-1.98c0-0.9,0.21-1.62,0.62-2.16
			c0.41-0.54,1.01-0.81,1.78-0.81c0.4,0,0.75,0.08,1.06,0.23c0.31,0.15,0.57,0.35,0.8,0.6v5.48c-0.15,0.17-0.33,0.31-0.53,0.41
			c-0.2,0.1-0.45,0.15-0.74,0.15C305.26,171.65,304.76,171.48,304.3,171.13 M303.31,165.05c-0.7,0.38-1.23,0.88-1.58,1.5
			c-0.35,0.62-0.52,1.3-0.52,2.04c0,0.74,0.16,1.37,0.47,1.89c0.32,0.53,0.75,0.93,1.31,1.21c0.56,0.28,1.19,0.42,1.91,0.42
			c0.46,0,0.88-0.06,1.25-0.18c0.37-0.12,0.69-0.27,0.94-0.47v1.32c0,0.53-0.16,0.98-0.47,1.35c-0.31,0.37-0.71,0.55-1.19,0.55
			c-0.15,0-0.35-0.02-0.58-0.07c-0.23-0.05-0.48-0.17-0.74-0.36c-0.26-0.19-0.49-0.51-0.7-0.93l-1.55,0.46
			c0.2,0.37,0.45,0.66,0.74,0.87c0.29,0.21,0.58,0.35,0.88,0.44c0.3,0.08,0.56,0.12,0.8,0.12c0.33,0,0.68-0.06,1.07-0.18
			c0.39-0.12,0.77-0.27,1.16-0.46c0.38-0.19,0.74-0.39,1.06-0.61c0.33-0.22,0.59-0.43,0.78-0.64c0.19-0.21,0.29-0.4,0.29-0.56v-7.7
			c-0.82-0.38-1.71-0.57-2.68-0.57C304.91,164.48,304.02,164.67,303.31,165.05"/>
		<path class="st0" d="M320.99,172c-0.22-0.15-0.38-0.33-0.47-0.52c-0.09-0.19-0.13-0.5-0.13-0.9v-3.31c0-0.58-0.07-1.05-0.2-1.42
			c-0.13-0.36-0.31-0.64-0.53-0.84c-0.22-0.2-0.46-0.34-0.72-0.41c-0.26-0.08-0.51-0.11-0.76-0.11c-0.46,0-0.9,0.08-1.31,0.25
			c-0.41,0.16-0.79,0.35-1.13,0.57c-0.34,0.22-0.65,0.42-0.91,0.6v-0.28l0.08-1.13l-2.57,0.23v0.06c0.16,0.01,0.33,0.04,0.51,0.09
			c0.18,0.05,0.32,0.11,0.42,0.18v5.88l-0.09,1.06h2.25c-0.22-0.15-0.38-0.33-0.47-0.52c-0.09-0.19-0.13-0.5-0.13-0.9v-4.33
			c0.36-0.23,0.73-0.47,1.13-0.72c0.39-0.25,0.83-0.37,1.31-0.37c0.27,0,0.52,0.06,0.75,0.17c0.23,0.11,0.43,0.32,0.58,0.64
			c0.15,0.31,0.23,0.76,0.23,1.34v3.65l-0.09,1.06H320.99"/>
		<path class="st0" d="M333.2,168.53c0.2-0.2,0.3-0.45,0.3-0.75c0-0.29-0.1-0.53-0.3-0.73c-0.2-0.2-0.45-0.3-0.74-0.3
			c-0.29,0-0.53,0.1-0.74,0.3c-0.21,0.2-0.31,0.44-0.31,0.73c0,0.3,0.1,0.55,0.31,0.75c0.21,0.2,0.46,0.31,0.74,0.31
			C332.75,168.83,333,168.73,333.2,168.53"/>
		<path class="st0" d="M347.4,171.43c-0.37-0.28-0.69-0.65-0.96-1.1c-0.27-0.45-0.47-0.95-0.6-1.49c-0.14-0.54-0.21-1.06-0.21-1.59
			c0-0.79,0.16-1.4,0.47-1.85c0.32-0.44,0.77-0.67,1.36-0.67c0.47,0,0.89,0.14,1.26,0.41c0.37,0.28,0.69,0.64,0.96,1.1
			c0.27,0.45,0.47,0.95,0.6,1.49c0.14,0.54,0.21,1.07,0.21,1.59c0,0.78-0.16,1.39-0.47,1.84c-0.32,0.45-0.77,0.67-1.36,0.67
			C348.19,171.85,347.77,171.71,347.4,171.43 M345.98,164.97c-0.6,0.32-1.07,0.77-1.41,1.34c-0.34,0.57-0.51,1.24-0.51,1.99
			s0.17,1.42,0.51,1.99c0.34,0.57,0.81,1.02,1.41,1.34c0.6,0.32,1.3,0.48,2.08,0.48c0.8,0,1.49-0.16,2.09-0.48
			c0.6-0.32,1.06-0.77,1.4-1.35c0.34-0.58,0.51-1.24,0.51-1.98c0-0.77-0.17-1.43-0.51-2.01c-0.34-0.57-0.8-1.02-1.4-1.33
			c-0.6-0.32-1.29-0.47-2.09-0.47C347.28,164.48,346.58,164.64,345.98,164.97"/>
		<path class="st0" d="M358.87,171.62c-0.31-0.12-0.58-0.29-0.82-0.51v-5.8c0.18-0.14,0.39-0.26,0.62-0.34
			c0.23-0.08,0.49-0.12,0.77-0.12c0.59,0,1.1,0.18,1.52,0.55c0.42,0.37,0.75,0.86,0.99,1.48c0.23,0.62,0.35,1.31,0.35,2.08
			c0,1.01-0.21,1.74-0.63,2.18c-0.42,0.44-1,0.67-1.73,0.67C359.54,171.8,359.18,171.74,358.87,171.62 M358.95,164.63
			c-0.35,0.1-0.65,0.22-0.9,0.38v-4.18l0.08-0.61l-2.93,1.36v0.09c0.48-0.14,0.81-0.21,1-0.21c0.19,0,0.28,0.15,0.28,0.46v8.29
			c0,0.5-0.06,0.84-0.17,1.02c-0.11,0.18-0.3,0.3-0.57,0.36v0.02c0.67,0.21,1.3,0.35,1.88,0.42c0.58,0.07,1.07,0.1,1.46,0.1
			c1.1,0,2.01-0.18,2.73-0.55c0.71-0.37,1.25-0.86,1.6-1.48c0.35-0.62,0.53-1.29,0.53-2.01c0-0.7-0.15-1.33-0.46-1.87
			c-0.31-0.54-0.75-0.96-1.32-1.26c-0.57-0.3-1.25-0.45-2.04-0.45C359.69,164.48,359.3,164.53,358.95,164.63"/>
		<path class="st0" d="M370.95,164.94c-0.4,0.3-0.69,0.69-0.87,1.18h-0.2v-0.49l0.08-1.13l-2.57,0.23v0.06
			c0.16,0.01,0.33,0.04,0.51,0.09c0.18,0.05,0.32,0.11,0.42,0.18v5.88l-0.08,1.06h2.24c-0.22-0.15-0.38-0.33-0.47-0.52
			c-0.09-0.19-0.13-0.5-0.13-0.9v-3.12c0.05-0.36,0.14-0.69,0.25-1c0.12-0.31,0.27-0.56,0.46-0.75c0.19-0.19,0.41-0.28,0.65-0.28
			c0.27,0,0.46,0.13,0.58,0.38c0.12,0.26,0.08,0.63-0.12,1.13h0.06l1.38-2.25c-0.14-0.07-0.28-0.12-0.41-0.15
			c-0.13-0.03-0.26-0.04-0.41-0.04C371.82,164.5,371.36,164.65,370.95,164.94"/>
		<path class="st0" d="M378.92,165.59c0.41-0.54,1.01-0.81,1.78-0.81c0.4,0,0.75,0.08,1.06,0.23c0.31,0.15,0.57,0.35,0.8,0.6v4.95
			c0,0.12,0,0.23-0.01,0.32c-0.01,0.09-0.01,0.17-0.02,0.25c-0.15,0.17-0.33,0.31-0.52,0.41c-0.19,0.1-0.43,0.15-0.72,0.15
			c-0.56,0-1.07-0.17-1.52-0.52c-0.45-0.35-0.81-0.82-1.07-1.41c-0.26-0.59-0.39-1.26-0.39-1.99
			C378.3,166.85,378.5,166.13,378.92,165.59 M384.12,165.05c-0.82-0.38-1.71-0.57-2.68-0.57c-1.07,0-1.96,0.19-2.66,0.57
			c-0.7,0.38-1.23,0.88-1.58,1.5c-0.35,0.62-0.52,1.3-0.52,2.04c0,0.74,0.16,1.37,0.47,1.89c0.32,0.53,0.75,0.93,1.31,1.21
			c0.56,0.28,1.19,0.42,1.91,0.42c0.36,0,0.69-0.04,1-0.11c0.31-0.07,0.58-0.17,0.83-0.31l-0.02,0.02l2.54,0.47v-0.05
			c-0.22-0.15-0.38-0.32-0.47-0.51c-0.09-0.18-0.13-0.48-0.13-0.89V165.05"/>
		<path class="st0" d="M395.4,164.57h-6.34l-0.35,2.28c0.22-0.53,0.47-0.94,0.75-1.24c0.28-0.3,0.6-0.51,0.98-0.63
			c0.38-0.12,0.84-0.18,1.38-0.18h1.23l-2.82,4.87c-0.41,0.71-0.77,1.26-1.09,1.62c-0.32,0.37-0.59,0.6-0.83,0.7h6.51l0.35-2.28
			c-0.22,0.53-0.47,0.94-0.75,1.24c-0.28,0.3-0.6,0.51-0.98,0.63c-0.38,0.12-0.84,0.18-1.38,0.18h-1.36l3.09-5.3
			c0.39-0.66,0.7-1.13,0.93-1.39c0.23-0.26,0.46-0.41,0.68-0.45V164.57"/>
		<path class="st0" d="M404.27,164.64c0.18,0.06,0.36,0.15,0.53,0.25c0.17,0.11,0.28,0.28,0.32,0.51c0.05,0.23-0.02,0.57-0.21,1.01
			l-1.79,4.21l-1.87-4.21c-0.19-0.44-0.27-0.78-0.23-1.03c0.04-0.25,0.16-0.42,0.35-0.54c0.19-0.11,0.42-0.18,0.67-0.21v-0.06h-3.28
			l0.57,1.04l3.05,6.74l-0.17,0.4c-0.26,0.59-0.63,1.01-1.12,1.26c-0.49,0.25-1.05,0.38-1.68,0.38l0.58,0.67
			c0.53,0,0.95-0.11,1.26-0.33c0.31-0.22,0.55-0.5,0.74-0.84c0.19-0.34,0.36-0.7,0.51-1.06l2.7-6.4c0.19-0.45,0.37-0.79,0.52-1.03
			c0.15-0.23,0.3-0.41,0.44-0.51c0.14-0.11,0.3-0.19,0.46-0.25v-0.06h-2.36V164.64"/>
		<path class="st0" d="M38.31,121.57V76.11h16.67c4.85,0,9.08,0.97,12.72,2.92c3.63,1.95,6.45,4.64,8.44,8.09
			c2,3.44,2.99,7.35,2.99,11.72c0,4.37-1,8.28-2.99,11.72c-2,3.44-4.81,6.14-8.44,8.09c-3.63,1.95-7.87,2.92-12.72,2.92H38.31
			 M35.89,123.78h19.24c5.18,0,9.77-1.07,13.79-3.21c4.01-2.14,7.13-5.09,9.33-8.87c2.21-3.78,3.31-8.06,3.31-12.86
			c0-4.8-1.1-9.08-3.31-12.86c-2.21-3.78-5.32-6.73-9.33-8.87c-4.01-2.14-8.61-3.21-13.79-3.21H35.89V123.78"/>
		<path class="st0" d="M103.43,122c-3.42,0-6.12-0.76-8.09-2.28c-1.97-1.52-2.96-3.61-2.96-6.27c0-2.47,0.89-4.43,2.67-5.88
			c1.78-1.45,4.6-2.17,8.44-2.17h13.47v7.7C114.59,119.03,110.08,122,103.43,122 M105.64,86.51c-2.8,0-5.48,0.48-8.02,1.43
			c-2.54,0.95-4.71,2.28-6.52,3.99l1.28,1.71c1.61-1.52,3.56-2.73,5.84-3.63c2.28-0.9,4.73-1.35,7.34-1.35
			c3.75,0,6.59,0.95,8.51,2.85c1.92,1.9,2.89,4.68,2.89,8.34v3.63H103.5c-4.7,0-8.12,0.94-10.26,2.81c-2.14,1.88-3.21,4.31-3.21,7.3
			c0,3.14,1.18,5.65,3.53,7.55c2.35,1.9,5.59,2.85,9.73,2.85c3.28,0,6.09-0.68,8.44-2.03c2.35-1.35,4.12-3.22,5.31-5.59v7.41h2.28
			V99.84c0-4.32-1.18-7.62-3.53-9.9C113.44,87.65,110.06,86.51,105.64,86.51"/>
		<path class="st0" d="M152.17,86.51c-3.66,0-6.8,0.83-9.44,2.49c-2.64,1.66-4.55,3.94-5.74,6.84V86.8h-2.28v36.98h2.35v-19.95
			c0-4.61,1.33-8.28,3.99-11.01c2.66-2.73,6.29-4.1,10.9-4.1c4.08,0,7.23,1.15,9.44,3.46c2.21,2.3,3.31,5.64,3.31,10.01v21.59h2.35
			v-21.73c0-4.99-1.33-8.82-3.99-11.51C160.41,87.85,156.77,86.51,152.17,86.51"/>
		<path class="st0" d="M207.81,86.8l-15.53,34.27L176.74,86.8h-2.57L191,123.71l-2.35,5.06c-1.19,2.57-2.46,4.37-3.81,5.42
			c-1.35,1.04-2.96,1.57-4.81,1.57c-1.43,0-2.68-0.24-3.78-0.71c-1.09-0.48-2.14-1.26-3.14-2.35l-1.35,1.85
			c1,1.09,2.21,1.91,3.63,2.46c1.42,0.55,2.97,0.82,4.63,0.82c2.37,0,4.44-0.64,6.2-1.92c1.76-1.28,3.32-3.47,4.7-6.56l19.38-42.54
			H207.81"/>
		<path class="st0" d="M227.12,123.99c4.56,0,8.05-0.88,10.47-2.64c2.42-1.76,3.63-4.13,3.63-7.13c0-2.28-0.61-4.06-1.82-5.34
			c-1.21-1.28-2.7-2.22-4.45-2.81c-1.76-0.59-4.06-1.15-6.91-1.67c-2.66-0.52-4.76-1.03-6.31-1.53c-1.54-0.5-2.84-1.27-3.88-2.32
			c-1.05-1.04-1.57-2.47-1.57-4.28c0-2.28,0.93-4.12,2.78-5.52c1.85-1.4,4.61-2.1,8.27-2.1c2.09,0,4.12,0.3,6.09,0.89
			c1.97,0.59,3.69,1.46,5.17,2.6l1.21-1.85c-1.42-1.14-3.28-2.05-5.56-2.74c-2.28-0.69-4.56-1.03-6.84-1.03
			c-4.42,0-7.78,0.94-10.08,2.81c-2.3,1.88-3.46,4.22-3.46,7.02c0,2.38,0.62,4.23,1.85,5.56c1.23,1.33,2.74,2.29,4.52,2.89
			c1.78,0.59,4.17,1.18,7.16,1.75c2.57,0.48,4.61,0.95,6.13,1.43c1.52,0.48,2.79,1.21,3.81,2.21c1.02,1,1.53,2.35,1.53,4.06
			c0,2.42-0.95,4.31-2.85,5.66c-1.9,1.35-4.85,2.03-8.84,2.03c-2.71,0-5.26-0.45-7.66-1.35c-2.4-0.9-4.36-2.02-5.88-3.35l-1.14,1.85
			c1.47,1.47,3.53,2.66,6.16,3.56C221.31,123.54,224.13,123.99,227.12,123.99"/>
		<path class="st0" d="M260.61,123.99c4.56,0,8.05-0.88,10.47-2.64c2.42-1.76,3.63-4.13,3.63-7.13c0-2.28-0.61-4.06-1.82-5.34
			c-1.21-1.28-2.7-2.22-4.45-2.81c-1.76-0.59-4.06-1.15-6.91-1.67c-2.66-0.52-4.76-1.03-6.31-1.53c-1.54-0.5-2.84-1.27-3.88-2.32
			c-1.05-1.04-1.57-2.47-1.57-4.28c0-2.28,0.93-4.12,2.78-5.52c1.85-1.4,4.61-2.1,8.27-2.1c2.09,0,4.12,0.3,6.09,0.89
			c1.97,0.59,3.69,1.46,5.17,2.6l1.21-1.85c-1.42-1.14-3.28-2.05-5.56-2.74c-2.28-0.69-4.56-1.03-6.84-1.03
			c-4.42,0-7.78,0.94-10.08,2.81c-2.3,1.88-3.46,4.22-3.46,7.02c0,2.38,0.62,4.23,1.85,5.56c1.23,1.33,2.74,2.29,4.52,2.89
			c1.78,0.59,4.17,1.18,7.16,1.75c2.57,0.48,4.61,0.95,6.13,1.43c1.52,0.48,2.79,1.21,3.81,2.21c1.02,1,1.53,2.35,1.53,4.06
			c0,2.42-0.95,4.31-2.85,5.66c-1.9,1.35-4.85,2.03-8.84,2.03c-2.71,0-5.26-0.45-7.66-1.35c-2.4-0.9-4.36-2.02-5.88-3.35l-1.14,1.85
			c1.47,1.47,3.53,2.66,6.16,3.56C254.8,123.54,257.61,123.99,260.61,123.99"/>
		<path class="st0" d="M307.7,80.09c1.02-3.37,2.22-7.35,3.61-11.96c1.39-4.6,2.83-9.31,4.33-14.12c1.5-4.81,2.89-9.2,4.17-13.16
			c1.28-3.96,2.3-6.95,3.05-8.99c0,2.03,0.05,4.89,0.16,8.59c0.11,3.69,0.24,7.76,0.4,12.2c0.16,4.44,0.32,8.77,0.48,13
			c0.16,4.23,0.32,7.86,0.48,10.91c0.16,3.05,0.29,5,0.4,5.86l-18.94,4.01C306.06,85.57,306.68,83.46,307.7,80.09 M310.51,87.55
			c2.57-0.53,5.24-1.12,8.02-1.77c2.78-0.64,4.92-1.12,6.42-1.44c0,0.11,0.11,1.39,0.32,3.85c0.21,2.46,0.45,5.59,0.72,9.39
			c0.27,3.8,0.56,7.84,0.88,12.12c0.32,4.28,0.61,8.4,0.88,12.36c0.27,3.96,0.51,7.28,0.72,9.95c0.21,2.68,0.32,4.23,0.32,4.65
			c0,0.75,0.37,1.12,1.12,1.12c0.32,0,0.8-0.13,1.44-0.4c0.64-0.27,0.96-0.51,0.96-0.72l-3.85-52.8c1.28-0.21,3.15-0.53,5.62-0.96
			c2.46-0.43,4.23-0.69,5.3-0.8c0.53,0,0.8-0.32,0.8-0.96c0-0.53-0.43-0.8-1.28-0.8c-2.68,0.43-4.84,0.78-6.5,1.04
			c-1.66,0.27-3.02,0.51-4.09,0.72c-0.11-0.86-0.22-2.78-0.32-5.78c-0.11-2.99-0.24-6.61-0.4-10.83c-0.16-4.23-0.3-8.56-0.4-13
			c-0.11-4.44-0.24-8.56-0.4-12.36c-0.16-3.8-0.3-6.71-0.4-8.75c0-0.64-0.3-1.15-0.88-1.52c-0.59-0.37-1.15-0.56-1.68-0.56
			c-1.18,0-2.09,0.75-2.73,2.25c-0.86,1.93-1.93,4.84-3.21,8.75c-1.28,3.91-2.7,8.43-4.25,13.56c-1.55,5.14-3.18,10.57-4.89,16.29
			c-1.71,5.72-3.43,11.31-5.14,16.77c-1.28,0.22-2.43,0.4-3.45,0.56c-1.02,0.16-1.85,0.24-2.49,0.24c-0.75,0-1.12,0.27-1.12,0.8
			c0,0.75,0.43,1.12,1.28,1.12c0.64,0,1.44-0.08,2.41-0.24c0.96-0.16,1.93-0.29,2.89-0.4c-2.89,8.88-6.42,17.01-10.59,24.39
			c-4.17,7.38-8.64,13.75-13.4,19.1c-4.76,5.35-9.36,9.49-13.8,12.44c-4.44,2.94-8.37,4.41-11.8,4.41c-0.64,0-0.96,0.37-0.96,1.12
			c0,0.53,0.53,0.8,1.6,0.8c3.21,0,7.09-1.42,11.64-4.25c4.55-2.84,9.25-6.96,14.12-12.36c4.87-5.4,9.52-11.98,13.96-19.74
			c4.44-7.76,8.27-16.56,11.48-26.4C306.23,88.41,307.94,88.09,310.51,87.55"/>
		<path class="st0" d="M376.14,90.44c-0.54,3.1-1.07,5.78-1.6,8.02c-0.54,2.25-1.26,4.49-2.17,6.74c-0.91,2.25-2.03,4.15-3.37,5.7
			c-1.34,1.55-2.92,2.33-4.73,2.33c-1.6,0-2.57-0.4-2.89-1.2c-0.32-0.8-0.48-2.01-0.48-3.61c0-2.35,0.29-4.41,0.88-6.18
			c0.59-1.77,0.88-3.61,0.88-5.54c0-0.86-0.11-1.58-0.32-2.17c-0.22-0.59-0.54-0.88-0.96-0.88c-1.07,0-2.54-0.37-4.41-1.12
			c-1.87-0.75-4.25-1.82-7.14-3.21c0-1.5-0.06-3.21-0.16-5.14c-0.11-1.93-0.46-3.61-1.04-5.06c-0.59-1.44-1.69-2.17-3.29-2.17
			c-1.28,0-2.35,0.38-3.21,1.12c-0.85,0.75-1.28,2.03-1.28,3.85c0,1.71,0.83,3.45,2.49,5.22c1.66,1.77,3.18,2.86,4.57,3.29
			c0.64,0.32,1.71,0.91,3.21,1.77c1.5,0.86,2.99,1.66,4.49,2.41c1.5,0.75,2.57,1.12,3.21,1.12c0.11,0,0.16,0.14,0.16,0.4
			c0,0.27,0,0.51,0,0.72c0,1.18-0.3,2.94-0.88,5.3c-0.59,2.35-0.88,4.44-0.88,6.26c0,2.68,0.8,4.49,2.41,5.46
			c1.6,0.96,3.1,1.44,4.49,1.44c2.57,0,4.73-1.04,6.5-3.13c1.77-2.09,3.18-4.6,4.25-7.54c1.07-2.94,1.87-5.75,2.41-8.43
			c0.53-2.67,0.86-4.6,0.96-5.78c0-0.53-0.38-0.8-1.12-0.8C376.67,89.64,376.35,89.91,376.14,90.44 M348.05,88.35
			c-2.57-2.89-3.85-5.24-3.85-7.06c0-1.6,0.43-2.41,1.28-2.41c0.86,0,1.44,0.59,1.77,1.77c0.32,1.18,0.54,2.49,0.64,3.93
			C348,86.03,348.05,87.29,348.05,88.35"/>
		<path class="st0" d="M403.26,135.14c2.67-2.19,5.08-5.03,7.22-8.51c2.14-3.48,4.06-7.19,5.78-11.15c1.71-3.96,3.15-7.76,4.33-11.4
			c1.18-3.64,2.09-6.77,2.73-9.39c0.64-2.62,1.02-4.2,1.12-4.73c0-0.43-0.22-0.64-0.64-0.64c-0.75,0-1.23,0.38-1.44,1.12
			c-0.96,4.07-2.33,8.69-4.09,13.88c-1.77,5.19-3.83,10.22-6.18,15.09c-2.35,4.87-5.03,8.91-8.02,12.12c-3,3.21-6.21,4.81-9.63,4.81
			c-4.39,0-8-2.89-10.83-8.67c-2.84-5.78-4.25-15.57-4.25-29.37c0-1.6,0.43-3.85,1.28-6.74c0.85-2.89,1.87-6.02,3.05-9.39
			c1.18-3.37,2.19-6.5,3.05-9.39c2.14-0.43,4.6-0.86,7.38-1.28c2.78-0.43,5.48-0.86,8.1-1.28c2.62-0.43,4.63-0.75,6.02-0.96
			c0.53-0.11,0.85-0.32,0.96-0.64c0.11-0.32,0.16-0.53,0.16-0.64c0-0.53-0.38-0.8-1.12-0.8c-2.03,0.22-4.92,0.64-8.67,1.28
			c-3.75,0.64-7.76,1.39-12.04,2.25c0.53-1.71,1.18-3.82,1.93-6.34c0.75-2.51,1.39-5.03,1.93-7.54c0.53-2.51,0.8-4.57,0.8-6.18
			c0-2.03-0.43-3.05-1.28-3.05c-1.71,0-3.4,1.12-5.06,3.37c-1.66,2.25-3.18,5.22-4.57,8.91c-1.39,3.69-2.57,7.73-3.53,12.12
			c-0.75,0.22-2.09,0.51-4.01,0.88c-1.93,0.38-3.48,0.67-4.65,0.88c-0.53,0.11-0.86,0.24-0.96,0.4c-0.11,0.16-0.16,0.35-0.16,0.56
			c0,0.64,0.32,0.96,0.96,0.96c1.5-0.21,3.1-0.48,4.81-0.8c1.71-0.32,2.94-0.53,3.69-0.64c0,0.22-0.03,0.48-0.08,0.8
			c-0.06,0.32-0.08,0.59-0.08,0.8c-0.43,2.46-0.8,5.08-1.12,7.86c-0.32,2.78-0.48,5.94-0.48,9.47c0,16.37,1.55,28.01,4.65,34.91
			c3.1,6.9,7.81,10.35,14.12,10.35C397.64,138.43,400.59,137.33,403.26,135.14 M381.59,82.82c-0.96,3.37-1.82,6.13-2.57,8.27
			c0.11-1.5,0.29-3.32,0.56-5.46c0.27-2.14,0.56-4.28,0.88-6.42c0.32-2.14,0.59-3.9,0.8-5.3l3.05-0.64
			C383.47,76.27,382.56,79.45,381.59,82.82 M384.24,61.23c1.12-3.42,2.25-6.26,3.37-8.51c1.12-2.25,1.95-3.37,2.49-3.37
			c0.21,0,0.32,0.38,0.32,1.12c0,1.39-0.32,3.51-0.96,6.34c-0.64,2.84-1.36,5.59-2.17,8.26c-0.8,2.68-1.42,4.6-1.85,5.78l-3.69,0.64
			C382.29,68.08,383.12,64.66,384.24,61.23"/>
	</g>
	<path class="st0" d="M42.07,164.5c-0.52,0-0.98,0.15-1.39,0.44c-0.4,0.3-0.69,0.69-0.87,1.18h-0.2v-0.49l0.08-1.13l-2.57,0.23v0.06
		c0.16,0.01,0.33,0.04,0.51,0.09c0.18,0.05,0.32,0.11,0.42,0.18v5.88L37.98,172h2.24c-0.22-0.15-0.38-0.33-0.47-0.52
		c-0.09-0.19-0.13-0.5-0.13-0.9v-3.12c0.05-0.36,0.14-0.69,0.25-1c0.12-0.31,0.27-0.56,0.46-0.75c0.19-0.19,0.41-0.28,0.65-0.28
		c0.27,0,0.46,0.13,0.58,0.38c0.12,0.26,0.08,0.63-0.12,1.13h0.06l1.38-2.25c-0.14-0.07-0.28-0.12-0.41-0.15
		C42.35,164.51,42.21,164.5,42.07,164.5"/>
	<path class="st0" d="M54.06,164.57h-2.48v0.03c0.35,0.15,0.57,0.32,0.67,0.51c0.1,0.19,0.15,0.49,0.15,0.91v4.27
		c-0.36,0.28-0.73,0.53-1.13,0.77c-0.39,0.24-0.85,0.36-1.37,0.36c-0.23,0-0.47-0.06-0.7-0.18c-0.23-0.12-0.42-0.33-0.57-0.64
		c-0.15-0.31-0.23-0.75-0.23-1.32v-3.66l0.09-1.06h-2.48v0.03c0.35,0.15,0.57,0.32,0.67,0.51c0.1,0.19,0.15,0.49,0.15,0.91v3.29
		c0,0.58,0.07,1.05,0.2,1.42c0.13,0.36,0.31,0.64,0.53,0.84c0.22,0.2,0.45,0.34,0.7,0.41c0.25,0.08,0.49,0.11,0.71,0.11
		c0.48,0,0.93-0.08,1.35-0.25c0.42-0.16,0.8-0.36,1.16-0.59c0.35-0.23,0.66-0.44,0.91-0.64v1.44l2.42-0.23v-0.06
		c-0.12-0.02-0.27-0.05-0.44-0.1c-0.17-0.05-0.31-0.1-0.42-0.18v-5.88L54.06,164.57"/>
	<path class="st0" d="M62.67,164.48c-0.77,0-1.48,0.16-2.14,0.47c-0.66,0.32-1.19,0.77-1.59,1.36c-0.4,0.59-0.6,1.3-0.6,2.11
		c0,0.76,0.18,1.41,0.54,1.96c0.36,0.55,0.84,0.98,1.44,1.27c0.6,0.3,1.27,0.44,2.01,0.44c0.77,0,1.4-0.15,1.9-0.44
		c0.5-0.29,0.86-0.64,1.09-1.05l-0.08-0.06c-0.23,0.31-0.56,0.52-0.99,0.65c-0.42,0.13-0.81,0.19-1.17,0.19
		c-0.62,0-1.17-0.17-1.63-0.5c-0.46-0.33-0.82-0.78-1.08-1.36c-0.26-0.57-0.38-1.21-0.38-1.91c0-0.93,0.21-1.65,0.63-2.15
		c0.42-0.51,0.95-0.76,1.61-0.76c0.47,0,0.87,0.13,1.19,0.38c0.32,0.25,0.53,0.6,0.63,1.04c0.1,0.44,0.03,0.96-0.19,1.55h0.03
		l1.46-2.19c-0.24-0.3-0.58-0.54-1.03-0.74C63.85,164.58,63.3,164.48,62.67,164.48 M65.15,160.64l-3.02,1.82l-3.02-1.82v0.09
		l3.02,2.56l3.02-2.56V160.64"/>
	<path class="st0" d="M74.55,164.48c-0.46,0-0.9,0.08-1.31,0.25c-0.41,0.16-0.79,0.35-1.13,0.57c-0.34,0.22-0.65,0.42-0.91,0.6
		v-0.28l0.08-1.13l-2.57,0.23v0.06c0.16,0.01,0.33,0.04,0.51,0.09c0.18,0.05,0.32,0.11,0.42,0.18v5.88L69.55,172h2.25
		c-0.22-0.15-0.38-0.33-0.47-0.52c-0.09-0.19-0.13-0.5-0.13-0.9v-4.33c0.36-0.23,0.73-0.47,1.13-0.72c0.39-0.25,0.83-0.37,1.31-0.37
		c0.27,0,0.52,0.06,0.75,0.17c0.23,0.11,0.43,0.32,0.58,0.64c0.15,0.31,0.23,0.76,0.23,1.34v3.65L75.11,172h2.25
		c-0.22-0.15-0.38-0.33-0.47-0.52c-0.09-0.19-0.13-0.5-0.13-0.9v-3.31c0-0.58-0.07-1.05-0.2-1.42c-0.13-0.36-0.31-0.64-0.53-0.84
		c-0.22-0.2-0.46-0.34-0.72-0.41C75.05,164.52,74.8,164.48,74.55,164.48"/>
	<path class="st0" d="M83.15,164.5l-2.5,0.23v0.06c0.16,0.01,0.33,0.04,0.51,0.09c0.18,0.05,0.32,0.11,0.42,0.18v5.88L81.51,172
		h2.24c-0.22-0.15-0.38-0.33-0.47-0.52c-0.09-0.19-0.13-0.5-0.13-0.9V164.5 M84.92,160.61l-3.35,2.86l0.06,0.05l3.92-2.08
		L84.92,160.61"/>
	<path class="st0" d="M95.57,161.93l-3.02,1.39v0.09c0.49-0.14,0.84-0.21,1.03-0.21c0.01,0,0.01,0,0.02,0
		c0.19,0.01,0.28,0.17,0.28,0.5v7.24l-0.05,0.92l1.29,0.38h0.32l1.93-0.52v-0.06l-1.93,0.06v-6.78h1.78l0.08-0.37h-1.85v-1.99
		L95.57,161.93"/>
	<path class="st0" d="M108.55,164.57h-2.33v0.06c0.18,0.06,0.36,0.15,0.53,0.25c0.17,0.11,0.27,0.28,0.31,0.51
		c0.04,0.23-0.04,0.57-0.23,1.01l-1.67,3.83l-1.81-3.83c-0.2-0.44-0.29-0.78-0.25-1.03c0.04-0.25,0.16-0.42,0.36-0.54
		c0.2-0.11,0.43-0.18,0.68-0.21v-0.06h-3.34l0.58,1.04l3.09,6.56h0.09l2.54-5.74c0.2-0.44,0.38-0.78,0.53-1.01
		c0.15-0.23,0.29-0.41,0.44-0.52c0.14-0.11,0.3-0.2,0.46-0.26V164.57"/>
	<path class="st0" d="M116.75,171.85c-0.47,0-0.89-0.14-1.26-0.42c-0.37-0.28-0.69-0.65-0.96-1.1c-0.27-0.45-0.47-0.95-0.6-1.49
		c-0.14-0.54-0.21-1.06-0.21-1.59c0-0.79,0.16-1.4,0.47-1.85c0.32-0.44,0.77-0.67,1.36-0.67c0.47,0,0.89,0.14,1.26,0.41
		c0.37,0.28,0.69,0.64,0.96,1.1c0.27,0.45,0.47,0.95,0.6,1.49c0.14,0.54,0.21,1.07,0.21,1.59c0,0.78-0.16,1.39-0.47,1.84
		C117.79,171.63,117.34,171.85,116.75,171.85 M116.15,164.48c-0.79,0-1.48,0.16-2.08,0.48c-0.6,0.32-1.07,0.77-1.41,1.34
		c-0.34,0.57-0.51,1.24-0.51,1.99s0.17,1.42,0.51,1.99c0.34,0.57,0.81,1.02,1.41,1.34c0.6,0.32,1.3,0.48,2.08,0.48
		c0.8,0,1.49-0.16,2.09-0.48c0.6-0.32,1.06-0.77,1.4-1.35c0.34-0.58,0.51-1.24,0.51-1.98c0-0.77-0.17-1.43-0.51-2.01
		c-0.34-0.57-0.8-1.02-1.4-1.33C117.64,164.64,116.95,164.48,116.15,164.48"/>
	<path class="st0" d="M128.54,164.5c-0.52,0-0.98,0.15-1.39,0.44c-0.4,0.3-0.69,0.69-0.87,1.18h-0.2v-0.49l0.08-1.13l-2.57,0.23
		v0.06c0.16,0.01,0.33,0.04,0.51,0.09c0.18,0.05,0.32,0.11,0.42,0.18v5.88l-0.08,1.06h2.24c-0.22-0.15-0.38-0.33-0.47-0.52
		c-0.09-0.19-0.13-0.5-0.13-0.9v-3.12c0.05-0.36,0.14-0.69,0.25-1c0.12-0.31,0.27-0.56,0.46-0.75c0.19-0.19,0.41-0.28,0.65-0.28
		c0.27,0,0.46,0.13,0.58,0.38c0.12,0.26,0.08,0.63-0.12,1.13h0.06l1.38-2.25c-0.14-0.07-0.28-0.12-0.41-0.15
		C128.82,164.51,128.68,164.5,128.54,164.5"/>
	<path class="st0" d="M136.86,171.8c-0.41,0-0.77-0.06-1.08-0.18c-0.31-0.12-0.58-0.29-0.82-0.51v-5.8
		c0.18-0.14,0.39-0.26,0.62-0.34c0.23-0.08,0.49-0.12,0.77-0.12c0.59,0,1.1,0.18,1.52,0.55c0.42,0.37,0.75,0.86,0.99,1.48
		c0.23,0.62,0.35,1.31,0.35,2.08c0,1.01-0.21,1.74-0.63,2.18C138.17,171.58,137.59,171.8,136.86,171.8 M135.03,160.21l-2.93,1.36
		v0.09c0.48-0.14,0.81-0.21,1-0.21c0.19,0,0.28,0.15,0.28,0.46v8.29c0,0.5-0.06,0.84-0.17,1.02c-0.11,0.18-0.3,0.3-0.57,0.36v0.02
		c0.67,0.21,1.3,0.35,1.88,0.42c0.58,0.07,1.07,0.1,1.45,0.1c1.1,0,2.01-0.18,2.73-0.55c0.71-0.37,1.25-0.86,1.6-1.48
		c0.35-0.62,0.53-1.29,0.53-2.01c0-0.7-0.15-1.33-0.46-1.87c-0.31-0.54-0.75-0.96-1.32-1.26c-0.57-0.3-1.25-0.45-2.04-0.45
		c-0.44,0-0.83,0.05-1.18,0.15c-0.35,0.1-0.65,0.22-0.9,0.38v-4.18L135.03,160.21"/>
	<path class="st0" d="M149.37,171.67c-0.56,0-1.07-0.17-1.52-0.52c-0.45-0.35-0.81-0.82-1.07-1.41c-0.26-0.59-0.39-1.26-0.39-1.99
		c0-0.9,0.21-1.62,0.62-2.16c0.41-0.54,1.01-0.81,1.78-0.81c0.4,0,0.75,0.08,1.06,0.23c0.31,0.15,0.57,0.35,0.8,0.6v4.95
		c0,0.12,0,0.23-0.01,0.32c-0.01,0.09-0.01,0.17-0.02,0.25c-0.15,0.17-0.33,0.31-0.52,0.41
		C149.89,171.62,149.65,171.67,149.37,171.67 M149.52,164.48c-1.07,0-1.96,0.19-2.66,0.57c-0.7,0.38-1.23,0.88-1.58,1.5
		c-0.35,0.62-0.52,1.3-0.52,2.04c0,0.74,0.16,1.37,0.47,1.89c0.32,0.53,0.75,0.93,1.31,1.21c0.56,0.28,1.19,0.42,1.91,0.42
		c0.36,0,0.69-0.04,1-0.11c0.31-0.07,0.58-0.17,0.83-0.31l-0.02,0.02l2.54,0.47v-0.05c-0.22-0.15-0.38-0.32-0.47-0.51
		c-0.09-0.18-0.13-0.48-0.13-0.89v-5.7C151.38,164.67,150.49,164.48,149.52,164.48"/>
	<path class="st0" d="M164.42,166.75c-0.29,0-0.53,0.1-0.74,0.3c-0.21,0.2-0.31,0.44-0.31,0.73c0,0.3,0.1,0.55,0.31,0.75
		c0.21,0.2,0.46,0.31,0.74,0.31c0.3,0,0.54-0.1,0.74-0.31c0.2-0.2,0.3-0.45,0.3-0.75c0-0.29-0.1-0.53-0.3-0.73
		C164.97,166.85,164.72,166.75,164.42,166.75"/>
	<path class="st0" d="M180.64,171.65c-0.56,0-1.07-0.17-1.52-0.52c-0.45-0.35-0.81-0.81-1.07-1.4c-0.26-0.59-0.39-1.25-0.39-1.98
		c0-0.9,0.21-1.62,0.62-2.16c0.41-0.54,1.01-0.81,1.78-0.81c0.4,0,0.75,0.08,1.06,0.23c0.31,0.15,0.57,0.35,0.8,0.6v5.48
		c-0.15,0.17-0.33,0.31-0.53,0.41C181.19,171.6,180.94,171.65,180.64,171.65 M180.79,164.48c-1.07,0-1.96,0.19-2.66,0.57
		c-0.7,0.38-1.23,0.88-1.58,1.5c-0.35,0.62-0.52,1.3-0.52,2.04c0,0.74,0.16,1.37,0.47,1.89c0.32,0.53,0.75,0.93,1.31,1.21
		c0.56,0.28,1.19,0.42,1.91,0.42c0.46,0,0.88-0.06,1.25-0.18c0.37-0.12,0.69-0.27,0.94-0.47v1.32c0,0.53-0.16,0.98-0.47,1.35
		c-0.31,0.37-0.71,0.55-1.19,0.55c-0.15,0-0.35-0.02-0.58-0.07c-0.23-0.05-0.48-0.17-0.74-0.36c-0.26-0.19-0.49-0.51-0.7-0.93
		l-1.55,0.46c0.2,0.37,0.45,0.66,0.74,0.87c0.29,0.21,0.58,0.35,0.88,0.44c0.3,0.08,0.56,0.12,0.8,0.12c0.33,0,0.68-0.06,1.07-0.18
		c0.39-0.12,0.77-0.27,1.16-0.46c0.38-0.19,0.74-0.39,1.06-0.61c0.33-0.22,0.59-0.43,0.78-0.64c0.19-0.21,0.29-0.4,0.29-0.56v-7.7
		C182.66,164.67,181.76,164.48,180.79,164.48"/>
	<path class="st0" d="M192.1,164.5c-0.52,0-0.98,0.15-1.39,0.44c-0.4,0.3-0.69,0.69-0.87,1.18h-0.2v-0.49l0.08-1.13l-2.57,0.23v0.06
		c0.16,0.01,0.33,0.04,0.51,0.09c0.18,0.05,0.32,0.11,0.42,0.18v5.88l-0.08,1.06h2.24c-0.22-0.15-0.38-0.33-0.47-0.52
		c-0.09-0.19-0.13-0.5-0.13-0.9v-3.12c0.05-0.36,0.14-0.69,0.25-1c0.12-0.31,0.27-0.56,0.46-0.75c0.19-0.19,0.41-0.28,0.65-0.28
		c0.27,0,0.46,0.13,0.58,0.38c0.12,0.26,0.08,0.63-0.12,1.13h0.06l1.38-2.25c-0.14-0.07-0.28-0.12-0.41-0.15
		C192.38,164.51,192.24,164.5,192.1,164.5"/>
	<path class="st0" d="M201.04,171.67c-0.56,0-1.07-0.17-1.52-0.52c-0.45-0.35-0.81-0.82-1.07-1.41c-0.26-0.59-0.39-1.26-0.39-1.99
		c0-0.9,0.21-1.62,0.62-2.16c0.41-0.54,1.01-0.81,1.78-0.81c0.4,0,0.75,0.08,1.06,0.23c0.31,0.15,0.57,0.35,0.8,0.6v4.95
		c0,0.12,0,0.23-0.01,0.32c-0.01,0.09-0.01,0.17-0.02,0.25c-0.15,0.17-0.33,0.31-0.52,0.41
		C201.57,171.62,201.33,171.67,201.04,171.67 M201.19,164.48c-1.07,0-1.96,0.19-2.66,0.57c-0.7,0.38-1.23,0.88-1.58,1.5
		c-0.35,0.62-0.52,1.3-0.52,2.04c0,0.74,0.16,1.37,0.47,1.89c0.32,0.53,0.75,0.93,1.31,1.21c0.56,0.28,1.19,0.42,1.91,0.42
		c0.36,0,0.69-0.04,1-0.11c0.31-0.07,0.58-0.17,0.83-0.31l-0.02,0.02l2.54,0.47v-0.05c-0.22-0.15-0.38-0.32-0.47-0.51
		c-0.09-0.18-0.13-0.48-0.13-0.89v-5.7C203.06,164.67,202.16,164.48,201.19,164.48"/>
	<path class="st0" d="M213.52,160.22c-0.55,0-1.08,0.09-1.6,0.27c-0.52,0.18-0.98,0.44-1.4,0.78c-0.42,0.34-0.75,0.76-1,1.25
		c-0.25,0.49-0.37,1.05-0.37,1.68v0.37h-1.09l-0.08,0.37c0.36,0,0.64,0.02,0.85,0.07c0.21,0.05,0.31,0.25,0.31,0.6v5.44l-0.25,0.95
		h2.83v-0.06c-0.46-0.08-0.75-0.24-0.86-0.47c-0.11-0.23-0.17-0.55-0.17-0.96v-5.57h2.34l0.08-0.37h-2.42v-1.01
		c0-0.85,0.12-1.54,0.37-2.07c0.25-0.53,0.67-0.8,1.27-0.8c0.33,0,0.66,0.08,0.99,0.23c0.33,0.15,0.64,0.33,0.93,0.54
		c0.29,0.21,0.52,0.41,0.69,0.6l1.29-1.1c-0.64-0.33-1.18-0.53-1.61-0.62C214.21,160.27,213.84,160.22,213.52,160.22"/>
	<path class="st0" d="M218.87,164.5l-2.57,0.23v0.06c0.16,0.01,0.33,0.04,0.51,0.09c0.18,0.05,0.32,0.11,0.42,0.18v5.88l-0.09,1.06
		h2.25c-0.22-0.15-0.38-0.33-0.47-0.52c-0.09-0.19-0.13-0.5-0.13-0.9v-4.95L218.87,164.5 M217.93,161.13
		c-0.28,0-0.51,0.09-0.69,0.28c-0.18,0.18-0.28,0.41-0.28,0.67s0.09,0.49,0.28,0.67c0.18,0.18,0.41,0.28,0.69,0.28
		c0.27,0,0.49-0.09,0.67-0.28c0.18-0.18,0.27-0.41,0.27-0.67s-0.09-0.49-0.27-0.67C218.42,161.22,218.2,161.13,217.93,161.13"/>
	<path class="st0" d="M227.46,164.48c-0.77,0-1.48,0.16-2.14,0.47c-0.66,0.32-1.19,0.77-1.59,1.36c-0.4,0.59-0.6,1.3-0.6,2.11
		c0,0.76,0.18,1.41,0.54,1.96c0.36,0.55,0.84,0.98,1.44,1.27c0.6,0.3,1.27,0.44,2.01,0.44c0.77,0,1.4-0.15,1.9-0.44
		c0.5-0.29,0.86-0.64,1.09-1.05l-0.08-0.06c-0.23,0.31-0.56,0.52-0.99,0.65c-0.42,0.13-0.81,0.19-1.17,0.19
		c-0.62,0-1.17-0.17-1.63-0.5c-0.46-0.33-0.82-0.78-1.08-1.36c-0.26-0.57-0.38-1.21-0.38-1.91c0-0.93,0.21-1.65,0.63-2.15
		c0.42-0.51,0.95-0.76,1.61-0.76c0.47,0,0.87,0.13,1.19,0.38c0.32,0.25,0.53,0.6,0.63,1.04c0.1,0.44,0.03,0.96-0.19,1.55h0.03
		l1.45-2.19c-0.23-0.3-0.58-0.54-1.03-0.74C228.64,164.58,228.09,164.48,227.46,164.48"/>
	<path class="st0" d="M241.53,164.57h-2.62l-0.03,0.09c0.38,0.06,0.56,0.16,0.54,0.31c-0.02,0.14-0.09,0.29-0.24,0.43l-3.11,3.08
		h0.54l2.79,3.26V172h2.54c-0.27-0.13-0.5-0.28-0.71-0.44c-0.21-0.16-0.43-0.36-0.67-0.61c-0.24-0.25-0.54-0.57-0.9-0.97l-2.16-2.51
		l1.04-1.04c0.66-0.66,1.24-1.11,1.74-1.35c0.5-0.23,0.9-0.37,1.22-0.41L241.53,164.57 M236.11,160.21l-2.93,1.36v0.09
		c0.48-0.14,0.81-0.21,1-0.21c0.19,0,0.28,0.15,0.28,0.46v9.14l-0.14,0.95h2.57v-0.06c-0.38-0.08-0.62-0.24-0.72-0.47
		c-0.1-0.23-0.15-0.55-0.15-0.96v-9.69L236.11,160.21"/>
	<path class="st0" d="M252.87,164.57h-2.36v0.06c0.18,0.06,0.36,0.15,0.53,0.25c0.17,0.11,0.28,0.28,0.32,0.51
		c0.05,0.23-0.02,0.57-0.21,1.01l-1.79,4.21l-1.87-4.21c-0.19-0.44-0.27-0.78-0.23-1.03c0.04-0.25,0.16-0.42,0.35-0.54
		c0.19-0.11,0.42-0.18,0.67-0.21v-0.06h-3.28l0.57,1.04l3.05,6.74l-0.17,0.4c-0.26,0.59-0.63,1.01-1.12,1.26
		c-0.49,0.25-1.05,0.38-1.68,0.38l0.58,0.67c0.53,0,0.95-0.11,1.26-0.33c0.31-0.22,0.55-0.5,0.74-0.84c0.19-0.34,0.36-0.7,0.51-1.06
		l2.7-6.4c0.19-0.45,0.37-0.79,0.52-1.03c0.15-0.23,0.3-0.41,0.44-0.51c0.14-0.11,0.3-0.19,0.46-0.25V164.57 M251.47,160.61
		l-3.35,2.86l0.06,0.05l3.92-2.08L251.47,160.61"/>
	<path class="st0" d="M266.82,171.67c-0.56,0-1.07-0.17-1.52-0.52c-0.45-0.35-0.81-0.82-1.07-1.41c-0.26-0.59-0.39-1.26-0.39-1.99
		c0-0.9,0.21-1.62,0.62-2.16c0.41-0.54,1.01-0.81,1.78-0.81c0.4,0,0.75,0.08,1.06,0.23c0.31,0.15,0.57,0.35,0.8,0.6v4.95
		c0,0.12,0,0.23-0.01,0.32c-0.01,0.09-0.01,0.17-0.02,0.25c-0.15,0.17-0.33,0.31-0.52,0.41
		C267.34,171.62,267.1,171.67,266.82,171.67 M269.73,160.21l-2.91,1.36v0.09c0.48-0.14,0.81-0.21,1-0.21c0.18,0,0.28,0.15,0.28,0.46
		v2.66c-0.35-0.06-0.72-0.09-1.12-0.09c-1.07,0-1.96,0.19-2.66,0.57c-0.7,0.38-1.23,0.88-1.58,1.5c-0.35,0.62-0.52,1.3-0.52,2.04
		c0,0.74,0.16,1.37,0.47,1.89c0.32,0.53,0.75,0.93,1.31,1.21c0.56,0.28,1.19,0.42,1.91,0.42c0.36,0,0.69-0.04,1-0.11
		c0.31-0.07,0.58-0.17,0.83-0.31l-0.02,0.02l2.54,0.47v-0.05c-0.22-0.15-0.38-0.32-0.47-0.51c-0.09-0.18-0.13-0.48-0.13-0.89v-9.92
		L269.73,160.21"/>
	<path class="st0" d="M275.72,167.48c0.03-0.86,0.24-1.53,0.64-2.01c0.39-0.48,0.89-0.73,1.48-0.73c0.39,0,0.72,0.09,0.99,0.28
		c0.27,0.18,0.48,0.41,0.64,0.67c0.15,0.27,0.25,0.53,0.29,0.8c0.04,0.27,0.02,0.5-0.05,0.68c-0.08,0.18-0.21,0.28-0.41,0.28
		L275.72,167.48 M278.37,164.48c-0.75,0-1.45,0.16-2.1,0.47c-0.65,0.32-1.18,0.77-1.59,1.36c-0.4,0.59-0.6,1.3-0.6,2.13
		c0,0.76,0.18,1.41,0.53,1.95c0.35,0.55,0.83,0.97,1.42,1.26c0.6,0.3,1.26,0.44,2,0.44c0.8,0,1.49-0.16,2.08-0.47
		c0.59-0.31,0.99-0.68,1.22-1.11l-0.08-0.06c-0.15,0.21-0.38,0.39-0.67,0.53c-0.29,0.14-0.6,0.24-0.92,0.31
		c-0.32,0.07-0.62,0.1-0.88,0.1c-0.61,0-1.15-0.16-1.6-0.47c-0.45-0.32-0.81-0.75-1.06-1.3c-0.26-0.55-0.39-1.18-0.4-1.88h4.27
		c0.39,0,0.68-0.11,0.88-0.33c0.2-0.22,0.3-0.49,0.31-0.82c0.01-0.33-0.09-0.65-0.29-0.97c-0.2-0.32-0.51-0.59-0.93-0.81
		C279.54,164.59,279.01,164.48,278.37,164.48"/>
	<path class="st0" d="M288.09,164.48c-0.55,0-1.05,0.08-1.5,0.25c-0.45,0.17-0.8,0.42-1.06,0.74c-0.26,0.33-0.39,0.72-0.39,1.18
		c0,0.28,0.07,0.57,0.21,0.9c0.14,0.32,0.42,0.62,0.83,0.88c0.41,0.27,1,0.46,1.78,0.58c0.61,0.09,1.09,0.26,1.43,0.49
		c0.34,0.23,0.51,0.6,0.51,1.09c0,0.36-0.1,0.66-0.31,0.9c-0.21,0.25-0.57,0.37-1.08,0.37c-0.4,0-0.8-0.08-1.21-0.25
		c-0.41-0.17-0.75-0.41-1.02-0.74c-0.27-0.32-0.41-0.7-0.41-1.14h-0.03l-0.89,1.47c0.33,0.26,0.76,0.47,1.29,0.64
		c0.53,0.17,1.09,0.26,1.68,0.26c0.95,0,1.7-0.22,2.25-0.67c0.55-0.45,0.83-1.02,0.83-1.7c0-0.32-0.08-0.63-0.24-0.93
		c-0.16-0.3-0.43-0.57-0.83-0.81c-0.39-0.24-0.95-0.42-1.68-0.53c-0.33-0.06-0.64-0.14-0.94-0.25c-0.3-0.1-0.55-0.26-0.74-0.46
		c-0.19-0.2-0.29-0.48-0.29-0.83c0-0.18,0.03-0.37,0.1-0.56c0.07-0.19,0.19-0.35,0.38-0.47c0.18-0.13,0.44-0.19,0.78-0.19
		c0.36,0,0.72,0.08,1.08,0.25c0.36,0.17,0.66,0.41,0.9,0.71c0.24,0.31,0.34,0.68,0.31,1.12h0.03l1-1.44
		c-0.3-0.25-0.69-0.45-1.18-0.62C289.19,164.57,288.66,164.48,288.09,164.48"/>
	<path class="st0" d="M296.94,164.5l-2.57,0.23v0.06c0.16,0.01,0.33,0.04,0.51,0.09c0.18,0.05,0.32,0.11,0.42,0.18v5.88l-0.09,1.06
		h2.25c-0.22-0.15-0.38-0.33-0.47-0.52c-0.09-0.19-0.13-0.5-0.13-0.9v-4.95L296.94,164.5 M296.01,161.13
		c-0.28,0-0.51,0.09-0.69,0.28c-0.18,0.18-0.28,0.41-0.28,0.67s0.09,0.49,0.28,0.67s0.41,0.28,0.69,0.28c0.27,0,0.49-0.09,0.67-0.28
		c0.18-0.18,0.27-0.41,0.27-0.67s-0.09-0.49-0.27-0.67C296.5,161.22,296.27,161.13,296.01,161.13"/>
	<path class="st0" d="M305.83,171.65c-0.56,0-1.07-0.17-1.52-0.52c-0.45-0.35-0.81-0.81-1.07-1.4c-0.26-0.59-0.39-1.25-0.39-1.98
		c0-0.9,0.21-1.62,0.62-2.16c0.41-0.54,1.01-0.81,1.78-0.81c0.4,0,0.75,0.08,1.06,0.23c0.31,0.15,0.57,0.35,0.8,0.6v5.48
		c-0.15,0.17-0.33,0.31-0.53,0.41C306.37,171.6,306.12,171.65,305.83,171.65 M305.98,164.48c-1.07,0-1.96,0.19-2.67,0.57
		c-0.7,0.38-1.23,0.88-1.58,1.5c-0.35,0.62-0.52,1.3-0.52,2.04c0,0.74,0.16,1.37,0.47,1.89c0.32,0.53,0.75,0.93,1.31,1.21
		c0.56,0.28,1.19,0.42,1.91,0.42c0.46,0,0.88-0.06,1.25-0.18c0.37-0.12,0.69-0.27,0.94-0.47v1.32c0,0.53-0.16,0.98-0.47,1.35
		c-0.31,0.37-0.71,0.55-1.19,0.55c-0.15,0-0.35-0.02-0.58-0.07c-0.23-0.05-0.48-0.17-0.74-0.36c-0.26-0.19-0.49-0.51-0.7-0.93
		l-1.55,0.46c0.2,0.37,0.45,0.66,0.74,0.87c0.29,0.21,0.58,0.35,0.88,0.44c0.3,0.08,0.56,0.12,0.8,0.12c0.33,0,0.68-0.06,1.07-0.18
		c0.39-0.12,0.77-0.27,1.16-0.46c0.38-0.19,0.74-0.39,1.06-0.61c0.33-0.22,0.59-0.43,0.78-0.64c0.19-0.21,0.29-0.4,0.29-0.56v-7.7
		C307.84,164.67,306.95,164.48,305.98,164.48"/>
	<path class="st0" d="M318.19,164.48c-0.46,0-0.9,0.08-1.31,0.25c-0.41,0.16-0.79,0.35-1.13,0.57c-0.34,0.22-0.65,0.42-0.91,0.6
		v-0.28l0.08-1.13l-2.57,0.23v0.06c0.16,0.01,0.33,0.04,0.51,0.09c0.18,0.05,0.32,0.11,0.42,0.18v5.88l-0.09,1.06h2.25
		c-0.22-0.15-0.38-0.33-0.47-0.52c-0.09-0.19-0.13-0.5-0.13-0.9v-4.33c0.36-0.23,0.73-0.47,1.13-0.72c0.39-0.25,0.83-0.37,1.31-0.37
		c0.27,0,0.52,0.06,0.75,0.17c0.23,0.11,0.43,0.32,0.58,0.64c0.15,0.31,0.23,0.76,0.23,1.34v3.65l-0.09,1.06h2.25
		c-0.22-0.15-0.38-0.33-0.47-0.52c-0.09-0.19-0.13-0.5-0.13-0.9v-3.31c0-0.58-0.07-1.05-0.2-1.42c-0.13-0.36-0.31-0.64-0.53-0.84
		c-0.22-0.2-0.46-0.34-0.72-0.41C318.68,164.52,318.43,164.48,318.19,164.48"/>
	<path class="st0" d="M332.46,166.75c-0.29,0-0.53,0.1-0.74,0.3c-0.21,0.2-0.31,0.44-0.31,0.73c0,0.3,0.1,0.55,0.31,0.75
		c0.21,0.2,0.46,0.31,0.74,0.31c0.3,0,0.54-0.1,0.74-0.31c0.2-0.2,0.3-0.45,0.3-0.75c0-0.29-0.1-0.53-0.3-0.73
		C333,166.85,332.75,166.75,332.46,166.75"/>
	<path class="st0" d="M348.66,171.85c-0.47,0-0.89-0.14-1.26-0.42c-0.37-0.28-0.69-0.65-0.96-1.1c-0.27-0.45-0.47-0.95-0.6-1.49
		c-0.14-0.54-0.21-1.06-0.21-1.59c0-0.79,0.16-1.4,0.47-1.85c0.32-0.44,0.77-0.67,1.36-0.67c0.47,0,0.89,0.14,1.26,0.41
		c0.37,0.28,0.69,0.64,0.96,1.1c0.27,0.45,0.47,0.95,0.6,1.49c0.14,0.54,0.21,1.07,0.21,1.59c0,0.78-0.16,1.39-0.47,1.84
		C349.71,171.63,349.25,171.85,348.66,171.85 M348.06,164.48c-0.79,0-1.48,0.16-2.08,0.48c-0.6,0.32-1.07,0.77-1.41,1.34
		c-0.34,0.57-0.51,1.24-0.51,1.99s0.17,1.42,0.51,1.99c0.34,0.57,0.81,1.02,1.41,1.34c0.6,0.32,1.3,0.48,2.08,0.48
		c0.8,0,1.49-0.16,2.09-0.48c0.6-0.32,1.06-0.77,1.4-1.35c0.34-0.58,0.51-1.24,0.51-1.98c0-0.77-0.17-1.43-0.51-2.01
		c-0.34-0.57-0.8-1.02-1.4-1.33C349.56,164.64,348.86,164.48,348.06,164.48"/>
	<path class="st0" d="M359.95,171.8c-0.41,0-0.77-0.06-1.08-0.18c-0.31-0.12-0.58-0.29-0.82-0.51v-5.8
		c0.18-0.14,0.39-0.26,0.62-0.34c0.23-0.08,0.49-0.12,0.77-0.12c0.59,0,1.1,0.18,1.52,0.55c0.42,0.37,0.75,0.86,0.99,1.48
		c0.23,0.62,0.35,1.31,0.35,2.08c0,1.01-0.21,1.74-0.63,2.18C361.26,171.58,360.68,171.8,359.95,171.8 M358.13,160.21l-2.93,1.36
		v0.09c0.48-0.14,0.81-0.21,1-0.21c0.19,0,0.28,0.15,0.28,0.46v8.29c0,0.5-0.06,0.84-0.17,1.02c-0.11,0.18-0.3,0.3-0.57,0.36v0.02
		c0.67,0.21,1.3,0.35,1.88,0.42c0.58,0.07,1.07,0.1,1.46,0.1c1.1,0,2.01-0.18,2.73-0.55c0.71-0.37,1.25-0.86,1.6-1.48
		c0.35-0.62,0.53-1.29,0.53-2.01c0-0.7-0.15-1.33-0.46-1.87c-0.31-0.54-0.75-0.96-1.32-1.26c-0.57-0.3-1.25-0.45-2.04-0.45
		c-0.44,0-0.83,0.05-1.18,0.15c-0.35,0.1-0.65,0.22-0.9,0.38v-4.18L358.13,160.21"/>
	<path class="st0" d="M372.34,164.5c-0.52,0-0.98,0.15-1.39,0.44c-0.4,0.3-0.69,0.69-0.87,1.18h-0.2v-0.49l0.08-1.13l-2.57,0.23
		v0.06c0.16,0.01,0.33,0.04,0.51,0.09c0.18,0.05,0.32,0.11,0.42,0.18v5.88l-0.08,1.06h2.24c-0.22-0.15-0.38-0.33-0.47-0.52
		c-0.09-0.19-0.13-0.5-0.13-0.9v-3.12c0.05-0.36,0.14-0.69,0.25-1c0.12-0.31,0.27-0.56,0.46-0.75c0.19-0.19,0.41-0.28,0.65-0.28
		c0.27,0,0.46,0.13,0.58,0.38c0.12,0.26,0.08,0.63-0.12,1.13h0.06l1.38-2.25c-0.14-0.07-0.28-0.12-0.41-0.15
		C372.62,164.51,372.48,164.5,372.34,164.5"/>
	<path class="st0" d="M381.28,171.67c-0.56,0-1.07-0.17-1.52-0.52c-0.45-0.35-0.81-0.82-1.07-1.41c-0.26-0.59-0.39-1.26-0.39-1.99
		c0-0.9,0.21-1.62,0.62-2.16c0.41-0.54,1.01-0.81,1.78-0.81c0.4,0,0.75,0.08,1.06,0.23c0.31,0.15,0.57,0.35,0.8,0.6v4.95
		c0,0.12,0,0.23-0.01,0.32c-0.01,0.09-0.01,0.17-0.02,0.25c-0.15,0.17-0.33,0.31-0.52,0.41
		C381.81,171.62,381.57,171.67,381.28,171.67 M381.44,164.48c-1.07,0-1.96,0.19-2.66,0.57c-0.7,0.38-1.23,0.88-1.58,1.5
		c-0.35,0.62-0.52,1.3-0.52,2.04c0,0.74,0.16,1.37,0.47,1.89c0.32,0.53,0.75,0.93,1.31,1.21c0.56,0.28,1.19,0.42,1.91,0.42
		c0.36,0,0.69-0.04,1-0.11c0.31-0.07,0.58-0.17,0.83-0.31l-0.02,0.02l2.54,0.47v-0.05c-0.22-0.15-0.38-0.32-0.47-0.51
		c-0.09-0.18-0.13-0.48-0.13-0.89v-5.7C383.3,164.67,382.41,164.48,381.44,164.48"/>
	<path class="st0" d="M395.4,164.57h-6.34l-0.35,2.28c0.22-0.53,0.47-0.94,0.75-1.24c0.28-0.3,0.6-0.51,0.98-0.63
		c0.38-0.12,0.84-0.18,1.38-0.18h1.23l-2.82,4.87c-0.41,0.71-0.77,1.26-1.09,1.62c-0.32,0.37-0.59,0.6-0.83,0.7h6.51l0.35-2.28
		c-0.22,0.53-0.47,0.94-0.75,1.24c-0.28,0.3-0.6,0.51-0.98,0.63c-0.38,0.12-0.84,0.18-1.38,0.18h-1.36l3.09-5.3
		c0.39-0.66,0.7-1.13,0.93-1.39c0.23-0.26,0.46-0.41,0.68-0.45V164.57"/>
	<path class="st0" d="M406.63,164.57h-2.36v0.06c0.18,0.06,0.36,0.15,0.53,0.25c0.17,0.11,0.28,0.28,0.32,0.51
		c0.05,0.23-0.02,0.57-0.21,1.01l-1.79,4.21l-1.87-4.21c-0.19-0.44-0.27-0.78-0.23-1.03c0.04-0.25,0.16-0.42,0.35-0.54
		c0.19-0.11,0.42-0.18,0.67-0.21v-0.06h-3.28l0.57,1.04l3.05,6.74l-0.17,0.4c-0.26,0.59-0.63,1.01-1.12,1.26
		c-0.49,0.25-1.05,0.38-1.68,0.38l0.58,0.67c0.53,0,0.95-0.11,1.26-0.33c0.31-0.22,0.55-0.5,0.74-0.84c0.19-0.34,0.36-0.7,0.51-1.06
		l2.7-6.4c0.19-0.45,0.37-0.79,0.52-1.03c0.15-0.23,0.3-0.41,0.44-0.51c0.14-0.11,0.3-0.19,0.46-0.25V164.57"/>
	<path class="st0" d="M38.31,121.57V76.11h16.67c4.85,0,9.08,0.97,12.72,2.92c3.63,1.95,6.45,4.64,8.44,8.09
		c2,3.44,2.99,7.35,2.99,11.72c0,4.37-1,8.28-2.99,11.72c-2,3.44-4.81,6.14-8.44,8.09c-3.63,1.95-7.87,2.92-12.72,2.92H38.31
		 M55.13,73.9H35.89v49.88h19.24c5.18,0,9.77-1.07,13.79-3.21c4.01-2.14,7.13-5.09,9.33-8.87c2.21-3.78,3.31-8.06,3.31-12.86
		c0-4.8-1.1-9.08-3.31-12.86c-2.21-3.78-5.32-6.73-9.33-8.87C64.9,74.97,60.3,73.9,55.13,73.9"/>
	<path class="st0" d="M103.43,122c-3.42,0-6.12-0.76-8.09-2.28c-1.97-1.52-2.96-3.61-2.96-6.27c0-2.47,0.89-4.43,2.67-5.88
		c1.78-1.45,4.6-2.17,8.44-2.17h13.47v7.7C114.59,119.03,110.08,122,103.43,122 M105.64,86.51c-2.8,0-5.48,0.48-8.02,1.43
		c-2.54,0.95-4.71,2.28-6.52,3.99l1.28,1.71c1.61-1.52,3.56-2.73,5.84-3.63c2.28-0.9,4.73-1.35,7.34-1.35
		c3.75,0,6.59,0.95,8.51,2.85c1.92,1.9,2.89,4.68,2.89,8.34v3.63H103.5c-4.7,0-8.12,0.94-10.26,2.81c-2.14,1.88-3.21,4.31-3.21,7.3
		c0,3.14,1.18,5.65,3.53,7.55c2.35,1.9,5.59,2.85,9.73,2.85c3.28,0,6.09-0.68,8.44-2.03c2.35-1.35,4.12-3.22,5.31-5.59v7.41h2.28
		V99.84c0-4.32-1.18-7.62-3.53-9.9C113.44,87.65,110.06,86.51,105.64,86.51"/>
	<path class="st0" d="M152.17,86.51c-3.66,0-6.8,0.83-9.44,2.49c-2.64,1.66-4.55,3.94-5.74,6.84V86.8h-2.28v36.98h2.35v-19.95
		c0-4.61,1.33-8.28,3.99-11.01c2.66-2.73,6.29-4.1,10.9-4.1c4.08,0,7.23,1.15,9.44,3.46c2.21,2.3,3.31,5.64,3.31,10.01v21.59h2.35
		v-21.73c0-4.99-1.33-8.82-3.99-11.51C160.41,87.85,156.77,86.51,152.17,86.51"/>
	<path class="st0" d="M210.31,86.8h-2.49l-15.53,34.27L176.74,86.8h-2.57L191,123.71l-2.35,5.06c-1.19,2.57-2.46,4.37-3.81,5.42
		c-1.35,1.04-2.96,1.57-4.81,1.57c-1.43,0-2.68-0.24-3.78-0.71c-1.09-0.48-2.14-1.26-3.14-2.35l-1.35,1.85
		c1,1.09,2.21,1.91,3.63,2.46c1.42,0.55,2.97,0.82,4.63,0.82c2.37,0,4.44-0.64,6.2-1.92c1.76-1.28,3.32-3.47,4.7-6.56L210.31,86.8"
		/>
	<path class="st0" d="M227.4,86.51c-4.42,0-7.78,0.94-10.08,2.81c-2.3,1.88-3.46,4.22-3.46,7.02c0,2.38,0.62,4.23,1.85,5.56
		c1.23,1.33,2.74,2.29,4.52,2.89c1.78,0.59,4.17,1.18,7.16,1.75c2.57,0.48,4.61,0.95,6.13,1.43c1.52,0.48,2.79,1.21,3.81,2.21
		c1.02,1,1.53,2.35,1.53,4.06c0,2.42-0.95,4.31-2.85,5.66c-1.9,1.35-4.85,2.03-8.84,2.03c-2.71,0-5.26-0.45-7.66-1.35
		c-2.4-0.9-4.36-2.02-5.88-3.35l-1.14,1.85c1.47,1.47,3.53,2.66,6.16,3.56c2.64,0.9,5.45,1.35,8.44,1.35
		c4.56,0,8.05-0.88,10.47-2.64c2.42-1.76,3.63-4.13,3.63-7.13c0-2.28-0.61-4.06-1.82-5.34c-1.21-1.28-2.7-2.22-4.45-2.81
		c-1.76-0.59-4.06-1.15-6.91-1.67c-2.66-0.52-4.76-1.03-6.31-1.53c-1.54-0.5-2.84-1.27-3.88-2.32c-1.05-1.04-1.57-2.47-1.57-4.28
		c0-2.28,0.93-4.12,2.78-5.52c1.85-1.4,4.61-2.1,8.27-2.1c2.09,0,4.12,0.3,6.09,0.89c1.97,0.59,3.69,1.46,5.17,2.6l1.21-1.85
		c-1.42-1.14-3.28-2.05-5.56-2.74C231.96,86.86,229.68,86.51,227.4,86.51"/>
	<path class="st0" d="M260.89,86.51c-4.42,0-7.78,0.94-10.08,2.81c-2.3,1.88-3.46,4.22-3.46,7.02c0,2.38,0.62,4.23,1.85,5.56
		c1.23,1.33,2.74,2.29,4.52,2.89c1.78,0.59,4.17,1.18,7.16,1.75c2.57,0.48,4.61,0.95,6.13,1.43c1.52,0.48,2.79,1.21,3.81,2.21
		c1.02,1,1.53,2.35,1.53,4.06c0,2.42-0.95,4.31-2.85,5.66c-1.9,1.35-4.85,2.03-8.84,2.03c-2.71,0-5.26-0.45-7.66-1.35
		c-2.4-0.9-4.36-2.02-5.88-3.35l-1.14,1.85c1.47,1.47,3.53,2.66,6.16,3.56c2.64,0.9,5.45,1.35,8.44,1.35
		c4.56,0,8.05-0.88,10.47-2.64c2.42-1.76,3.63-4.13,3.63-7.13c0-2.28-0.61-4.06-1.82-5.34c-1.21-1.28-2.7-2.22-4.45-2.81
		c-1.76-0.59-4.06-1.15-6.91-1.67c-2.66-0.52-4.76-1.03-6.31-1.53c-1.54-0.5-2.84-1.27-3.88-2.32c-1.05-1.04-1.57-2.47-1.57-4.28
		c0-2.28,0.93-4.12,2.78-5.52c1.85-1.4,4.61-2.1,8.27-2.1c2.09,0,4.12,0.3,6.09,0.89c1.97,0.59,3.69,1.46,5.17,2.6l1.21-1.85
		c-1.42-1.14-3.28-2.05-5.56-2.74C265.45,86.86,263.17,86.51,260.89,86.51"/>
	<path class="st0" d="M305.85,86.43c0.21-0.86,0.83-2.97,1.85-6.34c1.02-3.37,2.22-7.35,3.61-11.96c1.39-4.6,2.83-9.31,4.33-14.12
		c1.5-4.81,2.89-9.2,4.17-13.16c1.28-3.96,2.3-6.95,3.05-8.99c0,2.03,0.05,4.89,0.16,8.59c0.11,3.69,0.24,7.76,0.4,12.2
		c0.16,4.44,0.32,8.77,0.48,13c0.16,4.23,0.32,7.86,0.48,10.91c0.16,3.05,0.29,5,0.4,5.86L305.85,86.43 M323.83,29.29
		c-1.18,0-2.09,0.75-2.73,2.25c-0.86,1.93-1.93,4.84-3.21,8.75c-1.28,3.91-2.7,8.43-4.25,13.56c-1.55,5.14-3.18,10.57-4.89,16.29
		c-1.71,5.72-3.43,11.31-5.14,16.77c-1.28,0.22-2.43,0.4-3.45,0.56c-1.02,0.16-1.85,0.24-2.49,0.24c-0.75,0-1.12,0.27-1.12,0.8
		c0,0.75,0.43,1.12,1.28,1.12c0.64,0,1.44-0.08,2.41-0.24c0.96-0.16,1.93-0.29,2.89-0.4c-2.89,8.88-6.42,17.01-10.59,24.39
		c-4.17,7.38-8.64,13.75-13.4,19.1c-4.76,5.35-9.36,9.49-13.8,12.44c-4.44,2.94-8.37,4.41-11.8,4.41c-0.64,0-0.96,0.37-0.96,1.12
		c0,0.53,0.53,0.8,1.6,0.8c3.21,0,7.09-1.42,11.64-4.25c4.55-2.84,9.25-6.96,14.12-12.36c4.87-5.4,9.52-11.98,13.96-19.74
		c4.44-7.76,8.27-16.56,11.48-26.4c0.85-0.11,2.57-0.43,5.14-0.96c2.57-0.53,5.24-1.12,8.02-1.77c2.78-0.64,4.92-1.12,6.42-1.44
		c0,0.11,0.11,1.39,0.32,3.85c0.21,2.46,0.45,5.59,0.72,9.39c0.27,3.8,0.56,7.84,0.88,12.12c0.32,4.28,0.61,8.4,0.88,12.36
		c0.27,3.96,0.51,7.28,0.72,9.95c0.21,2.68,0.32,4.23,0.32,4.65c0,0.75,0.37,1.12,1.12,1.12c0.32,0,0.8-0.13,1.44-0.4
		c0.64-0.27,0.96-0.51,0.96-0.72l-3.85-52.8c1.28-0.21,3.15-0.53,5.62-0.96c2.46-0.43,4.23-0.69,5.3-0.8c0.53,0,0.8-0.32,0.8-0.96
		c0-0.53-0.43-0.8-1.28-0.8c-2.68,0.43-4.84,0.78-6.5,1.04c-1.66,0.27-3.02,0.51-4.09,0.72c-0.11-0.86-0.22-2.78-0.32-5.78
		c-0.11-2.99-0.24-6.61-0.4-10.83c-0.16-4.23-0.3-8.56-0.4-13c-0.11-4.44-0.24-8.56-0.4-12.36c-0.16-3.8-0.3-6.71-0.4-8.75
		c0-0.64-0.3-1.15-0.88-1.52C324.92,29.48,324.36,29.29,323.83,29.29"/>
	<path class="st0" d="M348.05,88.35c-2.57-2.89-3.85-5.24-3.85-7.06c0-1.6,0.43-2.41,1.28-2.41c0.86,0,1.44,0.59,1.77,1.77
		c0.32,1.18,0.54,2.49,0.64,3.93C348,86.03,348.05,87.29,348.05,88.35 M345.33,76.96c-1.28,0-2.35,0.38-3.21,1.12
		c-0.85,0.75-1.28,2.03-1.28,3.85c0,1.71,0.83,3.45,2.49,5.22c1.66,1.77,3.18,2.86,4.57,3.29c0.64,0.32,1.71,0.91,3.21,1.77
		c1.5,0.86,2.99,1.66,4.49,2.41c1.5,0.75,2.57,1.12,3.21,1.12c0.11,0,0.16,0.14,0.16,0.4c0,0.27,0,0.51,0,0.72
		c0,1.18-0.3,2.94-0.88,5.3c-0.59,2.35-0.88,4.44-0.88,6.26c0,2.68,0.8,4.49,2.41,5.46c1.6,0.96,3.1,1.44,4.49,1.44
		c2.57,0,4.73-1.04,6.5-3.13c1.77-2.09,3.18-4.6,4.25-7.54c0.35-0.96,0.67-1.91,0.96-2.84c-0.11-2.72-0.16-5.59-0.16-8.64
		c0-0.02,0-0.03,0-0.05c-0.37,1.99-0.75,3.77-1.12,5.34c-0.54,2.25-1.26,4.49-2.17,6.74c-0.91,2.25-2.03,4.15-3.37,5.7
		c-1.34,1.55-2.92,2.33-4.73,2.33c-1.6,0-2.57-0.4-2.89-1.2c-0.32-0.8-0.48-2.01-0.48-3.61c0-2.35,0.29-4.41,0.88-6.18
		c0.59-1.77,0.88-3.61,0.88-5.54c0-0.86-0.11-1.58-0.32-2.17c-0.22-0.59-0.54-0.88-0.96-0.88c-1.07,0-2.54-0.37-4.41-1.12
		c-1.87-0.75-4.25-1.82-7.14-3.21c0-1.5-0.06-3.21-0.16-5.14c-0.11-1.93-0.46-3.61-1.04-5.06
		C348.03,77.68,346.93,76.96,345.33,76.96"/>
	<path class="st0" d="M379.03,91.08c0.11-1.5,0.29-3.32,0.56-5.46c0.27-2.14,0.56-4.28,0.88-6.42c0.32-2.14,0.59-3.9,0.8-5.3
		l3.05-0.64c-0.86,3-1.77,6.18-2.73,9.55C380.63,86.19,379.77,88.94,379.03,91.08 M381.75,71.5c0.53-3.42,1.36-6.85,2.49-10.27
		c1.12-3.42,2.25-6.26,3.37-8.51c1.12-2.25,1.95-3.37,2.49-3.37c0.21,0,0.32,0.38,0.32,1.12c0,1.39-0.32,3.51-0.96,6.34
		c-0.64,2.84-1.36,5.59-2.17,8.26c-0.8,2.68-1.42,4.6-1.85,5.78L381.75,71.5 M390.9,47.59c-1.71,0-3.4,1.12-5.06,3.37
		c-1.66,2.25-3.18,5.22-4.57,8.91c-1.39,3.69-2.57,7.73-3.53,12.12c-0.75,0.22-2.09,0.51-4.01,0.88c-1.93,0.38-3.48,0.67-4.65,0.88
		c-0.53,0.11-0.86,0.24-0.96,0.4c-0.11,0.16-0.16,0.35-0.16,0.56c0,0.64,0.32,0.96,0.96,0.96c1.5-0.21,3.1-0.48,4.81-0.8
		c1.71-0.32,2.94-0.53,3.69-0.64c0,0.22-0.03,0.48-0.08,0.8c-0.06,0.32-0.08,0.59-0.08,0.8c-0.43,2.46-0.8,5.08-1.12,7.86
		c-0.32,2.77-0.48,5.91-0.48,9.42c0,0.02,0,0.03,0,0.05c0,3.04,0.05,5.92,0.16,8.64c0.47,11.89,1.97,20.65,4.49,26.27
		c3.1,6.9,7.81,10.35,14.12,10.35c3.21,0,6.15-1.1,8.83-3.29c2.67-2.19,5.08-5.03,7.22-8.51c2.14-3.48,4.06-7.19,5.78-11.15
		c1.71-3.96,3.15-7.76,4.33-11.4c1.18-3.64,2.09-6.77,2.73-9.39c0.64-2.62,1.02-4.2,1.12-4.73c0-0.43-0.22-0.64-0.64-0.64
		c-0.75,0-1.23,0.38-1.44,1.12c-0.96,4.07-2.33,8.69-4.09,13.88c-1.77,5.19-3.83,10.22-6.18,15.09c-2.35,4.87-5.03,8.91-8.02,12.12
		c-3,3.21-6.21,4.81-9.63,4.81c-4.39,0-8-2.89-10.83-8.67c-2.84-5.78-4.25-15.57-4.25-29.37c0-1.6,0.43-3.85,1.28-6.74
		c0.85-2.89,1.87-6.02,3.05-9.39c1.18-3.37,2.19-6.5,3.05-9.39c2.14-0.43,4.6-0.86,7.38-1.28c2.78-0.43,5.48-0.86,8.1-1.28
		c2.62-0.43,4.63-0.75,6.02-0.96c0.53-0.11,0.85-0.32,0.96-0.64c0.11-0.32,0.16-0.53,0.16-0.64c0-0.53-0.38-0.8-1.12-0.8
		c-2.03,0.22-4.92,0.64-8.67,1.28c-3.75,0.64-7.76,1.39-12.04,2.25c0.53-1.71,1.18-3.82,1.93-6.34c0.75-2.51,1.39-5.03,1.93-7.54
		c0.53-2.51,0.8-4.57,0.8-6.18C392.19,48.61,391.76,47.59,390.9,47.59"/>
</g>
</svg>
