<?xml version="1.0" encoding="UTF-8"?>
<svg id="Vrstva_1" data-name="Vrstva 1" xmlns="http://www.w3.org/2000/svg" viewBox="0 0 1016.17 835.4">
  <defs>
    <style>
      .cls-1 {
        opacity: .9;
      }

      .cls-1, .cls-2 {
        fill: #fad6d6;
        stroke-width: 0px;
      }

      .cls-3 {
        opacity: .3;
      }
    </style>
  </defs>
  <g class="cls-3">
    <path class="cls-2" d="m974.61,78.88c3.32,11.34,3.97,25.3,1.94,41.61-1.93,15.42-7.95,30.57-14.33,46.61-12.83,32.25-26.1,65.6-7.67,105.76,12.61,27.45,16.18,49.38,11.23,69.04-2.55,10.11-7.31,19.45-14.57,28.58-7.08,8.9-16.37,17.39-28.4,25.94-45.06,31.99-72.05,75.7-78.07,126.39-2.31,19.48-9.67,37.82-23.16,57.73-11.93,17.61-27.16,34.23-43.29,51.82l-1.23,1.34c-27.44,29.93-53.4,50.01-79.38,61.39-28.47,12.47-57.87,15.11-89.89,8.07-63.68-14.01-114.07-7.37-149.77,19.74-16.59,12.59-32.82,22.08-48.24,28.21-15.88,6.31-31.48,9.29-46.36,8.86-15.53-.45-30.76-4.64-45.27-12.45-14.47-7.79-28.72-19.47-42.36-34.7-38.32-42.83-80.21-70.98-128.07-86.07-30.82-9.66-55.67-31.13-73.85-63.81-2.04-3.68-4.09-7.31-6.06-10.81-9.45-16.75-18.38-32.56-23.3-48.56-5.5-17.87-5.56-34.36-.18-51.91,2.88-9.36,6.28-18.4,9.56-27.15,9.94-26.44,19.33-51.41,10.84-77.67-12.06-37.33-1.92-60.19,8.8-84.4,4.35-9.82,8.85-19.98,12.08-31.55,3.52-12.55,13.61-34.08,30.46-53.47,13.4-15.42,35.39-34.19,64.08-36.1,12.96-.85,25.78-3.14,39.35-5.56,41.5-7.4,88.54-15.78,157.98,14.54,28.09,12.25,51.36,28.95,69.18,49.63,17.77,20.63,29.56,44.58,35.03,71.18,5.16,25.11,13.43,47.62,23.92,65.09,11.72,19.54,25.79,32.45,41.81,38.39,15.89,5.89,33.64,4.67,52.76-3.62,18.91-8.22,37.28-11.91,57.81-11.62,19.91.28,41.12,4.3,62.91,8.75,28.18,5.76,52.16,1.09,69.35-13.51,19.94-16.94,27.52-45.4,19.5-72.8-.11-.39-.23-.78-.35-1.17-4.89-15.93,1.75-30.35,8.8-45.62,3.35-7.26,6.82-14.78,9.36-22.98,5.68-18.21,19.03-28.26,30.8-37.12,13.34-10.04,23.87-17.98,21.12-35.14-2.9-18.13-1.01-35.69,5.49-50.78,5.78-13.42,15.21-24.79,26.55-32,13.61-8.66,28.46-10.69,40.74-5.58,9.3,3.87,16.47,11.71,20.73,22.67.61,1.55,1.15,3.17,1.64,4.84Zm-32.15,182c-4.15-14.16-5.04-28.66-2.74-43.96,2.72-18.08,9.39-34.87,15.85-51.1,6.25-15.7,12.15-30.54,13.99-45.28,2.24-17.9,1.13-32.74-3.3-44.11-3.75-9.63-9.87-16.45-17.7-19.71-9.87-4.11-21.99-2.36-33.24,4.79-10.09,6.42-18.54,16.67-23.8,28.88-6.1,14.16-7.86,30.73-5.11,47.93,3.28,20.41-9.84,30.29-23.73,40.75-11.45,8.62-23.29,17.54-28.36,33.81-2.65,8.56-6.2,16.25-9.63,23.68-6.82,14.79-12.72,27.58-8.63,41.54.04.15.09.3.14.45,4.48,14.5,4.93,29.6,1.27,43.69-3.72,14.36-11.51,26.89-22.51,36.24-9.13,7.76-20.09,13.08-32.59,15.81-13.36,2.92-28.11,2.77-43.85-.45-46.74-9.55-77.85-14.16-115.7,2.3-21.2,9.19-40.99,10.5-58.83,3.88-17.32-6.42-32.37-20.12-44.74-40.72-10.76-17.93-19.23-40.95-24.5-66.57-10.65-51.76-46.53-93.36-101.06-117.13-67.39-29.43-113.14-21.27-153.51-14.08-13.81,2.46-26.86,4.79-40.29,5.67-25.74,1.71-45.92,19.07-58.32,33.33-16.15,18.58-25.79,39.13-29.14,51.08-3.33,11.96-7.92,22.31-12.35,32.32-10.75,24.27-20.03,45.24-8.56,80.79.21.66.42,1.32.61,1.97,7.95,27.12-1.54,52.34-11.56,79-3.26,8.66-6.63,17.62-9.45,26.82-11.06,36.09,4.02,62.81,23.1,96.62,1.98,3.51,4.03,7.14,6.08,10.84,17.49,31.44,41.21,52.04,70.51,61.23,48.97,15.44,91.74,44.15,130.76,87.75,26.42,29.51,53.53,44.27,82.87,45.13,27.62.81,56.79-10.75,89.18-35.34,19.11-14.51,42.42-23.6,69.27-27.02,25.79-3.28,55.19-1.35,87.36,5.73,58.31,12.83,106.59-7.21,161.4-66.99l1.23-1.34c32.2-35.14,60.01-65.49,64.84-106.22,3.11-26.19,11.59-50.63,25.2-72.64,13.62-22.02,32.35-41.58,55.69-58.15,44.39-31.55,52.88-65.33,29.32-116.59-2.22-4.84-4.05-9.71-5.49-14.62Z"/>
  </g>
  <path class="cls-1" d="m872.7,88.25c3.1,10.57,4.22,23.28,3.34,37.94-.88,14.7-5.47,29.08-10.33,44.3-9.95,31.17-20.23,63.4-1.03,104.03,24.99,52.79,18.8,86.57-21.36,116.57-39.47,29.46-61.76,71.29-64.45,120.95-1,18.55-6.56,35.8-17.51,54.3-9.75,16.47-22.56,31.9-36.12,48.24l-1.08,1.31c-22.98,27.66-45.14,45.87-67.72,55.65-24.59,10.65-50.56,11.86-79.4,3.7-59.12-16.73-105.01-12.42-136.4,12.81-13.32,10.71-26.51,18.8-39.18,24.03-12.94,5.34-25.79,7.89-38.21,7.59-14.54-.35-29.02-4.64-43.02-12.74-14.09-8.15-28.21-20.46-41.97-36.59-37.27-43.73-77.02-73.25-121.53-90.25-27.92-10.63-51.2-32.34-69.18-64.51-2.04-3.66-4.08-7.27-6.06-10.75-19.51-34.45-34.93-61.66-26.6-97.6,2.07-8.93,4.64-17.55,7.13-25.89,7.63-25.6,14.83-49.77,5.51-76.31-12.73-36.26-4.93-57.77,3.32-80.54,3.42-9.43,6.95-19.18,9.26-30.43,2.46-11.87,10.29-32.06,24.27-49.92,11.01-14.07,29.39-30.95,54.4-31.5,11.82-.24,23.36-1.9,35.58-3.65,36.81-5.28,78.54-11.25,142.38,21.08,25.81,13.06,47.55,30.18,64.61,50.89,17.02,20.66,28.87,44.24,35.2,70.1,6.37,25.96,15.63,49.2,26.78,67.21,12.65,20.42,27.28,33.71,43.48,39.5,14.21,5.08,29.52,4.18,45.48-2.65,16.33-7.01,32.43-9.72,50.66-8.53,17.81,1.16,37.11,6.01,56.96,11.3,25.33,6.76,46.76,3.75,61.99-8.71,19.61-16.04,25.82-45.44,15.82-74.92-5.09-15.09-.22-27.93,5.44-42.79,2.65-6.97,5.39-14.18,7.27-22.17,3.99-16.85,15.24-25.81,25.17-33.72,11.54-9.2,21.51-17.15,17.85-35.1-3.51-17.25-2.84-33.75,1.94-47.73,4.22-12.33,11.68-22.64,21.01-29.04,10.19-7,21.88-8.89,32.06-5.19,8.94,3.25,16.22,10.55,21.04,21.13,1.23,2.7,2.29,5.58,3.19,8.64Zm-16.56,169.8c-3.74-12.76-5.01-25.7-3.88-39.18,1.45-17.28,6.54-33.22,11.46-48.64,4.83-15.12,9.39-29.41,10.26-43.92,1.12-18.67-1.03-34.12-6.4-45.92-4.64-10.2-11.59-17.22-20.09-20.3-9.46-3.43-20.35-1.65-29.87,4.88-8.95,6.14-16.13,16.1-20.22,28.05-4.7,13.72-5.35,29.96-1.89,46.96,3.86,18.91-7.03,27.58-18.56,36.77-10.14,8.08-20.62,16.44-24.47,32.68-1.9,8.09-4.66,15.35-7.34,22.37-5.55,14.59-10.34,27.19-5.4,41.8,4.93,14.55,6.04,29.45,3.2,43.09-2.89,13.86-9.69,25.49-19.65,33.64-7.56,6.18-16.67,10.17-27.09,11.86-11.18,1.81-23.66.92-37.08-2.67-43.31-11.54-72.06-17.49-106.04-2.9-16.57,7.09-32.46,8.01-47.24,2.73-16.58-5.92-31.51-19.44-44.35-40.17-11.23-18.13-20.55-41.51-26.95-67.61-12.61-51.47-47.77-94.08-99-120-63.25-32.03-104.58-26.11-141.05-20.88-12.3,1.76-23.92,3.43-35.89,3.67-42.54.93-70.79,52.43-76.46,79.79-2.33,11.36-5.89,21.17-9.33,30.65-8.16,22.51-15.87,43.77-3.31,79.55.48,1.36.92,2.73,1.31,4.08,7.43,25.37.51,48.6-6.81,73.13-2.48,8.31-5.04,16.91-7.11,25.79-8.2,35.39,7.09,62.39,26.45,96.57,1.97,3.49,4.02,7.09,6.06,10.76,17.8,31.85,40.78,53.31,68.31,63.8,44.8,17.1,84.79,46.78,122.24,90.73,27.37,32.08,54.7,48.01,83.56,48.71,24.24.59,49.02-9.57,75.76-31.07,16.18-13,36.39-20.65,60.07-22.72,22.88-2,49.31,1.18,78.53,9.45,54.45,15.41,97.71-2.12,144.62-58.57l1.08-1.31c27.4-33,51.06-61.5,53.22-101.54,1.36-25.09,7.62-48.25,18.6-68.83,10.98-20.58,26.67-38.57,46.65-53.48,39.31-29.37,45.31-62.55,20.7-114.54-2.71-5.74-4.91-11.48-6.61-17.26Z"/>
  <circle class="cls-2" cx="97.07" cy="277.43" r="15.18"/>
  <circle class="cls-2" cx="66.02" cy="294.13" r="7.59"/>
  <circle class="cls-2" cx="92.44" cy="306.04" r="5.96"/>
</svg>