<?xml version="1.0" encoding="UTF-8"?>
<svg id="Vrstva_1" data-name="Vrstva 1" xmlns="http://www.w3.org/2000/svg" viewBox="0 0 852.66 1036.5">
  <defs>
    <style>
      .cls-1 {
        opacity: .9;
      }

      .cls-1, .cls-2 {
        fill: #fad6d6;
        stroke-width: 0px;
      }

      .cls-3 {
        opacity: .3;
      }
    </style>
  </defs>
  <g class="cls-3">
    <path class="cls-2" d="m276.54,1006.97c-10.51-5.4-21.08-14.55-31.49-27.26-9.85-12.02-16.68-26.83-23.91-42.5-14.54-31.52-29.57-64.11-71.37-78.42-28.59-9.77-46.94-22.3-57.77-39.42-5.57-8.81-9.06-18.7-10.68-30.25-1.58-11.26-1.32-23.84.77-38.46,7.86-54.7-5.22-104.38-37.82-143.66-12.53-15.09-20.75-33.06-25.89-56.56-4.54-20.78-6.09-43.27-7.74-67.08l-.13-1.81c-2.79-40.51.55-73.16,10.19-99.83,10.57-29.23,28.92-52.36,56.09-70.71,54.03-36.5,83.93-77.59,88.88-122.15,2.3-20.69,6.61-39,12.79-54.4,6.37-15.86,14.96-29.22,25.52-39.7,11.03-10.95,24.56-19.1,40.21-24.23,15.61-5.12,33.89-7.4,54.33-6.79,57.44,1.73,106.71-9.23,150.62-33.52,28.24-15.68,60.92-18.9,97.13-9.56,4.08,1.06,8.11,2.07,12.01,3.05,18.65,4.69,36.26,9.11,51.25,16.57,16.74,8.32,28.73,19.65,37.75,35.64,4.8,8.53,9.02,17.23,13.09,25.64,12.31,25.42,23.95,49.43,48.83,61.37,35.37,16.98,44.95,40.08,55.11,64.53,4.12,9.92,8.38,20.18,14.55,30.49,6.67,11.2,15.32,33.34,17.77,58.92,1.94,20.33.4,49.21-17.98,71.31-8.31,9.98-15.49,20.84-23.08,32.35-23.23,35.18-49.57,75.05-119.39,104.48-28.23,11.92-56.37,17.28-83.63,15.95-27.2-1.33-52.67-9.29-75.72-23.65-21.76-13.56-43.77-23.07-63.66-27.51-22.24-4.96-41.29-3.66-56.63,3.86-15.21,7.46-26.56,21.16-33.73,40.73-7.07,19.36-17.05,35.22-31.41,49.9-13.92,14.24-31.45,26.84-49.69,39.57-23.59,16.45-36.73,37.05-37.99,59.57-1.46,26.12,13.95,51.23,39.33,64.29.36.19.72.37,1.09.55,14.92,7.43,20.79,22.18,27,37.81,2.96,7.43,6.01,15.12,10.21,22.62,9.28,16.66,7.37,33.26,5.69,47.9-1.91,16.59-3.42,29.69,10.92,39.52,15.14,10.38,26.56,23.86,33.02,38.97,5.75,13.43,7.49,28.1,4.9,41.29-3.1,15.83-11.86,28-24.02,33.37-9.21,4.07-19.83,3.87-30.71-.59-1.54-.63-3.09-1.35-4.64-2.14Zm-109.76-148.7c13.12,6.75,24.25,16.09,33.75,28.3,11.23,14.43,18.8,30.83,26.12,46.7,7.08,15.35,13.76,29.84,23.18,41.34,11.43,13.95,22.95,23.37,34.24,28,9.56,3.92,18.72,4.18,26.48.75,9.78-4.32,16.86-14.31,19.43-27.39,2.3-11.74.69-24.93-4.54-37.14-6.06-14.17-16.86-26.87-31.22-36.72-17.05-11.69-15.18-28-13.19-45.27,1.64-14.24,3.33-28.96-4.96-43.85-4.38-7.82-7.5-15.69-10.53-23.3-6.02-15.13-11.23-28.23-24.15-34.88-.14-.07-.28-.14-.42-.21-13.6-6.74-24.85-16.82-32.54-29.18-7.84-12.59-11.56-26.87-10.75-41.29.67-11.96,4.37-23.57,11-34.51,7.09-11.69,17.36-22.28,30.54-31.47,39.12-27.3,63.89-46.67,78.05-85.44,7.94-21.69,20.63-36.94,37.72-45.32,16.59-8.13,36.89-9.6,60.33-4.37,20.4,4.55,42.93,14.27,65.13,28.11,44.85,27.95,99.72,30.59,154.52,7.46,67.76-28.56,93.37-67.34,115.97-101.56,7.73-11.71,15.04-22.77,23.65-33.11,16.5-19.84,17.82-46.42,16.02-65.23-2.34-24.5-10.59-45.65-16.94-56.31-6.37-10.65-10.71-21.11-14.91-31.22-10.18-24.51-18.99-45.69-52.66-61.86-.62-.3-1.24-.61-1.85-.92-25.13-12.93-36.87-37.17-49.29-62.81-4.03-8.33-8.21-16.94-12.93-25.33-18.54-32.88-48.29-40.36-85.95-49.83-3.91-.98-7.95-2-12.04-3.06-34.84-8.99-66.11-5.99-92.96,8.92-44.93,24.85-95.2,36.08-153.7,34.31-39.59-1.18-68.97,8.3-89.8,28.97-19.61,19.46-31.34,48.57-35.83,88.99-2.65,23.85-12.12,47.01-28.15,68.82-15.4,20.95-37.04,40.93-64.34,59.37-49.48,33.42-68.21,82.22-62.64,163.13l.13,1.81c3.28,47.55,6.12,88.62,32.31,120.18,16.84,20.3,28.71,43.28,35.28,68.31,6.58,25.04,7.85,52.1,3.78,80.42-7.72,53.91,10.92,83.34,64.31,101.58,5.04,1.73,9.83,3.75,14.37,6.09Z"/>
  </g>
  <path class="cls-1" d="m339.97,926.65c-9.79-5.04-19.78-12.98-29.8-23.72-10.05-10.77-17.31-24-24.99-38-15.74-28.69-32.01-58.35-74.69-72.42-55.48-18.26-75.69-46.02-69.77-95.8,5.84-48.91-9.12-93.88-43.26-130.05-12.76-13.5-21.43-29.42-27.29-50.1-5.22-18.41-7.58-38.33-10.08-59.41l-.2-1.69c-4.21-35.72-2.14-64.31,6.33-87.42,9.22-25.16,26.24-44.82,52.03-60.1,52.86-31.32,81.35-67.55,84.69-107.69,1.42-17.04,4.64-32.16,9.58-44.95,5.04-13.06,12.05-24.13,20.83-32.93,10.28-10.3,23.36-17.83,38.87-22.4,15.61-4.59,34.27-6.35,55.44-5.21,57.37,3.12,106.16-5.35,149.14-25.91,26.94-12.91,58.71-14.83,94.42-5.69,4.06,1.04,8.08,2.05,11.96,3.02,38.41,9.59,68.75,17.17,89.06,47.97,5.04,7.66,9.52,15.46,13.85,23.01,13.29,23.17,25.85,45.04,51.52,56.57,35.05,15.76,45.27,36.23,56.08,57.9,4.48,8.97,9.11,18.25,15.67,27.68,6.91,9.96,16.15,29.55,19.46,51.99,2.61,17.67,2.19,42.62-14.65,61.13-7.97,8.73-14.72,18.24-21.87,28.31-21.54,30.32-45.95,64.68-113.38,88.67-27.25,9.71-54.64,13.67-81.4,11.77-26.7-1.89-51.95-9.55-75.06-22.78-23.2-13.27-46.43-22.57-67.16-26.89-23.52-4.9-43.23-3.45-58.58,4.3-13.47,6.8-23.37,18.51-29.42,34.79-6.17,16.67-15.3,30.2-28.72,42.6-13.12,12.11-29.92,22.76-47.44,33.5-22.35,13.7-34.93,31.31-36.4,50.93-1.89,25.26,15.14,50.02,43.4,63.08,14.45,6.71,20.39,19.08,27.27,33.42,3.23,6.73,6.56,13.68,11.06,20.55,9.46,14.5,8.21,28.83,7.1,41.48-1.28,14.71-2.39,27.41,13.14,37.12,14.92,9.33,26.42,21.19,33.26,34.3,6.03,11.55,8.36,24.07,6.57,35.24-1.95,12.21-8.63,21.98-18.32,26.82-8.51,4.25-18.82,4.48-29.81.69-2.8-.97-5.62-2.18-8.46-3.64Zm-111.66-128.98c11.82,6.08,22.08,14.08,31.07,24.18,11.52,12.95,19.57,27.62,27.36,41.81,7.64,13.92,14.85,27.07,24.77,37.69,12.76,13.68,25.44,22.76,37.69,27,10.59,3.66,20.47,3.46,28.56-.57,9.01-4.49,15.22-13.61,17.04-25.01,1.72-10.72-.56-22.79-6.4-33.98-6.71-12.86-18.03-24.52-32.73-33.72-16.36-10.23-15.15-24.1-13.87-38.78,1.13-12.92,2.3-26.27-6.83-40.25-4.55-6.95-7.91-13.96-11.16-20.73-6.75-14.07-12.58-26.23-26.57-32.71-13.95-6.45-25.51-15.91-33.43-27.37-8.05-11.64-11.8-24.58-10.84-37.42.73-9.74,4.11-19.09,10.07-27.8,6.39-9.35,15.64-17.78,27.48-25.04,38.2-23.44,62.32-40.17,75.16-74.85,6.28-16.89,16.56-29.04,30.57-36.12,15.72-7.94,35.8-9.44,59.67-4.47,20.88,4.35,44.24,13.7,67.57,27.05,45.99,26.32,101.1,30.19,155.19,10.92,66.79-23.77,90.98-57.81,112.32-87.84,7.2-10.13,13.99-19.7,22.06-28.54,28.63-31.47,10.77-87.43-5.16-110.39-6.63-9.52-11.29-18.85-15.79-27.88-10.69-21.42-20.79-41.66-55.38-57.21-1.32-.59-2.61-1.21-3.86-1.86-23.51-12.09-35.58-33.12-48.32-55.32-4.32-7.53-8.78-15.31-13.8-22.92-20-30.33-50.11-37.84-88.22-47.36-3.89-.97-7.91-1.97-11.97-3.02-35.35-9.04-66.74-7.17-93.3,5.56-43.26,20.69-92.32,29.22-149.98,26.08-42.11-2.26-72.49,6.57-92.88,27-17.13,17.16-26.84,42.13-29.68,76.31-1.72,20.68-10.1,40.6-24.92,59.19-14.32,17.97-34.82,34.93-60.95,50.41-48.68,28.85-65.79,72.28-57.19,145.17l.2,1.69c5.04,42.59,9.4,79.38,36.93,108.53,17.25,18.27,29.72,38.76,37.07,60.9,7.35,22.14,9.58,45.91,6.62,70.66-5.8,48.72,14.12,75.93,68.75,93.92,6.03,1.99,11.71,4.35,17.06,7.1Z"/>
  <circle class="cls-2" cx="737.23" cy="234.15" r="15.18"/>
  <circle class="cls-2" cx="746.53" cy="200.13" r="7.59"/>
  <circle class="cls-2" cx="719.7" cy="211.08" r="5.96"/>
</svg>