<?xml version="1.0" encoding="UTF-8"?>
<svg id="Vrstva_1" data-name="Vrstva 1" xmlns="http://www.w3.org/2000/svg" viewBox="0 0 952.25 1036.5">
  <defs>
    <style>
      .cls-1, .cls-2 {
        fill: #abc0ad;
        stroke-width: 0px;
      }

      .cls-3 {
        opacity: .3;
      }

      .cls-2 {
        opacity: .9;
      }
    </style>
  </defs>
  <g class="cls-3">
    <path class="cls-1" d="m102.2,923.97c-6.45-9.9-11.09-23.09-13.83-39.29-2.59-15.32-1.18-31.56.31-48.76,3-34.58,6.11-70.34-23.1-103.49-19.98-22.65-29.72-42.63-30.63-62.88-.47-10.41,1.4-20.73,5.72-31.56,4.21-10.56,10.67-21.36,19.73-33.02,33.94-43.61,47.21-93.24,38.38-143.52-3.4-19.32-1.63-39,5.56-61.95,6.36-20.3,16.16-40.6,26.54-62.09l.79-1.64c17.66-36.56,36.74-63.27,58.34-81.65,23.67-20.14,51.07-31.13,83.76-33.6,65.02-4.91,111.36-25.78,137.75-62.02,12.26-16.83,25.07-30.59,38.08-40.9,13.39-10.62,27.47-17.96,41.85-21.83,15.01-4.04,30.8-4.41,46.93-1.11,16.1,3.3,33.11,10.37,50.55,21.03,49.03,29.98,97.25,44.88,147.43,45.56,32.3.38,62.28,13.79,89.09,39.85,3.02,2.94,6.02,5.82,8.92,8.61,13.87,13.32,26.98,25.89,36.29,39.79,10.41,15.53,15.22,31.31,15.12,49.66-.06,9.79-.71,19.43-1.34,28.75-1.91,28.18-3.71,54.8,11.98,77.5,22.3,32.28,19.17,57.09,15.87,83.36-1.34,10.66-2.72,21.68-2.48,33.69.24,13.03-3.22,36.56-13.78,59.97-8.39,18.62-24.05,42.94-50.97,53.02-12.17,4.55-23.78,10.43-36.08,16.65-37.62,19.03-80.25,40.61-155.48,31.56-30.42-3.64-57.52-12.93-80.54-27.61-22.96-14.64-41.14-34.18-54.04-58.08-12.18-22.56-26.58-41.74-41.65-55.45-16.85-15.33-34.04-23.65-51.09-24.72-16.91-1.06-33.56,5.21-49.48,18.65-15.74,13.31-32.27,22.14-52.02,27.77-19.15,5.46-40.62,7.72-62.77,9.73-28.65,2.59-50.27,13.97-62.52,32.9-14.21,21.96-13.28,51.41,2.29,75.33.22.34.45.68.67,1.02,9.27,13.85,7.06,29.57,4.71,46.22-1.12,7.92-2.27,16.11-2.35,24.71-.2,19.07-10.09,32.54-18.81,44.42-9.88,13.46-17.68,24.09-10.1,39.73,8,16.52,11.24,33.89,9.36,50.21-1.67,14.52-7.43,28.11-16.21,38.29-10.54,12.21-24.18,18.44-37.4,17.07-10.02-1.03-19.14-6.47-26.38-15.74-1.03-1.31-2.02-2.7-2.97-4.16Zm-21.61-183.55c8.05,12.36,13.08,26,15.28,41.31,2.6,18.1,1.04,36.1-.47,53.5-1.46,16.84-2.84,32.74-.36,47.39,3.01,17.78,8.34,31.67,15.85,41.29,6.36,8.15,14.19,12.91,22.62,13.78,10.64,1.09,21.74-4.07,30.45-14.16,7.82-9.05,12.96-21.31,14.47-34.51,1.76-15.32-1.32-31.7-8.91-47.37-9.01-18.61.7-31.84,10.99-45.86,8.48-11.55,17.25-23.5,17.43-40.54.08-8.96,1.26-17.34,2.4-25.45,2.27-16.13,4.24-30.08-3.69-42.26-.09-.13-.17-.26-.26-.39-8.47-12.59-13.24-26.93-13.8-41.48-.57-14.82,3.28-29.06,11.13-41.19,6.51-10.06,15.48-18.31,26.66-24.52,11.95-6.64,26.12-10.74,42.12-12.19,47.51-4.31,78.63-8.86,110.14-35.51,17.65-14.9,36.23-21.85,55.22-20.66,18.44,1.16,36.79,9.95,54.56,26.11,15.46,14.07,30.2,33.68,42.63,56.7,25.1,46.5,71.44,76.01,130.5,83.08,73.01,8.78,114.47-12.2,151.06-30.71,12.52-6.34,24.35-12.32,36.95-17.03,24.16-9.05,38.49-31.49,46.25-48.71,10.11-22.44,13.43-44.89,13.2-57.31-.25-12.41,1.16-23.64,2.53-34.51,3.31-26.34,6.16-49.09-15.06-79.83-.39-.57-.78-1.14-1.15-1.71-15.42-23.68-13.6-50.56-11.67-78.98.63-9.23,1.27-18.78,1.33-28.4.2-37.75-21.93-58.99-49.94-85.88-2.91-2.79-5.91-5.68-8.94-8.63-25.8-25.08-54.45-37.97-85.15-38.33-51.34-.69-100.57-15.86-150.49-46.39-33.8-20.65-64.01-26.99-92.35-19.36-26.68,7.18-51.29,26.65-75.23,59.52-14.12,19.4-33.83,34.82-58.56,45.82-23.76,10.57-52.46,17.18-85.31,19.66-59.54,4.5-100,37.59-135.28,110.62l-.79,1.64c-20.72,42.92-38.62,79.99-31.51,120.39,4.56,25.97,3.48,51.82-3.22,76.82-6.7,25-19.01,49.13-36.59,71.72-33.42,42.99-31.83,77.79,5.49,120.1,3.52,4,6.67,8.13,9.46,12.42Z"/>
  </g>
  <path class="cls-2" d="m197.1,885.66c-6.01-9.23-10.74-21.08-14.12-35.37-3.39-14.33-3.13-29.42-2.86-45.39.55-32.72,1.12-66.54-28.96-99.92-39.13-43.37-42.92-77.49-13.1-117.78,29.32-39.58,38.62-86.05,26.9-134.39-4.38-18.05-4.02-36.18,1.13-57.04,4.59-18.58,12.42-37.04,20.7-56.59l.66-1.56c14.05-33.11,30.02-56.92,48.83-72.79,20.48-17.28,45.01-25.91,74.98-26.4,61.43-1,104.14-18.34,126.94-51.54,9.68-14.09,19.97-25.63,30.6-34.29,10.85-8.84,22.43-14.99,34.41-18.27,14.03-3.85,29.13-3.91,44.87-.18,15.84,3.75,32.91,11.48,50.73,22.96,48.28,31.15,94.85,47.98,142.37,51.44,29.8,2.14,58.34,16.23,84.82,41.86,3.01,2.92,6,5.78,8.9,8.55,28.61,27.37,51.2,49,53.57,85.81.58,9.15.61,18.15.63,26.85.06,26.71.12,51.93,16.7,74.67,22.63,31.06,21.35,53.9,20,78.09-.56,10.01-1.14,20.37-.11,31.81,1.06,12.07-.62,33.67-8.87,54.8-6.49,16.64-19.23,38.1-43.03,45.83-11.25,3.64-21.83,8.54-33.03,13.74-33.74,15.65-71.97,33.39-142.42,20.8-28.48-5.08-54.23-15.21-76.53-30.13-22.25-14.88-40.38-34.05-53.9-56.99-13.57-23.03-29.13-42.62-45-56.65-18-15.92-35.83-24.43-53.01-25.31-15.07-.77-29.47,4.49-42.8,15.63-13.62,11.42-28.26,18.65-46.06,22.75-17.39,4.01-37.27,4.93-57.81,5.58-26.2.82-45.86,9.87-56.86,26.19-14.16,21-11.64,50.95,6.42,76.3,9.22,12.99,8.25,26.68,7.11,42.54-.53,7.44-1.08,15.14-.58,23.33,1.03,17.28-7.17,29.11-14.39,39.54-8.41,12.13-15.67,22.61-6.99,38.75,8.33,15.5,12.44,31.5,11.88,46.27-.49,13.02-4.67,25.05-11.76,33.86-7.75,9.63-18.4,14.81-29.21,14.21-9.5-.53-18.57-5.44-26.23-14.18-1.95-2.23-3.8-4.68-5.54-7.36Zm-33.03-167.37c7.25,11.14,12.2,23.17,15,36.41,3.59,16.96,3.31,33.7,3.03,49.88-.27,15.87-.52,30.87,2.82,45.01,4.3,18.2,10.81,32.38,19.35,42.13,7.38,8.43,16.06,13.15,25.08,13.66,10.05.56,19.96-4.27,27.2-13.28,6.8-8.46,10.81-20.07,11.29-32.69.55-14.5-3.5-30.23-11.71-45.51-9.14-16.99-1.21-28.44,7.18-40.56,7.38-10.66,15.02-21.68,14.03-38.34-.51-8.29.05-16.04.58-23.54,1.11-15.57,2.07-29.02-6.86-41.58-8.91-12.52-14.27-26.47-15.47-40.35-1.22-14.1,1.94-27.2,9.14-37.87,5.46-8.09,13.04-14.54,22.53-19.16,10.19-4.96,22.39-7.69,36.28-8.12,44.8-1.42,74.04-3.99,102.38-27.75,13.82-11.56,28.78-17.01,44.45-16.21,17.59.9,35.77,9.54,54.04,25.7,15.97,14.13,31.63,33.83,45.28,56.99,26.9,45.66,72.84,76.34,129.36,86.42,69.79,12.47,107.67-5.1,141.09-20.61,11.27-5.23,21.92-10.17,33.31-13.85,40.47-13.14,52.7-70.59,50.25-98.43-1.04-11.55-.46-21.97.11-32.04,1.33-23.91,2.59-46.49-19.74-77.14-.85-1.17-1.66-2.35-2.43-3.53-14.42-22.16-14.48-46.4-14.54-71.99-.02-8.68-.04-17.65-.62-26.75-2.33-36.25-24.75-57.71-53.14-84.87-2.89-2.77-5.89-5.63-8.9-8.56-26.22-25.38-54.41-39.32-83.79-41.43-47.83-3.48-94.66-20.39-143.18-51.7-35.45-22.84-66.21-30.23-94.04-22.59-23.38,6.41-44.19,23.28-63.61,51.56-11.75,17.11-28.9,30.25-50.98,39.05-21.34,8.51-47.56,13.07-77.92,13.56-56.58.92-92.96,30.16-121.63,97.73l-.66,1.56c-16.74,39.49-31.19,73.6-21.73,112.56,5.92,24.42,6.6,48.4,2.01,71.27-4.59,22.87-14.44,44.62-29.28,64.65-29.19,39.44-25.38,72.94,13.15,115.65,4.25,4.71,8.01,9.58,11.3,14.63Z"/>
  <circle class="cls-1" cx="885.42" cy="481.18" r="15.18"/>
  <circle class="cls-1" cx="910.35" cy="456.25" r="7.59"/>
  <circle class="cls-1" cx="881.62" cy="452.46" r="5.96"/>
</svg>