<?xml version="1.0" encoding="UTF-8"?>
<svg id="Vrstva_1" xmlns="http://www.w3.org/2000/svg" version="1.1" viewBox="0 0 476.13 225.19">
  <!-- Generator: Adobe Illustrator 29.8.2, SVG Export Plug-In . SVG Version: 2.1.1 Build 3)  -->
  <defs>
    <style>
      .st0 {
        fill: #d66666;
      }
    </style>
  </defs>
  <g>
    <path class="st0" d="M40.69,164.94c-.4.3-.69.69-.87,1.18h-.2v-.49l.08-1.13-2.57.23v.06c.16,0,.33.04.51.09.18.05.32.11.42.18v5.88l-.08,1.06h2.24c-.22-.15-.38-.33-.47-.52s-.13-.5-.13-.9v-3.12c.05-.36.14-.69.25-1,.12-.31.27-.56.46-.75s.41-.28.65-.28c.27,0,.46.13.58.38.12.26.08.63-.12,1.13h.06l1.38-2.25c-.14-.07-.28-.12-.41-.15s-.26-.04-.41-.04c-.51,0-.97.15-1.37.44"/>
    <path class="st0" d="M53.97,165.63l.09-1.06h-2.48v.03c.35.15.57.32.67.51.1.19.15.49.15.91v4.27c-.36.28-.73.53-1.13.77-.39.24-.85.36-1.37.36-.23,0-.47-.06-.7-.18s-.42-.33-.57-.64-.23-.75-.23-1.32v-3.66l.09-1.06h-2.48v.03c.35.15.57.32.67.51.1.19.15.49.15.91v3.29c0,.58.07,1.05.2,1.42.13.36.31.64.53.84.22.2.45.34.7.41.25.08.49.11.71.11.48,0,.93-.08,1.35-.25.42-.16.8-.36,1.16-.59.35-.23.66-.44.91-.64v1.44l2.42-.23v-.06c-.12-.02-.27-.05-.44-.1s-.31-.1-.42-.18v-5.84"/>
    <path class="st0" d="M64.23,171.67c.5-.29.86-.64,1.09-1.05l-.08-.06c-.23.31-.56.52-.99.65-.42.13-.81.19-1.17.19-.62,0-1.17-.17-1.63-.5-.46-.33-.82-.78-1.08-1.36-.26-.57-.38-1.21-.38-1.91,0-.93.21-1.65.63-2.15.42-.51.95-.76,1.61-.76.47,0,.87.13,1.19.38s.53.6.63,1.04c.1.44.03.96-.19,1.55h.03l1.46-2.19c-.24-.3-.58-.54-1.03-.74-.45-.19-1-.29-1.63-.29-.77,0-1.48.16-2.14.47-.66.32-1.19.77-1.59,1.36s-.6,1.3-.6,2.11c0,.76.18,1.41.54,1.96s.84.98,1.44,1.27c.6.3,1.27.44,2.01.44.75.03,1.38-.12,1.88-.41M65.15,160.73v-.09l-3.02,1.82-3.02-1.82v.09l3.02,2.56,3.02-2.56"/>
    <path class="st0" d="M77.36,172c-.22-.15-.38-.33-.47-.52-.09-.19-.13-.5-.13-.9v-3.31c0-.58-.07-1.05-.2-1.42-.13-.36-.31-.64-.53-.84s-.46-.34-.72-.41c-.26-.08-.51-.11-.76-.11-.46,0-.9.08-1.31.25-.41.16-.79.35-1.13.57s-.65.42-.91.6v-.28l.08-1.13-2.57.23v.06c.16,0,.33.04.51.09s.32.11.42.18v5.88l-.09,1.06h2.25c-.22-.15-.38-.33-.47-.52-.09-.19-.13-.5-.13-.9v-4.33c.36-.23.73-.47,1.13-.72.39-.25.83-.37,1.31-.37.27,0,.52.06.75.17s.43.32.58.64c.15.31.23.76.23,1.34v3.65l-.09,1.04h2.25"/>
    <path class="st0" d="M83.74,172c-.22-.15-.38-.33-.47-.52-.09-.19-.13-.5-.13-.9v-6.08l-2.5.23v.06c.16,0,.33.04.51.09s.32.11.42.18v5.88l-.06,1.06h2.23M85.55,161.43l-.63-.83-3.35,2.86.06.05,3.92-2.08"/>
    <path class="st0" d="M95.44,172.25l1.93-.52v-.06l-1.93.06v-6.78h1.78l.08-.37h-1.85v-1.99l.12-.66-3.02,1.39v.09c.51-.14.86-.21,1.05-.21s.28.17.28.5v7.24l-.05.92,1.29.38h.32"/>
    <path class="st0" d="M106.23,164.64c.18.06.36.15.53.25.17.11.27.28.31.51s-.04.57-.23,1.01l-1.67,3.83-1.81-3.83c-.2-.44-.29-.78-.25-1.03s.16-.42.36-.54c.2-.11.43-.18.68-.21v-.06h-3.34l.58,1.04,3.09,6.56h.09l2.54-5.74c.2-.44.38-.78.53-1.01s.29-.41.44-.52c.14-.11.3-.2.46-.26v-.06h-2.33v.06"/>
    <path class="st0" d="M115.48,171.43c-.37-.28-.69-.65-.96-1.1-.27-.45-.47-.95-.6-1.49-.14-.54-.21-1.06-.21-1.59,0-.79.16-1.4.47-1.85.32-.44.77-.67,1.36-.67.47,0,.89.14,1.26.41.37.28.69.64.96,1.1.27.45.47.95.6,1.49.14.54.21,1.07.21,1.59,0,.78-.16,1.39-.47,1.84-.32.45-.77.67-1.36.67-.46.02-.88-.12-1.26-.4M114.07,164.97c-.6.32-1.07.77-1.41,1.34-.34.57-.51,1.24-.51,1.99s.17,1.42.51,1.99c.34.57.81,1.02,1.41,1.34.6.32,1.3.48,2.08.48s1.49-.16,2.09-.48c.6-.32,1.06-.77,1.4-1.35.34-.58.51-1.24.51-1.98s-.17-1.43-.51-2.01c-.34-.57-.8-1.02-1.4-1.33-.6-.32-1.29-.47-2.09-.47-.79,0-1.48.15-2.08.48"/>
    <path class="st0" d="M127.15,164.94c-.4.3-.69.69-.87,1.18h-.2v-.49l.08-1.13-2.57.23v.06c.16,0,.33.04.51.09s.32.11.42.18v5.88l-.08,1.06h2.24c-.22-.15-.38-.33-.47-.52-.09-.19-.13-.5-.13-.9v-3.12c.05-.36.14-.69.25-1,.12-.31.27-.56.46-.75s.41-.28.65-.28c.27,0,.46.13.58.38.12.26.08.63-.12,1.13h.06l1.38-2.25c-.14-.07-.28-.12-.41-.15s-.26-.04-.41-.04c-.5,0-.96.15-1.37.44"/>
    <path class="st0" d="M135.78,171.62c-.31-.12-.58-.29-.82-.51v-5.8c.18-.14.39-.26.62-.34s.49-.12.77-.12c.59,0,1.1.18,1.52.55.42.37.75.86.99,1.48.23.62.35,1.31.35,2.08,0,1.01-.21,1.74-.63,2.18-.42.44-1,.67-1.73.67-.4,0-.76-.07-1.07-.19M135.86,164.63c-.35.1-.65.22-.9.38v-4.18l.08-.61-2.93,1.36v.09c.48-.14.81-.21,1-.21s.28.15.28.46v8.29c0,.5-.06.84-.17,1.02-.11.18-.3.3-.57.36v.02c.67.21,1.3.35,1.88.42.58.07,1.07.1,1.45.1,1.1,0,2.01-.18,2.73-.55.71-.37,1.25-.86,1.6-1.48s.53-1.29.53-2.01-.15-1.33-.46-1.87c-.31-.54-.75-.96-1.32-1.26-.57-.3-1.25-.45-2.04-.45-.42-.03-.81.02-1.16.12"/>
    <path class="st0" d="M147,165.59c.41-.54,1.01-.81,1.78-.81.4,0,.75.08,1.06.23s.57.35.8.6v5.27c0,.09,0,.17-.02.25-.15.17-.33.31-.52.41s-.43.15-.72.15c-.56,0-1.07-.17-1.52-.52s-.81-.82-1.07-1.41c-.26-.59-.39-1.26-.39-1.99,0-.92.2-1.64.61-2.18M152.2,165.05c-.82-.38-1.71-.57-2.68-.57-1.07,0-1.96.19-2.66.57s-1.23.88-1.58,1.5-.52,1.3-.52,2.04.16,1.37.47,1.89c.32.53.75.93,1.31,1.21.56.28,1.19.42,1.91.42.36,0,.69-.04,1-.11s.58-.17.83-.31l-.02.02,2.54.47v-.05c-.22-.15-.38-.32-.47-.51-.09-.18-.13-.48-.13-.89v-5.68"/>
    <path class="st0" d="M165.17,168.53c.2-.2.3-.45.3-.75s-.1-.53-.3-.73-.45-.3-.74-.3-.53.1-.74.3-.31.44-.31.73.1.55.31.75c.21.2.46.31.74.31s.54-.11.74-.31"/>
    <path class="st0" d="M179.12,171.13c-.45-.35-.81-.81-1.07-1.4-.26-.59-.39-1.25-.39-1.98,0-.9.21-1.62.62-2.16.41-.54,1.01-.81,1.78-.81.4,0,.75.08,1.06.23s.57.35.8.6v5.48c-.15.17-.33.31-.53.41s-.45.15-.74.15c-.57,0-1.08-.17-1.53-.52M178.13,165.05c-.7.38-1.23.88-1.58,1.5s-.52,1.3-.52,2.04.16,1.37.47,1.89c.32.53.75.93,1.31,1.21.56.28,1.19.42,1.91.42.46,0,.88-.06,1.25-.18s.69-.27.94-.47v1.32c0,.53-.16.98-.47,1.35-.31.37-.71.55-1.19.55-.15,0-.35-.02-.58-.07s-.48-.17-.74-.36c-.26-.19-.49-.51-.7-.93l-1.55.46c.2.37.45.66.74.87.29.21.58.35.88.44.3.08.56.12.8.12.33,0,.68-.06,1.07-.18.39-.12.77-.27,1.16-.46.38-.19.74-.39,1.06-.61.33-.22.59-.43.78-.64s.29-.4.29-.56v-7.7c-.82-.38-1.71-.57-2.68-.57-1.06,0-1.95.18-2.65.56"/>
    <path class="st0" d="M190.71,164.94c-.4.3-.69.69-.87,1.18h-.2v-.49l.08-1.13-2.57.23v.06c.16,0,.33.04.51.09s.32.11.42.18v5.88l-.08,1.06h2.24c-.22-.15-.38-.33-.47-.52s-.13-.5-.13-.9v-3.12c.05-.36.14-.69.25-1,.12-.31.27-.56.46-.75s.41-.28.65-.28c.27,0,.46.13.58.38.12.26.08.63-.12,1.13h.06l1.38-2.25c-.14-.07-.28-.12-.41-.15s-.26-.04-.41-.04c-.5,0-.97.15-1.37.44"/>
    <path class="st0" d="M198.67,165.59c.41-.54,1.01-.81,1.78-.81.4,0,.75.08,1.06.23s.57.35.8.6v5.27c0,.09,0,.17-.02.25-.15.17-.33.31-.52.41s-.43.15-.72.15c-.56,0-1.07-.17-1.52-.52s-.81-.82-1.07-1.41c-.26-.59-.39-1.26-.39-1.99,0-.92.2-1.64.61-2.18M203.87,165.05c-.82-.38-1.71-.57-2.68-.57-1.07,0-1.96.19-2.66.57s-1.23.88-1.58,1.5-.52,1.3-.52,2.04.16,1.37.47,1.89c.32.53.75.93,1.31,1.21.56.28,1.19.42,1.91.42.36,0,.69-.04,1-.11s.58-.17.83-.31l-.02.02,2.54.47v-.05c-.22-.15-.38-.32-.47-.51-.09-.18-.13-.48-.13-.89v-5.68"/>
    <path class="st0" d="M211.92,160.49c-.52.18-.98.44-1.4.78s-.75.76-1,1.25-.37,1.05-.37,1.68v.37h-1.09l-.08.37c.36,0,.64.02.85.07s.31.25.31.6v5.44l-.25.95h2.83v-.06c-.46-.08-.75-.24-.86-.47s-.17-.55-.17-.96v-5.57h2.34l.08-.37h-2.42v-1.01c0-.85.12-1.54.37-2.07.25-.53.67-.8,1.27-.8.33,0,.66.08.99.23s.64.33.93.54c.29.21.52.41.69.6l1.29-1.1c-.64-.33-1.18-.53-1.61-.62-.43-.09-.8-.13-1.12-.13-.53,0-1.06.1-1.58.28"/>
    <path class="st0" d="M219.39,172c-.22-.15-.38-.33-.47-.52s-.13-.5-.13-.9v-4.95l.08-1.13-2.57.23v.06c.16,0,.33.04.51.09s.32.11.42.18v5.88l-.09,1.06h2.25M218.6,162.75c.18-.18.27-.41.27-.67s-.09-.49-.27-.67c-.18-.18-.4-.28-.67-.28s-.51.09-.69.28c-.18.18-.28.41-.28.67s.09.49.28.67c.18.18.41.28.69.28s.49-.09.67-.28"/>
    <path class="st0" d="M229.02,171.67c.5-.29.86-.64,1.09-1.05l-.08-.06c-.23.31-.56.52-.99.65-.42.13-.81.19-1.17.19-.62,0-1.17-.17-1.63-.5s-.82-.78-1.08-1.36c-.26-.57-.38-1.21-.38-1.91,0-.93.21-1.65.63-2.15.42-.51.95-.76,1.61-.76.47,0,.87.13,1.19.38s.53.6.63,1.04c.1.44.03.96-.19,1.55h.03l1.45-2.19c-.23-.3-.58-.54-1.03-.74-.45-.19-1-.29-1.63-.29-.77,0-1.48.16-2.14.47-.66.32-1.19.77-1.59,1.36s-.6,1.3-.6,2.11c0,.76.18,1.41.54,1.96s.84.98,1.44,1.27c.6.3,1.27.44,2.01.44.76.03,1.39-.12,1.89-.41"/>
    <path class="st0" d="M241.24,171.57c-.21-.16-.43-.36-.67-.61s-.54-.57-.9-.97l-2.16-2.51,1.04-1.04c.66-.66,1.24-1.11,1.74-1.35.5-.23.9-.37,1.22-.41l.03-.09h-2.62l-.03.09c.38.06.56.16.54.31-.02.14-.09.29-.24.43l-3.11,3.08h.54l2.79,3.26v.24h2.54c-.27-.13-.51-.28-.71-.43M236.04,160.82l.08-.61-2.93,1.36v.09c.48-.14.81-.21,1-.21s.28.15.28.46v9.14l-.14.95h2.57v-.06c-.38-.08-.62-.24-.72-.47s-.15-.55-.15-.96v-9.69"/>
    <path class="st0" d="M250.51,164.64c.18.06.36.15.53.25.17.11.28.28.32.51.05.23-.02.57-.21,1.01l-1.79,4.21-1.87-4.21c-.19-.44-.27-.78-.23-1.03.04-.25.16-.42.35-.54.19-.11.42-.18.67-.21v-.06h-3.28l.57,1.04,3.05,6.74-.17.4c-.26.59-.63,1.01-1.12,1.26-.49.25-1.05.38-1.68.38l.58.67c.53,0,.95-.11,1.26-.33s.55-.5.74-.84.36-.7.51-1.06l2.7-6.4c.19-.45.37-.79.52-1.03.15-.23.3-.41.44-.51.14-.11.3-.19.46-.25v-.06h-2.36v.06M251.47,160.61l-3.35,2.86.06.05,3.92-2.08-.63-.83"/>
    <path class="st0" d="M264.45,165.59c.41-.54,1.01-.81,1.78-.81.4,0,.75.08,1.06.23s.57.35.8.6v4.95c0,.12,0,.23-.01.32-.01.09-.01.17-.02.25-.15.17-.33.31-.52.41s-.43.15-.72.15c-.56,0-1.07-.17-1.52-.52-.45-.35-.81-.82-1.07-1.41s-.39-1.26-.39-1.99c-.01-.92.2-1.64.61-2.18M269.65,160.82l.08-.61-2.91,1.36v.09c.48-.14.81-.21,1-.21.18,0,.28.15.28.46v2.66c-.35-.06-.72-.09-1.12-.09-1.07,0-1.96.19-2.66.57s-1.23.88-1.58,1.5c-.35.62-.52,1.3-.52,2.04s.16,1.37.47,1.89c.32.53.75.93,1.31,1.21.56.28,1.19.42,1.91.42.36,0,.69-.04,1-.11s.58-.17.83-.31l-.02.02,2.54.47v-.05c-.22-.15-.38-.32-.47-.51-.09-.18-.13-.48-.13-.89v-9.91"/>
    <path class="st0" d="M278.82,165.02c.27.18.48.41.64.67.15.27.25.53.29.8s.02.5-.05.68c-.08.18-.21.28-.41.28l-3.57.03c.03-.86.24-1.53.64-2.01.39-.48.89-.73,1.48-.73.38,0,.71.1.98.28M280.58,171c-.29.14-.6.24-.92.31-.32.07-.62.1-.88.1-.61,0-1.15-.16-1.6-.47-.45-.32-.81-.75-1.06-1.3-.26-.55-.39-1.18-.4-1.88h4.27c.39,0,.68-.11.88-.33s.3-.49.31-.82-.09-.65-.29-.97-.51-.59-.93-.81c-.42-.22-.95-.33-1.59-.33-.75,0-1.45.16-2.1.47-.65.32-1.18.77-1.59,1.36-.4.59-.6,1.3-.6,2.13,0,.76.18,1.41.53,1.95.35.55.83.97,1.42,1.26.6.3,1.26.44,2,.44.8,0,1.49-.16,2.08-.47s.99-.68,1.22-1.11l-.08-.06c-.16.22-.38.39-.67.53"/>
    <path class="st0" d="M290.17,171.44c.55-.45.83-1.02.83-1.7,0-.32-.08-.63-.24-.93-.16-.3-.43-.57-.83-.81-.39-.24-.95-.42-1.68-.53-.33-.06-.64-.14-.94-.25-.3-.1-.55-.26-.74-.46-.19-.2-.29-.48-.29-.83,0-.18.03-.37.1-.56s.19-.35.38-.47c.18-.13.44-.19.78-.19.36,0,.72.08,1.08.25s.66.41.9.71c.24.31.34.68.31,1.12h.03l1-1.44c-.3-.25-.69-.45-1.18-.62s-1.02-.25-1.59-.25-1.05.08-1.5.25-.8.42-1.06.74c-.26.33-.39.72-.39,1.18,0,.28.07.57.21.9.14.32.42.62.83.88.41.27,1,.46,1.78.58.61.09,1.09.26,1.43.49.34.23.51.6.51,1.09,0,.36-.1.66-.31.9-.21.25-.57.37-1.08.37-.4,0-.8-.08-1.21-.25s-.75-.41-1.02-.74c-.27-.32-.41-.7-.41-1.14h-.03l-.89,1.47c.33.26.76.47,1.29.64s1.09.26,1.68.26c.95,0,1.7-.21,2.25-.66"/>
    <path class="st0" d="M297.46,172c-.22-.15-.38-.33-.47-.52s-.13-.5-.13-.9v-4.95l.08-1.13-2.57.23v.06c.16,0,.33.04.51.09.18.05.32.11.42.18v5.88l-.09,1.06h2.25M296.68,162.75c.18-.18.27-.41.27-.67s-.09-.49-.27-.67-.4-.28-.67-.28-.51.09-.69.28c-.18.18-.28.41-.28.67s.09.49.28.67.41.28.69.28c.26,0,.49-.09.67-.28"/>
    <path class="st0" d="M304.3,171.13c-.45-.35-.81-.81-1.07-1.4s-.39-1.25-.39-1.98c0-.9.21-1.62.62-2.16.41-.54,1.01-.81,1.78-.81.4,0,.75.08,1.06.23s.57.35.8.6v5.48c-.15.17-.33.31-.53.41s-.45.15-.74.15c-.57,0-1.07-.17-1.53-.52M303.31,165.05c-.7.38-1.23.88-1.58,1.5-.35.62-.52,1.3-.52,2.04s.16,1.37.47,1.89c.32.53.75.93,1.31,1.21.56.28,1.19.42,1.91.42.46,0,.88-.06,1.25-.18s.69-.27.94-.47v1.32c0,.53-.16.98-.47,1.35-.31.37-.71.55-1.19.55-.15,0-.35-.02-.58-.07-.23-.05-.48-.17-.74-.36-.26-.19-.49-.51-.7-.93l-1.55.46c.2.37.45.66.74.87.29.21.58.35.88.44.3.08.56.12.8.12.33,0,.68-.06,1.07-.18s.77-.27,1.16-.46c.38-.19.74-.39,1.06-.61.33-.22.59-.43.78-.64s.29-.4.29-.56v-7.7c-.82-.38-1.71-.57-2.68-.57-1.05,0-1.94.18-2.65.56"/>
    <path class="st0" d="M320.99,172c-.22-.15-.38-.33-.47-.52s-.13-.5-.13-.9v-3.31c0-.58-.07-1.05-.2-1.42-.13-.36-.31-.64-.53-.84s-.46-.34-.72-.41c-.26-.08-.51-.11-.76-.11-.46,0-.9.08-1.31.25-.41.16-.79.35-1.13.57s-.65.42-.91.6v-.28l.08-1.13-2.57.23v.06c.16,0,.33.04.51.09.18.05.32.11.42.18v5.88l-.09,1.06h2.25c-.22-.15-.38-.33-.47-.52s-.13-.5-.13-.9v-4.33c.36-.23.73-.47,1.13-.72.39-.25.83-.37,1.31-.37.27,0,.52.06.75.17s.43.32.58.64c.15.31.23.76.23,1.34v3.65l-.09,1.06h2.25"/>
    <path class="st0" d="M333.2,168.53c.2-.2.3-.45.3-.75s-.1-.53-.3-.73c-.2-.2-.45-.3-.74-.3s-.53.1-.74.3-.31.44-.31.73.1.55.31.75.46.31.74.31.54-.11.74-.31"/>
    <path class="st0" d="M347.4,171.43c-.37-.28-.69-.65-.96-1.1-.27-.45-.47-.95-.6-1.49-.14-.54-.21-1.06-.21-1.59,0-.79.16-1.4.47-1.85.32-.44.77-.67,1.36-.67.47,0,.89.14,1.26.41.37.28.69.64.96,1.1.27.45.47.95.6,1.49.14.54.21,1.07.21,1.59,0,.78-.16,1.39-.47,1.84-.32.45-.77.67-1.36.67-.47.02-.89-.12-1.26-.4M345.98,164.97c-.6.32-1.07.77-1.41,1.34-.34.57-.51,1.24-.51,1.99s.17,1.42.51,1.99.81,1.02,1.41,1.34c.6.32,1.3.48,2.08.48s1.49-.16,2.09-.48c.6-.32,1.06-.77,1.4-1.35s.51-1.24.51-1.98-.17-1.43-.51-2.01c-.34-.57-.8-1.02-1.4-1.33-.6-.32-1.29-.47-2.09-.47-.78,0-1.48.15-2.08.48"/>
    <path class="st0" d="M358.87,171.62c-.31-.12-.58-.29-.82-.51v-5.8c.18-.14.39-.26.62-.34.23-.08.49-.12.77-.12.59,0,1.1.18,1.52.55.42.37.75.86.99,1.48.23.62.35,1.31.35,2.08,0,1.01-.21,1.74-.63,2.18-.42.44-1,.67-1.73.67-.4,0-.76-.07-1.07-.19M358.95,164.63c-.35.1-.65.22-.9.38v-4.18l.08-.61-2.93,1.36v.09c.48-.14.81-.21,1-.21s.28.15.28.46v8.29c0,.5-.06.84-.17,1.02-.11.18-.3.3-.57.36v.02c.67.21,1.3.35,1.88.42.58.07,1.07.1,1.46.1,1.1,0,2.01-.18,2.73-.55.71-.37,1.25-.86,1.6-1.48s.53-1.29.53-2.01-.15-1.33-.46-1.87-.75-.96-1.32-1.26c-.57-.3-1.25-.45-2.04-.45-.43-.03-.82.02-1.17.12"/>
    <path class="st0" d="M370.95,164.94c-.4.3-.69.69-.87,1.18h-.2v-.49l.08-1.13-2.57.23v.06c.16,0,.33.04.51.09.18.05.32.11.42.18v5.88l-.08,1.06h2.24c-.22-.15-.38-.33-.47-.52s-.13-.5-.13-.9v-3.12c.05-.36.14-.69.25-1,.12-.31.27-.56.46-.75s.41-.28.65-.28c.27,0,.46.13.58.38.12.26.08.63-.12,1.13h.06l1.38-2.25c-.14-.07-.28-.12-.41-.15s-.26-.04-.41-.04c-.5,0-.96.15-1.37.44"/>
    <path class="st0" d="M378.92,165.59c.41-.54,1.01-.81,1.78-.81.4,0,.75.08,1.06.23s.57.35.8.6v4.95c0,.12,0,.23-.01.32-.01.09-.01.17-.02.25-.15.17-.33.31-.52.41s-.43.15-.72.15c-.56,0-1.07-.17-1.52-.52-.45-.35-.81-.82-1.07-1.41s-.39-1.26-.39-1.99c-.01-.92.19-1.64.61-2.18M384.12,165.05c-.82-.38-1.71-.57-2.68-.57-1.07,0-1.96.19-2.66.57s-1.23.88-1.58,1.5c-.35.62-.52,1.3-.52,2.04s.16,1.37.47,1.89c.32.53.75.93,1.31,1.21.56.28,1.19.42,1.91.42.36,0,.69-.04,1-.11s.58-.17.83-.31l-.02.02,2.54.47v-.05c-.22-.15-.38-.32-.47-.51-.09-.18-.13-.48-.13-.89v-5.68"/>
    <path class="st0" d="M395.4,164.57h-6.34l-.35,2.28c.22-.53.47-.94.75-1.24s.6-.51.98-.63c.38-.12.84-.18,1.38-.18h1.23l-2.82,4.87c-.41.71-.77,1.26-1.09,1.62-.32.37-.59.6-.83.7h6.51l.35-2.28c-.22.53-.47.94-.75,1.24s-.6.51-.98.63c-.38.12-.84.18-1.38.18h-1.36l3.09-5.3c.39-.66.7-1.13.93-1.39.23-.26.46-.41.68-.45v-.05"/>
    <path class="st0" d="M404.27,164.64c.18.06.36.15.53.25.17.11.28.28.32.51.05.23-.02.57-.21,1.01l-1.79,4.21-1.87-4.21c-.19-.44-.27-.78-.23-1.03.04-.25.16-.42.35-.54.19-.11.42-.18.67-.21v-.06h-3.28l.57,1.04,3.05,6.74-.17.4c-.26.59-.63,1.01-1.12,1.26s-1.05.38-1.68.38l.58.67c.53,0,.95-.11,1.26-.33s.55-.5.74-.84.36-.7.51-1.06l2.7-6.4c.19-.45.37-.79.52-1.03.15-.23.3-.41.44-.51.14-.11.3-.19.46-.25v-.06h-2.36v.06"/>
    <path class="st0" d="M38.31,121.57v-45.46h16.67c4.85,0,9.08.97,12.72,2.92,3.63,1.95,6.45,4.64,8.44,8.09,2,3.44,2.99,7.35,2.99,11.72s-1,8.28-2.99,11.72c-2,3.44-4.81,6.14-8.44,8.09-3.63,1.95-7.87,2.92-12.72,2.92h-16.67M35.89,123.78h19.24c5.18,0,9.77-1.07,13.79-3.21,4.01-2.14,7.13-5.09,9.33-8.87,2.21-3.78,3.31-8.06,3.31-12.86s-1.1-9.08-3.31-12.86-5.32-6.73-9.33-8.87-8.61-3.21-13.79-3.21h-19.24v49.88"/>
    <path class="st0" d="M103.43,122c-3.42,0-6.12-.76-8.09-2.28s-2.96-3.61-2.96-6.27c0-2.47.89-4.43,2.67-5.88s4.6-2.17,8.44-2.17h13.47v7.7c-2.37,5.93-6.88,8.9-13.53,8.9M105.64,86.51c-2.8,0-5.48.48-8.02,1.43s-4.71,2.28-6.52,3.99l1.28,1.71c1.61-1.52,3.56-2.73,5.84-3.63,2.28-.9,4.73-1.35,7.34-1.35,3.75,0,6.59.95,8.51,2.85,1.92,1.9,2.89,4.68,2.89,8.34v3.63h-13.46c-4.7,0-8.12.94-10.26,2.81-2.14,1.88-3.21,4.31-3.21,7.3,0,3.14,1.18,5.65,3.53,7.55s5.59,2.85,9.73,2.85c3.28,0,6.09-.68,8.44-2.03,2.35-1.35,4.12-3.22,5.31-5.59v7.41h2.28v-23.94c0-4.32-1.18-7.62-3.53-9.9-2.35-2.29-5.73-3.43-10.15-3.43"/>
    <path class="st0" d="M152.17,86.51c-3.66,0-6.8.83-9.44,2.49-2.64,1.66-4.55,3.94-5.74,6.84v-9.04h-2.28v36.98h2.35v-19.95c0-4.61,1.33-8.28,3.99-11.01s6.29-4.1,10.9-4.1c4.08,0,7.23,1.15,9.44,3.46,2.21,2.3,3.31,5.64,3.31,10.01v21.59h2.35v-21.73c0-4.99-1.33-8.82-3.99-11.51-2.65-2.69-6.29-4.03-10.89-4.03"/>
    <path class="st0" d="M207.81,86.8l-15.53,34.27-15.54-34.27h-2.57l16.83,36.91-2.35,5.06c-1.19,2.57-2.46,4.37-3.81,5.42-1.35,1.04-2.96,1.57-4.81,1.57-1.43,0-2.68-.24-3.78-.71-1.09-.48-2.14-1.26-3.14-2.35l-1.35,1.85c1,1.09,2.21,1.91,3.63,2.46s2.97.82,4.63.82c2.37,0,4.44-.64,6.2-1.92s3.32-3.47,4.7-6.56l19.38-42.54h-2.49"/>
    <path class="st0" d="M227.12,123.99c4.56,0,8.05-.88,10.47-2.64s3.63-4.13,3.63-7.13c0-2.28-.61-4.06-1.82-5.34s-2.7-2.22-4.45-2.81c-1.76-.59-4.06-1.15-6.91-1.67-2.66-.52-4.76-1.03-6.31-1.53-1.54-.5-2.84-1.27-3.88-2.32-1.05-1.04-1.57-2.47-1.57-4.28,0-2.28.93-4.12,2.78-5.52,1.85-1.4,4.61-2.1,8.27-2.1,2.09,0,4.12.3,6.09.89s3.69,1.46,5.17,2.6l1.21-1.85c-1.42-1.14-3.28-2.05-5.56-2.74-2.28-.69-4.56-1.03-6.84-1.03-4.42,0-7.78.94-10.08,2.81-2.3,1.88-3.46,4.22-3.46,7.02,0,2.38.62,4.23,1.85,5.56,1.23,1.33,2.74,2.29,4.52,2.89,1.78.59,4.17,1.18,7.16,1.75,2.57.48,4.61.95,6.13,1.43s2.79,1.21,3.81,2.21,1.53,2.35,1.53,4.06c0,2.42-.95,4.31-2.85,5.66-1.9,1.35-4.85,2.03-8.84,2.03-2.71,0-5.26-.45-7.66-1.35-2.4-.9-4.36-2.02-5.88-3.35l-1.14,1.85c1.47,1.47,3.53,2.66,6.16,3.56,2.66.89,5.48,1.34,8.47,1.34"/>
    <path class="st0" d="M260.61,123.99c4.56,0,8.05-.88,10.47-2.64s3.63-4.13,3.63-7.13c0-2.28-.61-4.06-1.82-5.34-1.21-1.28-2.7-2.22-4.45-2.81-1.76-.59-4.06-1.15-6.91-1.67-2.66-.52-4.76-1.03-6.31-1.53-1.54-.5-2.84-1.27-3.88-2.32-1.05-1.04-1.57-2.47-1.57-4.28,0-2.28.93-4.12,2.78-5.52,1.85-1.4,4.61-2.1,8.27-2.1,2.09,0,4.12.3,6.09.89s3.69,1.46,5.17,2.6l1.21-1.85c-1.42-1.14-3.28-2.05-5.56-2.74-2.28-.69-4.56-1.03-6.84-1.03-4.42,0-7.78.94-10.08,2.81-2.3,1.88-3.46,4.22-3.46,7.02,0,2.38.62,4.23,1.85,5.56,1.23,1.33,2.74,2.29,4.52,2.89,1.78.59,4.17,1.18,7.16,1.75,2.57.48,4.61.95,6.13,1.43,1.52.48,2.79,1.21,3.81,2.21s1.53,2.35,1.53,4.06c0,2.42-.95,4.31-2.85,5.66s-4.85,2.03-8.84,2.03c-2.71,0-5.26-.45-7.66-1.35-2.4-.9-4.36-2.02-5.88-3.35l-1.14,1.85c1.47,1.47,3.53,2.66,6.16,3.56,2.66.89,5.47,1.34,8.47,1.34"/>
  </g>
  <path class="st0" d="M42.07,164.5c-.52,0-.98.15-1.39.44-.4.3-.69.69-.87,1.18h-.2v-.49l.08-1.13-2.57.23v.06c.16,0,.33.04.51.09.18.05.32.11.42.18v5.88l-.07,1.06h2.24c-.22-.15-.38-.33-.47-.52s-.13-.5-.13-.9v-3.12c.05-.36.14-.69.25-1,.12-.31.27-.56.46-.75s.41-.28.65-.28c.27,0,.46.13.58.38.12.26.08.63-.12,1.13h.06l1.38-2.25c-.14-.07-.28-.12-.41-.15-.12-.03-.26-.04-.4-.04"/>
  <path class="st0" d="M54.06,164.57h-2.48v.03c.35.15.57.32.67.51.1.19.15.49.15.91v4.27c-.36.28-.73.53-1.13.77-.39.24-.85.36-1.37.36-.23,0-.47-.06-.7-.18s-.42-.33-.57-.64-.23-.75-.23-1.32v-3.66l.09-1.06h-2.48v.03c.35.15.57.32.67.51.1.19.15.49.15.91v3.29c0,.58.07,1.05.2,1.42.13.36.31.64.53.84.22.2.45.34.7.41.25.08.49.11.71.11.48,0,.93-.08,1.35-.25.42-.16.8-.36,1.16-.59.35-.23.66-.44.91-.64v1.44l2.42-.23v-.06c-.12-.02-.27-.05-.44-.1s-.31-.1-.42-.18v-5.88l.11-1.02"/>
  <path class="st0" d="M62.67,164.48c-.77,0-1.48.16-2.14.47-.66.32-1.19.77-1.59,1.36s-.6,1.3-.6,2.11c0,.76.18,1.41.54,1.96s.84.98,1.44,1.27c.6.3,1.27.44,2.01.44s1.4-.15,1.9-.44c.5-.29.86-.64,1.09-1.05l-.08-.06c-.23.31-.56.52-.99.65-.42.13-.81.19-1.17.19-.62,0-1.17-.17-1.63-.5-.46-.33-.82-.78-1.08-1.36-.26-.57-.38-1.21-.38-1.91,0-.93.21-1.65.63-2.15.42-.51.95-.76,1.61-.76.47,0,.87.13,1.19.38s.53.6.63,1.04c.1.44.03.96-.19,1.55h.03l1.46-2.19c-.24-.3-.58-.54-1.03-.74-.47-.16-1.02-.26-1.65-.26M65.15,160.64l-3.02,1.82-3.02-1.82v.09l3.02,2.56,3.02-2.56v-.09"/>
  <path class="st0" d="M74.55,164.48c-.46,0-.9.08-1.31.25-.41.16-.79.35-1.13.57s-.65.42-.91.6v-.28l.08-1.13-2.57.23v.06c.16,0,.33.04.51.09s.32.11.42.18v5.88l-.09,1.07h2.25c-.22-.15-.38-.33-.47-.52-.09-.19-.13-.5-.13-.9v-4.33c.36-.23.73-.47,1.13-.72.39-.25.83-.37,1.31-.37.27,0,.52.06.75.17s.43.32.58.64c.15.31.23.76.23,1.34v3.65l-.09,1.04h2.25c-.22-.15-.38-.33-.47-.52-.09-.19-.13-.5-.13-.9v-3.31c0-.58-.07-1.05-.2-1.42-.13-.36-.31-.64-.53-.84s-.46-.34-.72-.41c-.26-.08-.51-.12-.76-.12"/>
  <path class="st0" d="M83.15,164.5l-2.5.23v.06c.16,0,.33.04.51.09s.32.11.42.18v5.88l-.07,1.06h2.24c-.22-.15-.38-.33-.47-.52-.09-.19-.13-.5-.13-.9v-6.08M84.92,160.61l-3.35,2.86.06.05,3.92-2.08-.63-.83"/>
  <path class="st0" d="M95.57,161.93l-3.02,1.39v.09c.49-.14.84-.21,1.03-.21h.02c.19,0,.28.17.28.5v7.24l-.05.92,1.29.38h.32l1.93-.52v-.06l-1.93.06v-6.78h1.78l.08-.37h-1.85v-1.99l.12-.65"/>
  <path class="st0" d="M108.55,164.57h-2.33v.06c.18.06.36.15.53.25.17.11.27.28.31.51s-.04.57-.23,1.01l-1.67,3.83-1.81-3.83c-.2-.44-.29-.78-.25-1.03s.16-.42.36-.54c.2-.11.43-.18.68-.21v-.06h-3.34l.58,1.04,3.09,6.56h.09l2.54-5.74c.2-.44.38-.78.53-1.01s.29-.41.44-.52c.14-.11.3-.2.46-.26v-.06"/>
  <path class="st0" d="M116.75,171.85c-.47,0-.89-.14-1.26-.42s-.69-.65-.96-1.1c-.27-.45-.47-.95-.6-1.49-.14-.54-.21-1.06-.21-1.59,0-.79.16-1.4.47-1.85.32-.44.77-.67,1.36-.67.47,0,.89.14,1.26.41.37.28.69.64.96,1.1.27.45.47.95.6,1.49.14.54.21,1.07.21,1.59,0,.78-.16,1.39-.47,1.84-.32.47-.77.69-1.36.69M116.15,164.48c-.79,0-1.48.16-2.08.48-.6.32-1.07.77-1.41,1.34-.34.57-.51,1.24-.51,1.99s.17,1.42.51,1.99c.34.57.81,1.02,1.41,1.34.6.32,1.3.48,2.08.48s1.49-.16,2.09-.48c.6-.32,1.06-.77,1.4-1.35.34-.58.51-1.24.51-1.98s-.17-1.43-.51-2.01c-.34-.57-.8-1.02-1.4-1.33s-1.29-.47-2.09-.47"/>
  <path class="st0" d="M128.54,164.5c-.52,0-.98.15-1.39.44-.4.3-.69.69-.87,1.18h-.2v-.49l.08-1.13-2.57.23v.06c.16,0,.33.04.51.09s.32.11.42.18v5.88l-.08,1.06h2.24c-.22-.15-.38-.33-.47-.52-.09-.19-.13-.5-.13-.9v-3.12c.05-.36.14-.69.25-1,.12-.31.27-.56.46-.75s.41-.28.65-.28c.27,0,.46.13.58.38.12.26.08.63-.12,1.13h.06l1.38-2.25c-.14-.07-.28-.12-.41-.15-.11-.03-.25-.04-.39-.04"/>
  <path class="st0" d="M136.86,171.8c-.41,0-.77-.06-1.08-.18s-.58-.29-.82-.51v-5.8c.18-.14.39-.26.62-.34s.49-.12.77-.12c.59,0,1.1.18,1.52.55.42.37.75.86.99,1.48.23.62.35,1.31.35,2.08,0,1.01-.21,1.74-.63,2.18-.41.44-.99.66-1.72.66M135.03,160.21l-2.93,1.36v.09c.48-.14.81-.21,1-.21s.28.15.28.46v8.29c0,.5-.06.84-.17,1.02-.11.18-.3.3-.57.36v.02c.67.21,1.3.35,1.88.42.58.07,1.07.1,1.45.1,1.1,0,2.01-.18,2.73-.55.71-.37,1.25-.86,1.6-1.48s.53-1.29.53-2.01-.15-1.33-.46-1.87c-.31-.54-.75-.96-1.32-1.26-.57-.3-1.25-.45-2.04-.45-.44,0-.83.05-1.18.15-.35.1-.65.22-.9.38v-4.18l.1-.64"/>
  <path class="st0" d="M149.37,171.67c-.56,0-1.07-.17-1.52-.52s-.81-.82-1.07-1.41c-.26-.59-.39-1.26-.39-1.99,0-.9.21-1.62.62-2.16.41-.54,1.01-.81,1.78-.81.4,0,.75.08,1.06.23s.57.35.8.6v5.27c0,.09,0,.17-.02.25-.15.17-.33.31-.52.41-.21.08-.45.13-.73.13M149.52,164.48c-1.07,0-1.96.19-2.66.57s-1.23.88-1.58,1.5-.52,1.3-.52,2.04.16,1.37.47,1.89c.32.53.75.93,1.31,1.21.56.28,1.19.42,1.91.42.36,0,.69-.04,1-.11s.58-.17.83-.31l-.02.02,2.54.47v-.05c-.22-.15-.38-.32-.47-.51-.09-.18-.13-.48-.13-.89v-5.7c-.82-.36-1.71-.55-2.68-.55"/>
  <path class="st0" d="M164.42,166.75c-.29,0-.53.1-.74.3s-.31.44-.31.73.1.55.31.75c.21.2.46.31.74.31.3,0,.54-.1.74-.31.2-.2.3-.45.3-.75s-.1-.53-.3-.73c-.19-.2-.44-.3-.74-.3"/>
  <path class="st0" d="M180.64,171.65c-.56,0-1.07-.17-1.52-.52s-.81-.81-1.07-1.4c-.26-.59-.39-1.25-.39-1.98,0-.9.21-1.62.62-2.16.41-.54,1.01-.81,1.78-.81.4,0,.75.08,1.06.23s.57.35.8.6v5.48c-.15.17-.33.31-.53.41s-.45.15-.75.15M180.79,164.48c-1.07,0-1.96.19-2.66.57s-1.23.88-1.58,1.5-.52,1.3-.52,2.04.16,1.37.47,1.89c.32.53.75.93,1.31,1.21.56.28,1.19.42,1.91.42.46,0,.88-.06,1.25-.18s.69-.27.94-.47v1.32c0,.53-.16.98-.47,1.35-.31.37-.71.55-1.19.55-.15,0-.35-.02-.58-.07s-.48-.17-.74-.36c-.26-.19-.49-.51-.7-.93l-1.55.46c.2.37.45.66.74.87.29.21.58.35.88.44.3.08.56.12.8.12.33,0,.68-.06,1.07-.18.39-.12.77-.27,1.16-.46.38-.19.74-.39,1.06-.61.33-.22.59-.43.78-.64s.29-.4.29-.56v-7.7c-.8-.39-1.7-.58-2.67-.58"/>
  <path class="st0" d="M192.1,164.5c-.52,0-.98.15-1.39.44-.4.3-.69.69-.87,1.18h-.2v-.49l.08-1.13-2.57.23v.06c.16,0,.33.04.51.09s.32.11.42.18v5.88l-.08,1.06h2.24c-.22-.15-.38-.33-.47-.52s-.13-.5-.13-.9v-3.12c.05-.36.14-.69.25-1,.12-.31.27-.56.46-.75s.41-.28.65-.28c.27,0,.46.13.58.38.12.26.08.63-.12,1.13h.06l1.38-2.25c-.14-.07-.28-.12-.41-.15-.11-.03-.25-.04-.39-.04"/>
  <path class="st0" d="M201.04,171.67c-.56,0-1.07-.17-1.52-.52s-.81-.82-1.07-1.41c-.26-.59-.39-1.26-.39-1.99,0-.9.21-1.62.62-2.16.41-.54,1.01-.81,1.78-.81.4,0,.75.08,1.06.23s.57.35.8.6v5.27c0,.09,0,.17-.02.25-.15.17-.33.31-.52.41-.2.08-.44.13-.73.13M201.19,164.48c-1.07,0-1.96.19-2.66.57s-1.23.88-1.58,1.5-.52,1.3-.52,2.04.16,1.37.47,1.89c.32.53.75.93,1.31,1.21.56.28,1.19.42,1.91.42.36,0,.69-.04,1-.11s.58-.17.83-.31l-.02.02,2.54.47v-.05c-.22-.15-.38-.32-.47-.51-.09-.18-.13-.48-.13-.89v-5.7c-.81-.36-1.71-.55-2.68-.55"/>
  <path class="st0" d="M213.52,160.22c-.55,0-1.08.09-1.6.27-.52.18-.98.44-1.4.78s-.75.76-1,1.25-.37,1.05-.37,1.68v.37h-1.09l-.08.37c.36,0,.64.02.85.07s.31.25.31.6v5.44l-.25.95h2.83v-.06c-.46-.08-.75-.24-.86-.47s-.17-.55-.17-.96v-5.57h2.34l.08-.37h-2.42v-1.01c0-.85.12-1.54.37-2.07.25-.53.67-.8,1.27-.8.33,0,.66.08.99.23s.64.33.93.54c.29.21.52.41.69.6l1.29-1.1c-.64-.33-1.18-.53-1.61-.62-.41-.07-.78-.12-1.1-.12"/>
  <path class="st0" d="M218.87,164.5l-2.57.23v.06c.16,0,.33.04.51.09s.32.11.42.18v5.88l-.09,1.06h2.25c-.22-.15-.38-.33-.47-.52s-.13-.5-.13-.9v-4.95l.08-1.13M217.93,161.13c-.28,0-.51.09-.69.28-.18.18-.28.41-.28.67s.09.49.28.67c.18.18.41.28.69.28s.49-.09.67-.28c.18-.18.27-.41.27-.67s-.09-.49-.27-.67c-.18-.19-.4-.28-.67-.28"/>
  <path class="st0" d="M227.46,164.48c-.77,0-1.48.16-2.14.47-.66.32-1.19.77-1.59,1.36s-.6,1.3-.6,2.11c0,.76.18,1.41.54,1.96s.84.98,1.44,1.27c.6.3,1.27.44,2.01.44s1.4-.15,1.9-.44c.5-.29.86-.64,1.09-1.05l-.08-.06c-.23.31-.56.52-.99.65-.42.13-.81.19-1.17.19-.62,0-1.17-.17-1.63-.5s-.82-.78-1.08-1.36c-.26-.57-.38-1.21-.38-1.91,0-.93.21-1.65.63-2.15.42-.51.95-.76,1.61-.76.47,0,.87.13,1.19.38s.53.6.63,1.04c.1.44.03.96-.19,1.55h.03l1.45-2.19c-.23-.3-.58-.54-1.03-.74-.46-.16-1.01-.26-1.64-.26"/>
  <path class="st0" d="M241.53,164.57h-2.62l-.03.09c.38.06.56.16.54.31-.02.14-.09.29-.24.43l-3.11,3.08h.54l2.79,3.26v.26h2.54c-.27-.13-.5-.28-.71-.44s-.43-.36-.67-.61-.54-.57-.9-.97l-2.16-2.51,1.04-1.04c.66-.66,1.24-1.11,1.74-1.35.5-.23.9-.37,1.22-.41l.03-.1M236.11,160.21l-2.93,1.36v.09c.48-.14.81-.21,1-.21s.28.15.28.46v9.14l-.14.95h2.57v-.06c-.38-.08-.62-.24-.72-.47s-.15-.55-.15-.96v-9.69l.09-.61"/>
  <path class="st0" d="M252.87,164.57h-2.36v.06c.18.06.36.15.53.25.17.11.28.28.32.51.05.23-.02.57-.21,1.01l-1.79,4.21-1.87-4.21c-.19-.44-.27-.78-.23-1.03.04-.25.16-.42.35-.54.19-.11.42-.18.67-.21v-.06h-3.28l.57,1.04,3.05,6.74-.17.4c-.26.59-.63,1.01-1.12,1.26-.49.25-1.05.38-1.68.38l.58.67c.53,0,.95-.11,1.26-.33s.55-.5.74-.84.36-.7.51-1.06l2.7-6.4c.19-.45.37-.79.52-1.03.15-.23.3-.41.44-.51.14-.11.3-.19.46-.25v-.06M251.47,160.61l-3.35,2.86.06.05,3.92-2.08-.63-.83"/>
  <path class="st0" d="M266.82,171.67c-.56,0-1.07-.17-1.52-.52-.45-.35-.81-.82-1.07-1.41s-.39-1.26-.39-1.99c0-.9.21-1.62.62-2.16.41-.54,1.01-.81,1.78-.81.4,0,.75.08,1.06.23s.57.35.8.6v4.95c0,.12,0,.23-.01.32-.01.09-.01.17-.02.25-.15.17-.33.31-.52.41-.21.08-.45.13-.73.13M269.73,160.21l-2.91,1.36v.09c.48-.14.81-.21,1-.21.18,0,.28.15.28.46v2.66c-.35-.06-.72-.09-1.12-.09-1.07,0-1.96.19-2.66.57s-1.23.88-1.58,1.5c-.35.62-.52,1.3-.52,2.04s.16,1.37.47,1.89c.32.53.75.93,1.31,1.21.56.28,1.19.42,1.91.42.36,0,.69-.04,1-.11s.58-.17.83-.31l-.02.02,2.54.47v-.05c-.22-.15-.38-.32-.47-.51-.09-.18-.13-.48-.13-.89v-9.92l.07-.6"/>
  <path class="st0" d="M275.72,167.48c.03-.86.24-1.53.64-2.01.39-.48.89-.73,1.48-.73.39,0,.72.09.99.28.27.18.48.41.64.67.15.27.25.53.29.8s.02.5-.05.68c-.08.18-.21.28-.41.28l-3.58.03M278.37,164.48c-.75,0-1.45.16-2.1.47-.65.32-1.18.77-1.59,1.36-.4.59-.6,1.3-.6,2.13,0,.76.18,1.41.53,1.95.35.55.83.97,1.42,1.26.6.3,1.26.44,2,.44.8,0,1.49-.16,2.08-.47s.99-.68,1.22-1.11l-.08-.06c-.15.21-.38.39-.67.53s-.6.24-.92.31c-.32.07-.62.1-.88.1-.61,0-1.15-.16-1.6-.47-.45-.32-.81-.75-1.06-1.3-.26-.55-.39-1.18-.4-1.88h4.27c.39,0,.68-.11.88-.33s.3-.49.31-.82-.09-.65-.29-.97-.51-.59-.93-.81c-.42-.22-.95-.33-1.59-.33"/>
  <path class="st0" d="M288.09,164.48c-.55,0-1.05.08-1.5.25s-.8.42-1.06.74c-.26.33-.39.72-.39,1.18,0,.28.07.57.21.9.14.32.42.62.83.88.41.27,1,.46,1.78.58.61.09,1.09.26,1.43.49.34.23.51.6.51,1.09,0,.36-.1.66-.31.9-.21.25-.57.37-1.08.37-.4,0-.8-.08-1.21-.25s-.75-.41-1.02-.74c-.27-.32-.41-.7-.41-1.14h-.03l-.89,1.47c.33.26.76.47,1.29.64s1.09.26,1.68.26c.95,0,1.7-.22,2.25-.67s.83-1.02.83-1.7c0-.32-.08-.63-.24-.93-.16-.3-.43-.57-.83-.81-.39-.24-.95-.42-1.68-.53-.33-.06-.64-.14-.94-.25-.3-.1-.55-.26-.74-.46-.19-.2-.29-.48-.29-.83,0-.18.03-.37.1-.56s.19-.35.38-.47c.18-.13.44-.19.78-.19.36,0,.72.08,1.08.25s.66.41.9.71c.24.31.34.68.31,1.12h.03l1-1.44c-.3-.25-.69-.45-1.18-.62-.49-.15-1.02-.24-1.59-.24"/>
  <path class="st0" d="M296.94,164.5l-2.57.23v.06c.16,0,.33.04.51.09.18.05.32.11.42.18v5.88l-.09,1.06h2.25c-.22-.15-.38-.33-.47-.52s-.13-.5-.13-.9v-4.95l.08-1.13M296.01,161.13c-.28,0-.51.09-.69.28-.18.18-.28.41-.28.67s.09.49.28.67.41.28.69.28.49-.09.67-.28c.18-.18.27-.41.27-.67s-.09-.49-.27-.67c-.18-.19-.41-.28-.67-.28"/>
  <path class="st0" d="M305.83,171.65c-.56,0-1.07-.17-1.52-.52-.45-.35-.81-.81-1.07-1.4s-.39-1.25-.39-1.98c0-.9.21-1.62.62-2.16.41-.54,1.01-.81,1.78-.81.4,0,.75.08,1.06.23s.57.35.8.6v5.48c-.15.17-.33.31-.53.41-.21.1-.46.15-.75.15M305.98,164.48c-1.07,0-1.96.19-2.67.57-.7.38-1.23.88-1.58,1.5-.35.62-.52,1.3-.52,2.04s.16,1.37.47,1.89c.32.53.75.93,1.31,1.21.56.28,1.19.42,1.91.42.46,0,.88-.06,1.25-.18s.69-.27.94-.47v1.32c0,.53-.16.98-.47,1.35-.31.37-.71.55-1.19.55-.15,0-.35-.02-.58-.07-.23-.05-.48-.17-.74-.36-.26-.19-.49-.51-.7-.93l-1.55.46c.2.37.45.66.74.87.29.21.58.35.88.44.3.08.56.12.8.12.33,0,.68-.06,1.07-.18s.77-.27,1.16-.46c.38-.19.74-.39,1.06-.61.33-.22.59-.43.78-.64s.29-.4.29-.56v-7.7c-.8-.39-1.69-.58-2.66-.58"/>
  <path class="st0" d="M318.19,164.48c-.46,0-.9.08-1.31.25-.41.16-.79.35-1.13.57s-.65.42-.91.6v-.28l.08-1.13-2.57.23v.06c.16,0,.33.04.51.09.18.05.32.11.42.18v5.88l-.09,1.06h2.25c-.22-.15-.38-.33-.47-.52s-.13-.5-.13-.9v-4.33c.36-.23.73-.47,1.13-.72.39-.25.83-.37,1.31-.37.27,0,.52.06.75.17s.43.32.58.64c.15.31.23.76.23,1.34v3.65l-.09,1.06h2.25c-.22-.15-.38-.33-.47-.52s-.13-.5-.13-.9v-3.31c0-.58-.07-1.05-.2-1.42-.13-.36-.31-.64-.53-.84s-.46-.34-.72-.41c-.27-.09-.52-.13-.76-.13"/>
  <path class="st0" d="M332.46,166.75c-.29,0-.53.1-.74.3s-.31.44-.31.73.1.55.31.75.46.31.74.31c.3,0,.54-.1.74-.31.2-.2.3-.45.3-.75s-.1-.53-.3-.73-.45-.3-.74-.3"/>
  <path class="st0" d="M348.66,171.85c-.47,0-.89-.14-1.26-.42s-.69-.65-.96-1.1c-.27-.45-.47-.95-.6-1.49-.14-.54-.21-1.06-.21-1.59,0-.79.16-1.4.47-1.85.32-.44.77-.67,1.36-.67.47,0,.89.14,1.26.41.37.28.69.64.96,1.1.27.45.47.95.6,1.49.14.54.21,1.07.21,1.59,0,.78-.16,1.39-.47,1.84-.31.47-.77.69-1.36.69M348.06,164.48c-.79,0-1.48.16-2.08.48-.6.32-1.07.77-1.41,1.34-.34.57-.51,1.24-.51,1.99s.17,1.42.51,1.99.81,1.02,1.41,1.34c.6.32,1.3.48,2.08.48s1.49-.16,2.09-.48c.6-.32,1.06-.77,1.4-1.35s.51-1.24.51-1.98-.17-1.43-.51-2.01c-.34-.57-.8-1.02-1.4-1.33-.59-.31-1.29-.47-2.09-.47"/>
  <path class="st0" d="M359.95,171.8c-.41,0-.77-.06-1.08-.18s-.58-.29-.82-.51v-5.8c.18-.14.39-.26.62-.34.23-.08.49-.12.77-.12.59,0,1.1.18,1.52.55.42.37.75.86.99,1.48.23.62.35,1.31.35,2.08,0,1.01-.21,1.74-.63,2.18-.41.44-.99.66-1.72.66M358.13,160.21l-2.93,1.36v.09c.48-.14.81-.21,1-.21s.28.15.28.46v8.29c0,.5-.06.84-.17,1.02-.11.18-.3.3-.57.36v.02c.67.21,1.3.35,1.88.42.58.07,1.07.1,1.46.1,1.1,0,2.01-.18,2.73-.55.71-.37,1.25-.86,1.6-1.48s.53-1.29.53-2.01-.15-1.33-.46-1.87-.75-.96-1.32-1.26c-.57-.3-1.25-.45-2.04-.45-.44,0-.83.05-1.18.15-.35.1-.65.22-.9.38v-4.18l.09-.64"/>
  <path class="st0" d="M372.34,164.5c-.52,0-.98.15-1.39.44-.4.3-.69.69-.87,1.18h-.2v-.49l.08-1.13-2.57.23v.06c.16,0,.33.04.51.09.18.05.32.11.42.18v5.88l-.08,1.06h2.24c-.22-.15-.38-.33-.47-.52s-.13-.5-.13-.9v-3.12c.05-.36.14-.69.25-1,.12-.31.27-.56.46-.75s.41-.28.65-.28c.27,0,.46.13.58.38.12.26.08.63-.12,1.13h.06l1.38-2.25c-.14-.07-.28-.12-.41-.15-.11-.03-.25-.04-.39-.04"/>
  <path class="st0" d="M381.28,171.67c-.56,0-1.07-.17-1.52-.52-.45-.35-.81-.82-1.07-1.41s-.39-1.26-.39-1.99c0-.9.21-1.62.62-2.16.41-.54,1.01-.81,1.78-.81.4,0,.75.08,1.06.23s.57.35.8.6v4.95c0,.12,0,.23-.01.32-.01.09-.01.17-.02.25-.15.17-.33.31-.52.41-.2.08-.44.13-.73.13M381.44,164.48c-1.07,0-1.96.19-2.66.57s-1.23.88-1.58,1.5c-.35.62-.52,1.3-.52,2.04s.16,1.37.47,1.89c.32.53.75.93,1.31,1.21.56.28,1.19.42,1.91.42.36,0,.69-.04,1-.11s.58-.17.83-.31l-.02.02,2.54.47v-.05c-.22-.15-.38-.32-.47-.51-.09-.18-.13-.48-.13-.89v-5.7c-.82-.36-1.71-.55-2.68-.55"/>
  <path class="st0" d="M395.4,164.57h-6.34l-.35,2.28c.22-.53.47-.94.75-1.24s.6-.51.98-.63c.38-.12.84-.18,1.38-.18h1.23l-2.82,4.87c-.41.71-.77,1.26-1.09,1.62-.32.37-.59.6-.83.7h6.51l.35-2.28c-.22.53-.47.94-.75,1.24s-.6.51-.98.63c-.38.12-.84.18-1.38.18h-1.36l3.09-5.3c.39-.66.7-1.13.93-1.39.23-.26.46-.41.68-.45v-.05"/>
  <path class="st0" d="M406.63,164.57h-2.36v.06c.18.06.36.15.53.25.17.11.28.28.32.51.05.23-.02.57-.21,1.01l-1.79,4.21-1.87-4.21c-.19-.44-.27-.78-.23-1.03.04-.25.16-.42.35-.54.19-.11.42-.18.67-.21v-.06h-3.28l.57,1.04,3.05,6.74-.17.4c-.26.59-.63,1.01-1.12,1.26s-1.05.38-1.68.38l.58.67c.53,0,.95-.11,1.26-.33s.55-.5.74-.84.36-.7.51-1.06l2.7-6.4c.19-.45.37-.79.52-1.03.15-.23.3-.41.44-.51.14-.11.3-.19.46-.25v-.06"/>
  <path class="st0" d="M38.31,121.57v-45.46h16.67c4.85,0,9.08.97,12.72,2.92,3.63,1.95,6.45,4.64,8.44,8.09,2,3.44,2.99,7.35,2.99,11.72s-1,8.28-2.99,11.72c-2,3.44-4.81,6.14-8.44,8.09-3.63,1.95-7.87,2.92-12.72,2.92h-16.67M55.13,73.9h-19.24v49.88h19.24c5.18,0,9.77-1.07,13.79-3.21,4.01-2.14,7.13-5.09,9.33-8.87,2.21-3.78,3.31-8.06,3.31-12.86s-1.1-9.08-3.31-12.86-5.32-6.73-9.33-8.87c-4.02-2.14-8.62-3.21-13.79-3.21"/>
  <path class="st0" d="M103.43,122c-3.42,0-6.12-.76-8.09-2.28s-2.96-3.61-2.96-6.27c0-2.47.89-4.43,2.67-5.88s4.6-2.17,8.44-2.17h13.47v7.7c-2.37,5.93-6.88,8.9-13.53,8.9M105.64,86.51c-2.8,0-5.48.48-8.02,1.43s-4.71,2.28-6.52,3.99l1.28,1.71c1.61-1.52,3.56-2.73,5.84-3.63,2.28-.9,4.73-1.35,7.34-1.35,3.75,0,6.59.95,8.51,2.85,1.92,1.9,2.89,4.68,2.89,8.34v3.63h-13.46c-4.7,0-8.12.94-10.26,2.81-2.14,1.88-3.21,4.31-3.21,7.3,0,3.14,1.18,5.65,3.53,7.55s5.59,2.85,9.73,2.85c3.28,0,6.09-.68,8.44-2.03,2.35-1.35,4.12-3.22,5.31-5.59v7.41h2.28v-23.94c0-4.32-1.18-7.62-3.53-9.9-2.35-2.29-5.73-3.43-10.15-3.43"/>
  <path class="st0" d="M152.17,86.51c-3.66,0-6.8.83-9.44,2.49-2.64,1.66-4.55,3.94-5.74,6.84v-9.04h-2.28v36.98h2.35v-19.95c0-4.61,1.33-8.28,3.99-11.01s6.29-4.1,10.9-4.1c4.08,0,7.23,1.15,9.44,3.46,2.21,2.3,3.31,5.64,3.31,10.01v21.59h2.35v-21.73c0-4.99-1.33-8.82-3.99-11.51-2.65-2.69-6.29-4.03-10.89-4.03"/>
  <path class="st0" d="M210.31,86.8h-2.49l-15.53,34.27-15.55-34.27h-2.57l16.83,36.91-2.35,5.06c-1.19,2.57-2.46,4.37-3.81,5.42-1.35,1.04-2.96,1.57-4.81,1.57-1.43,0-2.68-.24-3.78-.71-1.09-.48-2.14-1.26-3.14-2.35l-1.35,1.85c1,1.09,2.21,1.91,3.63,2.46s2.97.82,4.63.82c2.37,0,4.44-.64,6.2-1.92s3.32-3.47,4.7-6.56l19.39-42.55"/>
  <path class="st0" d="M227.4,86.51c-4.42,0-7.78.94-10.08,2.81-2.3,1.88-3.46,4.22-3.46,7.02,0,2.38.62,4.23,1.85,5.56,1.23,1.33,2.74,2.29,4.52,2.89,1.78.59,4.17,1.18,7.16,1.75,2.57.48,4.61.95,6.13,1.43s2.79,1.21,3.81,2.21,1.53,2.35,1.53,4.06c0,2.42-.95,4.31-2.85,5.66-1.9,1.35-4.85,2.03-8.84,2.03-2.71,0-5.26-.45-7.66-1.35-2.4-.9-4.36-2.02-5.88-3.35l-1.14,1.85c1.47,1.47,3.53,2.66,6.16,3.56,2.64.9,5.45,1.35,8.44,1.35,4.56,0,8.05-.88,10.47-2.64s3.63-4.13,3.63-7.13c0-2.28-.61-4.06-1.82-5.34-1.21-1.28-2.7-2.22-4.45-2.81-1.76-.59-4.06-1.15-6.91-1.67-2.66-.52-4.76-1.03-6.31-1.53-1.54-.5-2.84-1.27-3.88-2.32-1.05-1.04-1.57-2.47-1.57-4.28,0-2.28.93-4.12,2.78-5.52,1.85-1.4,4.61-2.1,8.27-2.1,2.09,0,4.12.3,6.09.89s3.69,1.46,5.17,2.6l1.21-1.85c-1.42-1.14-3.28-2.05-5.56-2.74-2.25-.69-4.53-1.04-6.81-1.04"/>
  <path class="st0" d="M260.89,86.51c-4.42,0-7.78.94-10.08,2.81-2.3,1.88-3.46,4.22-3.46,7.02,0,2.38.62,4.23,1.85,5.56,1.23,1.33,2.74,2.29,4.52,2.89,1.78.59,4.17,1.18,7.16,1.75,2.57.48,4.61.95,6.13,1.43,1.52.48,2.79,1.21,3.81,2.21s1.53,2.35,1.53,4.06c0,2.42-.95,4.31-2.85,5.66-1.9,1.35-4.85,2.03-8.84,2.03-2.71,0-5.26-.45-7.66-1.35-2.4-.9-4.36-2.02-5.88-3.35l-1.14,1.85c1.47,1.47,3.53,2.66,6.16,3.56,2.64.9,5.45,1.35,8.44,1.35,4.56,0,8.05-.88,10.47-2.64s3.63-4.13,3.63-7.13c0-2.28-.61-4.06-1.82-5.34-1.21-1.28-2.7-2.22-4.45-2.81-1.76-.59-4.06-1.15-6.91-1.67-2.66-.52-4.76-1.03-6.31-1.53-1.54-.5-2.84-1.27-3.88-2.32-1.05-1.04-1.57-2.47-1.57-4.28,0-2.28.93-4.12,2.78-5.52,1.85-1.4,4.61-2.1,8.27-2.1,2.09,0,4.12.3,6.09.89s3.69,1.46,5.17,2.6l1.21-1.85c-1.42-1.14-3.28-2.05-5.56-2.74-2.25-.69-4.53-1.04-6.81-1.04"/>
  <g>
    <path class="st0" d="M244.06,140.18c.18.76.62,2.2,1.03,2.96.11.21,1.07,1.63,1.15,1.7.33.27,1.04,1.03,1.38,1.19,1.74.81,1.98,1.16,4.53,1.46,14.12,1.65,26.62-13.51,33.16-24.42,3.9-6.51,8.19-14.42,11.11-21.4,1.27-3.03,3.94-8.98,4.62-11.92.06-.28.23-.92-.24-.81l-7.03.95c-1.95-1.2-.14-2.36,1.37-2.61,1.3-.22,3.01-.22,4.31-.44.41-.07,2.68-.56,2.78-.69,1.18-3.41,2.68-6.74,3.88-10.14,4.66-13.24,8.63-26.76,13.21-40.03.44-1.26,3.13-8.81,3.73-9.19s1.59-.27,1.97.32c.74,1.15.66,5.61.77,7.16.91,13.21.9,26.5,1.15,39.73.05,2.76-.05,5.52,0,8.28,1.34-.08,2.53-.34,3.86-.45.64-.05,1.5-.07,2.13-.12.89-.07,3.52-.11,4.37,0,1.67.2,1.46,2.07.37,2.28l-10.55.76c-.17,3.91.32,7.8.57,11.7.66,10.15,1.57,20.23,2.1,30.42.14,2.79.81,6.55.37,9.31-.19,1.22-1.6,1.82-2.25.56-.54-1.05-.14-6.48-.22-8.15-.59-12.01-2.17-23.97-3.04-35.94-.17-2.39.03-4.8-.39-7.22-.05-.29.14-.29-.28-.29-.62,0-1.15.29-1.73.37-1.69.22-3.3.45-4.97.73-3.37.57-6.73,1.16-10.09,1.79-.7,2.26-1.8,4.37-2.66,6.57-4.21,10.77-8.82,21.37-15.06,31.14-4.87,7.62-12.46,15.2-20.18,19.94-2.73,1.68-7.98,3.78-11.15,4.25-6.76,1-16.4-1.55-15.27-10.14.05-.35.11-1.02.15-1.17.15-.67.82-1.93,1.02-.95.12.79-.18,1.79,0,2.51h.03ZM322.59,44.26l-.72.33c-.6,2.35-1.5,4.6-2.23,6.9-2.51,8.01-5.24,15.67-7.98,23.58-1.16,3.34-2.08,6.76-3.34,10.07.99.27,1.79-.24,2.58-.37,3.27-.54,6.63-1.24,9.89-1.71.96-.14,1.83-.38,2.9-.72-.55-5.59-.37-11.26-.36-16.89.01-6.61-.1-13.34-.55-19.96-.03-.42-.17-.81-.2-1.23h.01Z"/>
    <path class="st0" d="M403.54,128.31c8.23-7.72,10.92-15.43,15.01-25.58,1.71-4.24,3.38-8.55,5.12-12.74l.46.21c.24.31-.5,3.18-.65,3.78-3.16,12.97-10.91,34.86-24.02,40.63-7.31,3.22-13.64-.27-17.99-6.23-5.43-7.44-6.4-17.06-6.2-26.03-.15-.2-.69.44-.75.53-2.05,2.84-4.4,6.26-6.67,8.88-2.68,3.1-6.95,4.36-9.66.54-3.24-4.57-1.27-11.43.54-16.22-4.56-.69-8.51-2.07-12.23-4.79-1.63-1.19-4.31-3.65-5.21-5.44-1.23-2.45-1.79-6.01-.05-8.31,2-2.65,4.81-2.51,6.72.14,2.64,3.68,3.03,7.43,2.99,11.85,0,.58-.38,1.11-.02,1.67.29.39,5.66,2.07,6.43,2.17.86.12,1.93.07,2.81.05.74-.01,2.12-.59,2.37.66.21,1.07-.3,1.02-.64,1.63-1.99,3.47-3.93,9.58-2.43,13.42.59,1.52,1.72,2.44,3.42,2.02,1.1-.27,2.33-1.58,3.07-2.44,1.96-2.26,9.15-12.66,9.15-15.21,0-1.76-.02-3.35.12-5.23.04-.54,0-1.32.04-1.82.31-3.46.44-6.95.97-10.34-.92.09-1.92.2-2.8.34-3.15.48-6.33,1.04-9.44,1.77-.97.23-2.04.87-3.09.86-1.67-.02-2.34-1.65-.63-2.3,4.61-1.73,9.71-2.18,14.49-3.19.42-.09,1.88-.36,2.06-.6.27-1.56.74-3.08,1.08-4.63,1.1-5.12,2.67-11.15,5.67-15.63,1.66-2.49,5.41-7.04,8.14-3.04,2.22,3.25.98,7.67.02,11.2-.91,3.34-2.27,6.68-3.33,9.97l.39.21c.38-.17.81-.08,1.2-.14,3.98-.57,8.62-1.97,12.56-2.08,1.18-.03,2.51.1,2.2,1.63-.1.51-.72.58-1.15.75-3.95,1.51-10.03,1.97-14.37,2.74-.76.13-1.09.23-2.06.61-1.88,5.08-3.58,10.24-5.68,15.24-.7,1.67-2.92,5.46-3.17,6.91s-.21,5.02-.21,6.65c.03,9.53,1.96,22.99,11.13,28.23,5.46,3.12,10.16.55,14.28-3.31h0ZM382.13,72.11c.82-.2,2.62-.03,3.22-.49.33-.25.71-1.49.89-1.96,1.38-3.57,3.83-10.6,4.24-14.2.17-1.48.13-3.18-1.04-4.26-.75,0-3.95,9.04-4.36,10.27-1.17,3.48-2.26,7.04-2.96,10.64h0ZM384.23,74.77c-.13-.13-2.8.16-3.01.7-.84,3.42-1.31,6.91-1.77,10.4-.06.49.05,1.36-.07,2.4.91-2.14,1.84-4.29,2.65-6.47.61-1.66,1.78-4.45,2.14-6.03.08-.33.07-.66.05-.99h.01ZM346.58,87.89c.55-1.85,0-7.96-1.9-8.84-1.64-.76-2.42,2.11-2.19,3.34.39,2.1,2.37,4.32,4.09,5.5Z"/>
  </g>
</svg>